<?xml version="1.0" encoding="utf-8"?>
<!-- Generator: Adobe Illustrator 22.0.0, SVG Export Plug-In . SVG Version: 6.00 Build 0)  -->
<svg version="1.1" id="Layer_1" xmlns="http://www.w3.org/2000/svg" xmlns:xlink="http://www.w3.org/1999/xlink" x="0px" y="0px"
	 viewBox="0 0 86.8 85.5" style="enable-background:new 0 0 86.8 85.5;" xml:space="preserve">
<style type="text/css">
	.st0{fill:#2D1A46;}
	.st1{fill:#FFFFFF;}
</style>
<g>
	<circle class="st0" cx="43.4" cy="42.8" r="38.2"/>
	<path class="st1" d="M67.9,30.5c-0.6-2.2-2.3-3.9-4.5-4.5c-4-1.1-19.9-1.1-19.9-1.1s-15.9,0-19.9,1.1c-2.2,0.6-3.9,2.3-4.5,4.5
		C18,34.5,18,42.8,18,42.8s0,8.3,1.1,12.3c0.6,2.2,2.3,3.9,4.5,4.5c4,1.1,19.9,1.1,19.9,1.1s15.9,0,19.9-1.1
		c2.2-0.6,3.9-2.3,4.5-4.5c1.1-4,1.1-12.3,1.1-12.3S68.9,34.5,67.9,30.5z M38.3,50.5V35.2l13.2,7.6L38.3,50.5z"/>
</g>
</svg>
