<?xml version="1.0" encoding="utf-8"?>
<!-- Generator: Adobe Illustrator 22.0.0, SVG Export Plug-In . SVG Version: 6.00 Build 0)  -->
<svg version="1.1" id="Layer_1" xmlns="http://www.w3.org/2000/svg" xmlns:xlink="http://www.w3.org/1999/xlink" x="0px" y="0px"
	 viewBox="0 0 176.3 179.5" style="enable-background:new 0 0 176.3 179.5;" xml:space="preserve">
<style type="text/css">
	.st0{fill:url(#SVGID_1_);}
	.st1{fill:#FFFFFF;}
</style>
<g>
	
		<linearGradient id="SVGID_1_" gradientUnits="userSpaceOnUse" x1="149.1354" y1="1057.8354" x2="26.6646" y2="935.3646" gradientTransform="matrix(1 0 0 -1 0 1085)">
		<stop  offset="0" style="stop-color:#00FB73"/>
		<stop  offset="1" style="stop-color:#00B25B"/>
	</linearGradient>
	<circle class="st0" cx="87.9" cy="88.4" r="86.6"/>
	<path class="st1" d="M41.1,137.4l7.2-26.9c-4.1-7.4-6.2-15.6-6.2-24c0-27.4,22.3-49.8,49.8-49.8c27.4,0,49.8,22.3,49.8,49.8
		c0,27.4-22.3,49.8-49.8,49.8c-8.2,0-16.4-2.1-23.7-6L41.1,137.4z M69.5,120.1l1.7,1c6.3,3.7,13.4,5.7,20.6,5.7
		c22.2,0,40.4-18.1,40.4-40.4s-18.1-40.3-40.4-40.3c-22.2,0-40.3,18.1-40.3,40.3c0,7.3,2,14.6,5.9,20.9l1,1.7l-4,15L69.5,120.1z"/>
	<path class="st1" d="M110.3,93.4c-2-1.2-4.7-2.6-7.1-1.6c-1.9,0.8-3,3.7-4.2,5.1c-0.6,0.8-1.4,0.9-2.3,0.5
		c-6.9-2.8-12.3-7.4-16.1-13.8c-0.6-1-0.5-1.8,0.2-2.7c1.2-1.4,2.6-2.9,2.9-4.8c0.3-1.8-0.5-4-1.3-5.6c-1-2.1-2.1-5.1-4.2-6.3
		c-1.9-1.1-4.5-0.5-6.2,0.9c-3,2.4-4.4,6.2-4.3,9.9c0,1.1,0.1,2.1,0.4,3.2c0.6,2.5,1.7,4.8,3,7c1,1.7,2,3.3,3.2,4.8
		c3.7,5,8.3,9.4,13.7,12.7c2.7,1.6,5.6,3.1,8.5,4.1c3.3,1.1,6.3,2.3,9.9,1.6c3.8-0.7,7.5-3.1,9-6.7c0.4-1.1,0.7-2.3,0.4-3.4
		C115.4,95.9,112.2,94.5,110.3,93.4z"/>
</g>
</svg>
