<?xml version="1.0" encoding="utf-8"?>
<!-- Generator: Adobe Illustrator 22.0.0, SVG Export Plug-In . SVG Version: 6.00 Build 0)  -->
<svg version="1.1" id="Layer_1" xmlns="http://www.w3.org/2000/svg" xmlns:xlink="http://www.w3.org/1999/xlink" x="0px" y="0px"
	 viewBox="0 0 86.8 85.5" style="enable-background:new 0 0 86.8 85.5;" xml:space="preserve">
<style type="text/css">
	.st0{fill:#2D1A46;}
	.st1{fill:#FFFFFF;}
</style>
<g>
	<circle class="st0" cx="43.4" cy="42.8" r="38.2"/>
	<g>
		<g>
			<path class="st1" d="M43.4,23c6.4,0,7.2,0,9.7,0.1c2.3,0.1,3.6,0.5,4.5,0.8c1.1,0.4,1.9,1,2.8,1.8c0.8,0.8,1.4,1.6,1.8,2.8
				c0.3,0.8,0.7,2.1,0.8,4.5c0.1,2.5,0.1,3.3,0.1,9.7c0,6.4,0,7.2-0.1,9.7c-0.1,2.3-0.5,3.6-0.8,4.5c-0.4,1.1-1,1.9-1.8,2.8
				c-0.8,0.8-1.6,1.4-2.8,1.8c-0.8,0.3-2.1,0.7-4.5,0.8c-2.5,0.1-3.3,0.1-9.7,0.1s-7.2,0-9.7-0.1c-2.3-0.1-3.6-0.5-4.5-0.8
				c-1.1-0.4-1.9-1-2.8-1.8c-0.8-0.8-1.4-1.6-1.8-2.8c-0.3-0.8-0.7-2.1-0.8-4.5c-0.1-2.5-0.1-3.3-0.1-9.7c0-6.4,0-7.2,0.1-9.7
				c0.1-2.3,0.5-3.6,0.8-4.5c0.4-1.1,1-1.9,1.8-2.8c0.8-0.8,1.6-1.4,2.8-1.8c0.8-0.3,2.1-0.7,4.5-0.8C36.2,23,37,23,43.4,23
				 M43.4,18.6c-6.5,0-7.4,0-9.9,0.1c-2.6,0.1-4.3,0.5-5.8,1.1c-1.6,0.6-2.9,1.4-4.3,2.8c-1.3,1.3-2.2,2.7-2.8,4.3
				c-0.6,1.5-1,3.3-1.1,5.8c-0.1,2.6-0.1,3.4-0.1,9.9s0,7.4,0.1,9.9c0.1,2.6,0.5,4.3,1.1,5.8c0.6,1.6,1.4,2.9,2.8,4.3
				c1.3,1.3,2.7,2.2,4.3,2.8c1.5,0.6,3.3,1,5.8,1.1c2.6,0.1,3.4,0.1,9.9,0.1s7.4,0,9.9-0.1c2.6-0.1,4.3-0.5,5.8-1.1
				c1.6-0.6,2.9-1.4,4.3-2.8c1.3-1.3,2.2-2.7,2.8-4.3c0.6-1.5,1-3.3,1.1-5.8c0.1-2.6,0.1-3.4,0.1-9.9s0-7.4-0.1-9.9
				c-0.1-2.6-0.5-4.3-1.1-5.8c-0.6-1.6-1.4-2.9-2.8-4.3c-1.3-1.3-2.7-2.2-4.3-2.8c-1.5-0.6-3.3-1-5.8-1.1
				C50.7,18.6,49.9,18.6,43.4,18.6L43.4,18.6z"/>
			<path class="st1" d="M43.4,30.4c-6.8,0-12.4,5.5-12.4,12.4c0,6.8,5.5,12.4,12.4,12.4c6.8,0,12.4-5.5,12.4-12.4
				C55.7,36,50.2,30.4,43.4,30.4z M43.4,50.8c-4.4,0-8-3.6-8-8s3.6-8,8-8s8,3.6,8,8S47.8,50.8,43.4,50.8z"/>
			<circle class="st1" cx="56.2" cy="29.9" r="2.9"/>
		</g>
	</g>
</g>
</svg>
