<?xml version="1.0" encoding="utf-8"?>
<!-- Generator: Adobe Illustrator 22.0.0, SVG Export Plug-In . SVG Version: 6.00 Build 0)  -->
<svg version="1.1" id="Layer_1" xmlns="http://www.w3.org/2000/svg" xmlns:xlink="http://www.w3.org/1999/xlink" x="0px" y="0px"
	 viewBox="0 0 176.3 179.5" style="enable-background:new 0 0 176.3 179.5;" xml:space="preserve">
<style type="text/css">
	.st0{fill:url(#SVGID_1_);}
	.st1{fill:#FFFFFF;}
</style>
<g>
	
		<linearGradient id="SVGID_1_" gradientUnits="userSpaceOnUse" x1="149.4021" y1="1056.4855" x2="26.9312" y2="934.0145" gradientTransform="matrix(1 0 0 -1 0 1085)">
		<stop  offset="0" style="stop-color:#00CCFF"/>
		<stop  offset="0.4752" style="stop-color:#00CAFF"/>
		<stop  offset="0.6464" style="stop-color:#00C3FF"/>
		<stop  offset="0.7685" style="stop-color:#00B8FF"/>
		<stop  offset="0.8671" style="stop-color:#00A7FF"/>
		<stop  offset="0.9506" style="stop-color:#0091FF"/>
		<stop  offset="1" style="stop-color:#0080FF"/>
	</linearGradient>
	<circle class="st0" cx="88.2" cy="89.8" r="86.6"/>
	<path class="st1" d="M136.1,60.2c-3,1.4-6.3,2.2-9.6,2.7c1.5-0.3,3.8-3,4.7-4.2c1.4-1.7,2.5-3.7,3.2-5.8c0.1-0.2,0.1-0.4,0-0.5
		c-0.2-0.1-0.3,0-0.5,0c-3.6,1.9-7.4,3.3-11.3,4.3c-0.3,0.1-0.6,0-0.8-0.2c-0.3-0.4-0.6-0.7-1-1c-1.7-1.4-3.5-2.5-5.5-3.4
		c-2.7-1.1-5.6-1.5-8.4-1.4c-2.8,0.2-5.5,1-8,2.3s-4.7,3.1-6.4,5.3c-1.8,2.2-3.2,4.9-3.8,7.7c-0.7,2.7-0.6,5.4-0.2,8.1
		c0.1,0.5,0,0.5-0.4,0.5c-15.6-2.3-28.5-7.9-38.9-19.8c-0.5-0.5-0.7-0.5-1.1,0c-4.6,6.9-2.4,17.9,3.4,23.3c0.8,0.7,1.5,1.4,2.4,2.1
		c-0.3,0.1-4.1-0.3-7.5-2.1c-0.5-0.3-0.7-0.1-0.7,0.4c0,0.7,0,1.4,0.1,2.2c0.9,7,5.7,13.4,12.3,15.9c0.8,0.3,1.7,0.6,2.5,0.8
		c-1.5,0.3-3.1,0.6-7.4,0.2c-0.5-0.1-0.7,0.2-0.5,0.7c3.2,8.8,10.2,11.5,15.5,13c0.7,0.1,1.4,0.1,2.1,0.3c0,0.1-0.1,0.1-0.1,0.1
		c-1.7,2.6-7.8,4.6-10.6,5.6c-5.1,1.8-10.7,2.6-16.1,2.1c-0.9-0.1-1-0.1-1.3,0c-0.2,0.1,0,0.4,0.2,0.6c1.1,0.7,2.2,1.4,3.3,2
		c3.4,1.8,7,3.3,10.7,4.3c19.3,5.3,41,1.4,55.5-13c11.4-11.3,15.4-26.9,15.4-42.5c0-0.6,0.7-0.9,1.1-1.3c3-2.2,5.3-4.9,7.6-7.9
		c0.5-0.7,0.5-1.3,0.5-1.5V60C136.4,59.9,136.4,60,136.1,60.2z"/>
</g>
</svg>
