<?xml version="1.0" encoding="utf-8"?>
<!-- Generator: Adobe Illustrator 22.0.0, SVG Export Plug-In . SVG Version: 6.00 Build 0)  -->
<svg version="1.1" id="Layer_1" xmlns="http://www.w3.org/2000/svg" xmlns:xlink="http://www.w3.org/1999/xlink" x="0px" y="0px"
	 viewBox="0 0 176.3 179.5" style="enable-background:new 0 0 176.3 179.5;" xml:space="preserve">
<style type="text/css">
	.st0{fill:url(#SVGID_1_);}
	.st1{fill:#FFFFFF;}
</style>
<g>
	
		<linearGradient id="SVGID_1_" gradientUnits="userSpaceOnUse" x1="149.4021" y1="1056.4855" x2="26.9312" y2="934.0146" gradientTransform="matrix(1 0 0 -1 0 1085)">
		<stop  offset="0" style="stop-color:#FF0000"/>
		<stop  offset="0.4497" style="stop-color:#FD0000"/>
		<stop  offset="0.6117" style="stop-color:#F60000"/>
		<stop  offset="0.7272" style="stop-color:#EB0000"/>
		<stop  offset="0.8205" style="stop-color:#DA0000"/>
		<stop  offset="0.9005" style="stop-color:#C40000"/>
		<stop  offset="0.9701" style="stop-color:#A90000"/>
		<stop  offset="1" style="stop-color:#9B0000"/>
	</linearGradient>
	<circle class="st0" cx="88.2" cy="89.8" r="86.6"/>
	<path class="st1" d="M134.6,77.2c0-11.5-9.3-20.8-20.8-20.8H60.6c-11.5,0-20.8,9.3-20.8,20.8V102c0,11.5,9.3,20.8,20.8,20.8h53.2
		c11.5,0,20.8-9.3,20.8-20.8V77.2z M103.3,91.5l-23.9,11.8c-0.9,0.5-4.1-0.2-4.1-1.2V77.9c0-1.1,3.2-1.8,4.1-1.2l22.8,12.4
		C103.3,89.6,104.3,90.9,103.3,91.5z"/>
</g>
</svg>
