<?xml version="1.0" encoding="utf-8"?>
<!-- Generator: Adobe Illustrator 22.0.0, SVG Export Plug-In . SVG Version: 6.00 Build 0)  -->
<svg version="1.1" id="Layer_1" xmlns="http://www.w3.org/2000/svg" xmlns:xlink="http://www.w3.org/1999/xlink" x="0px" y="0px"
	 viewBox="0 0 176.3 179.5" style="enable-background:new 0 0 176.3 179.5;" xml:space="preserve">
<style type="text/css">
	.st0{fill:url(#SVGID_1_);}
	.st1{fill:#FFFFFF;}
</style>
<g>
	
		<linearGradient id="SVGID_1_" gradientUnits="userSpaceOnUse" x1="149.4021" y1="1056.4855" x2="26.9312" y2="934.0145" gradientTransform="matrix(1 0 0 -1 0 1085)">
		<stop  offset="1.104800e-03" style="stop-color:#FFE185"/>
		<stop  offset="0.2094" style="stop-color:#FFBB36"/>
		<stop  offset="0.3765" style="stop-color:#FF5176"/>
		<stop  offset="0.5238" style="stop-color:#F63395"/>
		<stop  offset="0.7394" style="stop-color:#A436D2"/>
		<stop  offset="1" style="stop-color:#5F4EED"/>
	</linearGradient>
	<circle class="st0" cx="88.2" cy="89.8" r="86.6"/>
	<g>
		<g>
			<path class="st1" d="M115.1,57.1c-3.3,0-6,2.7-6,6c0,3.3,2.7,6,6,6s6-2.7,6-6C121,59.7,118.4,57.1,115.1,57.1z"/>
			<path class="st1" d="M88.6,64.7c-13.8,0-25,11.2-25,25s11.2,25,25,25s25-11.2,25-25S102.4,64.7,88.6,64.7z M88.6,105.7
				c-8.8,0-16-7.2-16-16s7.2-16,16-16s16,7.2,16,16C104.6,98.6,97.5,105.7,88.6,105.7z"/>
			<path class="st1" d="M108.5,140.4H68c-16.8,0-30.5-13.7-30.5-30.5V69.4c0-16.8,13.7-30.5,30.5-30.5h40.5
				c16.8,0,30.5,13.7,30.5,30.5v40.6C139,126.8,125.3,140.4,108.5,140.4z M67.9,48.5c-11.6,0-21,9.4-21,21v40.6c0,11.6,9.4,21,21,21
				h40.5c11.6,0,21-9.4,21-21V69.5c0-11.6-9.4-21-21-21H67.9z"/>
		</g>
	</g>
</g>
</svg>
