<?xml version="1.0" encoding="utf-8"?>
<!-- Generator: Adobe Illustrator 22.0.0, SVG Export Plug-In . SVG Version: 6.00 Build 0)  -->
<svg version="1.0" xmlns="http://www.w3.org/2000/svg" xmlns:xlink="http://www.w3.org/1999/xlink" x="0px" y="0px"
	 viewBox="0 0 120.3 120.5" style="enable-background:new 0 0 120.3 120.5;" xml:space="preserve">
<style type="text/css">
	.st0{fill:#2D1A46;}
	.st1{fill:#FFEA27;}
	.st2{fill:none;stroke:#FFFFFF;stroke-miterlimit:10;}
	.st3{fill:#1A4634;}
	.st4{fill:#FFFBD1;}
	.st5{fill:#FF2727;}
	.st6{opacity:0.75;fill:#1A1A1A;}
	.st7{fill:#CCCCCC;}
	.st8{fill:#FFFFFF;}
	.st9{fill:#210C35;}
	.st10{fill:none;stroke:#2D1A46;stroke-width:6;stroke-miterlimit:10;}
	.st11{fill-rule:evenodd;clip-rule:evenodd;fill:#2D1A46;}
	.st12{fill-rule:evenodd;clip-rule:evenodd;fill:#FFFFFF;}
	.st13{clip-path:url(#SVGID_10_);fill:#FFEA27;}
	.st14{clip-path:url(#SVGID_10_);}
	.st15{fill:none;stroke:#FFEA27;stroke-width:5;stroke-linecap:round;stroke-linejoin:round;}
	.st16{fill:none;stroke:#FFEA27;stroke-width:5;stroke-linecap:round;stroke-linejoin:round;stroke-dasharray:11.8957,11.8957;}
	.st17{fill:none;stroke:#FFEA27;stroke-width:5;stroke-linecap:round;stroke-linejoin:round;stroke-dasharray:13.9813,13.9813;}
	.st18{fill:none;stroke:#FFEA27;stroke-width:5;stroke-linecap:round;stroke-linejoin:round;stroke-dasharray:11.5079,11.5079;}
	.st19{fill:none;stroke:#FFEA27;stroke-width:5;stroke-linecap:round;stroke-linejoin:round;stroke-dasharray:12.0138,12.0138;}
	.st20{fill:none;stroke:#FFEA27;stroke-width:5;stroke-linecap:round;stroke-linejoin:round;stroke-dasharray:12.3813,12.3813;}
	.st21{fill:none;stroke:#FFEA27;stroke-width:5;stroke-linecap:round;stroke-linejoin:round;stroke-dasharray:11.4781,11.4781;}
	.st22{fill:none;stroke:#FFEA27;stroke-width:5;stroke-linecap:round;stroke-linejoin:round;stroke-dasharray:15.1875,15.1875;}
	.st23{fill:none;stroke:#FFEA27;stroke-width:5;stroke-linecap:round;stroke-linejoin:round;stroke-dasharray:12.1437,12.1437;}
	.st24{fill:none;stroke:#FFEA27;stroke-width:5;stroke-linecap:round;stroke-linejoin:round;stroke-dasharray:15.1677,15.1677;}
	.st25{fill:none;stroke:#FFEA27;stroke-width:5;stroke-linecap:round;stroke-linejoin:round;stroke-dasharray:11.6708,11.6708;}
	.st26{fill:none;stroke:#FFEA27;stroke-width:5;stroke-linecap:round;stroke-linejoin:round;stroke-dasharray:12.051,12.051;}
	.st27{fill:none;stroke:#FFEA27;stroke-width:5;stroke-linecap:round;stroke-linejoin:round;stroke-dasharray:12.1369,12.1369;}
	.st28{fill:none;stroke:#FFEA27;stroke-width:5;stroke-linecap:round;stroke-linejoin:round;stroke-dasharray:12.4807,12.4807;}
	.st29{fill:none;stroke:#FFEA27;stroke-width:5;stroke-linecap:round;stroke-linejoin:round;stroke-dasharray:12.0995,12.0995;}
	.st30{fill:none;stroke:#FFEA27;stroke-width:5;stroke-linecap:round;stroke-linejoin:round;stroke-dasharray:12.1146,12.1146;}
	.st31{fill:none;stroke:#FFEA27;stroke-width:5;stroke-linecap:round;stroke-linejoin:round;stroke-dasharray:9.5969,9.5969;}
	.st32{fill:none;stroke:#FFEA27;stroke-width:5;stroke-linecap:round;stroke-linejoin:round;stroke-dasharray:12.0584,12.0584;}
	.st33{fill:none;stroke:#FFEA27;stroke-width:5;stroke-linecap:round;stroke-linejoin:round;stroke-dasharray:12.0737,12.0737;}
	.st34{fill:none;stroke:#FFEA27;stroke-width:5;stroke-linecap:round;stroke-linejoin:round;stroke-dasharray:12.5656,12.5656;}
	.st35{fill:none;stroke:#FFEA27;stroke-width:5;stroke-linecap:round;stroke-linejoin:round;stroke-dasharray:11.7897,11.7897;}
	.st36{fill:none;stroke:#FFEA27;stroke-width:5;stroke-linecap:round;stroke-linejoin:round;stroke-dasharray:14.3397,14.3397;}
	.st37{fill:none;stroke:#FFEA27;stroke-width:5;stroke-linecap:round;stroke-linejoin:round;stroke-dasharray:13.2142,13.2142;}
	.st38{fill:none;stroke:#FFEA27;stroke-width:5;stroke-linecap:round;stroke-linejoin:round;stroke-dasharray:10.9549,10.9549;}
	.st39{fill:none;stroke:#FFEA27;stroke-width:5;stroke-linecap:round;stroke-linejoin:round;stroke-dasharray:11.9367,11.9367;}
	.st40{fill:none;stroke:#FFEA27;stroke-width:5;stroke-linecap:round;stroke-linejoin:round;stroke-dasharray:6.6597,6.6597;}
	.st41{fill:none;stroke:#FFEA27;stroke-width:5;stroke-linecap:round;stroke-linejoin:round;stroke-dasharray:11.7302,11.7302;}
	.st42{fill:none;stroke:#FFEA27;stroke-width:5;stroke-linecap:round;stroke-linejoin:round;stroke-dasharray:11.6198,11.6198;}
	.st43{fill:none;stroke:#FFEA27;stroke-width:5;stroke-linecap:round;stroke-linejoin:round;stroke-dasharray:9.7352,9.7352;}
	.st44{fill:none;stroke:#FFEA27;stroke-width:5;stroke-linecap:round;stroke-linejoin:round;stroke-dasharray:13.0032,13.0032;}
	.st45{fill:none;stroke:#FFEA27;stroke-width:5;stroke-linecap:round;stroke-linejoin:round;stroke-dasharray:12.097,12.097;}
	.st46{fill:none;stroke:#FFEA27;stroke-width:5;stroke-linecap:round;stroke-linejoin:round;stroke-dasharray:11.9187,11.9187;}
	.st47{clip-path:url(#SVGID_16_);}
	.st48{clip-path:url(#SVGID_18_);}
	.st49{fill:#1F0036;}
	.st50{fill:#FFEB2B;}
	.st51{fill:none;stroke:#2D1A46;stroke-width:7;stroke-miterlimit:10;}
	.st52{display:none;}
</style>
<g id="Fondo_Morado">
</g>
<g id="Colores_fondo">
</g>
<g id="Layer_8">
</g>
<g id="Estrellas_de_Fondo">
	<g>
		<g>
			<circle class="st0" cx="60.2" cy="60.2" r="60"/>
		</g>
		<g>
			<g>
				<path class="st12" d="M60.5,13.8C35,13.8,14.3,34.5,14.3,60s20.7,46.1,46.1,46.1c25.4,0,46.1-20.7,46.1-46.1
					S85.9,13.8,60.5,13.8z M91,35.1c5.5,6.7,8.8,15.3,8.9,24.5c-1.3-0.3-14.3-2.9-27.4-1.3c-0.3-0.7-0.6-1.4-0.9-2.1
					c-0.8-1.9-1.7-3.9-2.6-5.7C83.5,44.7,90.1,36.2,91,35.1z M60.5,20.6c10,0,19.2,3.8,26.1,9.9c-0.7,1-6.7,9-20.7,14.2
					c-6.5-11.9-13.6-21.6-14.7-23.1C54.2,21,57.3,20.6,60.5,20.6z M43.7,24.3c1.1,1.4,8.1,11.2,14.6,22.8
					c-18.4,4.9-34.7,4.8-36.4,4.8C24.4,39.7,32.7,29.5,43.7,24.3z M21,60c0-0.4,0-0.8,0-1.2c1.7,0.1,20.8,0.3,40.5-5.6
					c1.2,2.2,2.2,4.5,3.2,6.7c-0.5,0.2-1.1,0.3-1.6,0.5c-20.3,6.6-31.1,24.5-32,26C24.9,79.4,21,70.1,21,60z M60.5,99.4
					c-9.1,0-17.5-3.1-24.2-8.3C37,89.6,45,74.2,67.2,66.5c0.1-0.1,0.2-0.1,0.3-0.1c5.6,14.4,7.8,26.4,8.4,29.9
					C71.1,98.3,65.9,99.4,60.5,99.4z M82.5,92.6c-0.4-2.4-2.5-13.9-7.7-28.1c12.4-2,23.2,1.3,24.5,1.7
					C97.6,77.2,91.3,86.7,82.5,92.6z"/>
			</g>
		</g>
	</g>
</g>
<g id="Logos">
</g>
<g id="Graficos">
</g>
<g id="Letra">
</g>
<g id="Layer_7" class="st52">
</g>
</svg>
