<?xml version="1.0" encoding="utf-8"?>
<!-- Generator: Adobe Illustrator 22.0.0, SVG Export Plug-In . SVG Version: 6.00 Build 0)  -->
<svg version="1.0" xmlns="http://www.w3.org/2000/svg" xmlns:xlink="http://www.w3.org/1999/xlink" x="0px" y="0px"
	 viewBox="0 0 120.3 120.5" style="enable-background:new 0 0 120.3 120.5;" xml:space="preserve">
<style type="text/css">
	.st0{fill:#2D1A46;}
	.st1{fill:#FFEA27;}
	.st2{fill:none;stroke:#FFFFFF;stroke-miterlimit:10;}
	.st3{fill:#1A4634;}
	.st4{fill:#FFFBD1;}
	.st5{fill:#FF2727;}
	.st6{opacity:0.75;fill:#1A1A1A;}
	.st7{fill:#CCCCCC;}
	.st8{fill:#FFFFFF;}
	.st9{fill:#210C35;}
	.st10{fill:none;stroke:#2D1A46;stroke-width:6;stroke-miterlimit:10;}
	.st11{fill-rule:evenodd;clip-rule:evenodd;fill:#2D1A46;}
	.st12{fill-rule:evenodd;clip-rule:evenodd;fill:#FFFFFF;}
	.st13{clip-path:url(#SVGID_10_);fill:#FFEA27;}
	.st14{clip-path:url(#SVGID_10_);}
	.st15{fill:none;stroke:#FFEA27;stroke-width:5;stroke-linecap:round;stroke-linejoin:round;}
	.st16{fill:none;stroke:#FFEA27;stroke-width:5;stroke-linecap:round;stroke-linejoin:round;stroke-dasharray:11.8957,11.8957;}
	.st17{fill:none;stroke:#FFEA27;stroke-width:5;stroke-linecap:round;stroke-linejoin:round;stroke-dasharray:13.9813,13.9813;}
	.st18{fill:none;stroke:#FFEA27;stroke-width:5;stroke-linecap:round;stroke-linejoin:round;stroke-dasharray:11.5079,11.5079;}
	.st19{fill:none;stroke:#FFEA27;stroke-width:5;stroke-linecap:round;stroke-linejoin:round;stroke-dasharray:12.0138,12.0138;}
	.st20{fill:none;stroke:#FFEA27;stroke-width:5;stroke-linecap:round;stroke-linejoin:round;stroke-dasharray:12.3813,12.3813;}
	.st21{fill:none;stroke:#FFEA27;stroke-width:5;stroke-linecap:round;stroke-linejoin:round;stroke-dasharray:11.4781,11.4781;}
	.st22{fill:none;stroke:#FFEA27;stroke-width:5;stroke-linecap:round;stroke-linejoin:round;stroke-dasharray:15.1875,15.1875;}
	.st23{fill:none;stroke:#FFEA27;stroke-width:5;stroke-linecap:round;stroke-linejoin:round;stroke-dasharray:12.1437,12.1437;}
	.st24{fill:none;stroke:#FFEA27;stroke-width:5;stroke-linecap:round;stroke-linejoin:round;stroke-dasharray:15.1677,15.1677;}
	.st25{fill:none;stroke:#FFEA27;stroke-width:5;stroke-linecap:round;stroke-linejoin:round;stroke-dasharray:11.6708,11.6708;}
	.st26{fill:none;stroke:#FFEA27;stroke-width:5;stroke-linecap:round;stroke-linejoin:round;stroke-dasharray:12.051,12.051;}
	.st27{fill:none;stroke:#FFEA27;stroke-width:5;stroke-linecap:round;stroke-linejoin:round;stroke-dasharray:12.1369,12.1369;}
	.st28{fill:none;stroke:#FFEA27;stroke-width:5;stroke-linecap:round;stroke-linejoin:round;stroke-dasharray:12.4807,12.4807;}
	.st29{fill:none;stroke:#FFEA27;stroke-width:5;stroke-linecap:round;stroke-linejoin:round;stroke-dasharray:12.0995,12.0995;}
	.st30{fill:none;stroke:#FFEA27;stroke-width:5;stroke-linecap:round;stroke-linejoin:round;stroke-dasharray:12.1146,12.1146;}
	.st31{fill:none;stroke:#FFEA27;stroke-width:5;stroke-linecap:round;stroke-linejoin:round;stroke-dasharray:9.5969,9.5969;}
	.st32{fill:none;stroke:#FFEA27;stroke-width:5;stroke-linecap:round;stroke-linejoin:round;stroke-dasharray:12.0584,12.0584;}
	.st33{fill:none;stroke:#FFEA27;stroke-width:5;stroke-linecap:round;stroke-linejoin:round;stroke-dasharray:12.0737,12.0737;}
	.st34{fill:none;stroke:#FFEA27;stroke-width:5;stroke-linecap:round;stroke-linejoin:round;stroke-dasharray:12.5656,12.5656;}
	.st35{fill:none;stroke:#FFEA27;stroke-width:5;stroke-linecap:round;stroke-linejoin:round;stroke-dasharray:11.7897,11.7897;}
	.st36{fill:none;stroke:#FFEA27;stroke-width:5;stroke-linecap:round;stroke-linejoin:round;stroke-dasharray:14.3397,14.3397;}
	.st37{fill:none;stroke:#FFEA27;stroke-width:5;stroke-linecap:round;stroke-linejoin:round;stroke-dasharray:13.2142,13.2142;}
	.st38{fill:none;stroke:#FFEA27;stroke-width:5;stroke-linecap:round;stroke-linejoin:round;stroke-dasharray:10.9549,10.9549;}
	.st39{fill:none;stroke:#FFEA27;stroke-width:5;stroke-linecap:round;stroke-linejoin:round;stroke-dasharray:11.9367,11.9367;}
	.st40{fill:none;stroke:#FFEA27;stroke-width:5;stroke-linecap:round;stroke-linejoin:round;stroke-dasharray:6.6597,6.6597;}
	.st41{fill:none;stroke:#FFEA27;stroke-width:5;stroke-linecap:round;stroke-linejoin:round;stroke-dasharray:11.7302,11.7302;}
	.st42{fill:none;stroke:#FFEA27;stroke-width:5;stroke-linecap:round;stroke-linejoin:round;stroke-dasharray:11.6198,11.6198;}
	.st43{fill:none;stroke:#FFEA27;stroke-width:5;stroke-linecap:round;stroke-linejoin:round;stroke-dasharray:9.7352,9.7352;}
	.st44{fill:none;stroke:#FFEA27;stroke-width:5;stroke-linecap:round;stroke-linejoin:round;stroke-dasharray:13.0032,13.0032;}
	.st45{fill:none;stroke:#FFEA27;stroke-width:5;stroke-linecap:round;stroke-linejoin:round;stroke-dasharray:12.097,12.097;}
	.st46{fill:none;stroke:#FFEA27;stroke-width:5;stroke-linecap:round;stroke-linejoin:round;stroke-dasharray:11.9187,11.9187;}
	.st47{clip-path:url(#SVGID_16_);}
	.st48{clip-path:url(#SVGID_18_);}
	.st49{fill:#1F0036;}
	.st50{fill:#FFEB2B;}
	.st51{fill:none;stroke:#2D1A46;stroke-width:7;stroke-miterlimit:10;}
	.st52{display:none;}
</style>
<g id="Fondo_Morado">
</g>
<g id="Colores_fondo">
</g>
<g id="Layer_8">
</g>
<g id="Estrellas_de_Fondo">
	<g>
		<circle class="st11" cx="60.2" cy="60.2" r="60"/>
		<path class="st8" d="M93.7,40.4c0-0.3,0-0.4-0.4-0.4c-0.9,0-1.7-0.1-2.6-0.2c-3.1-0.5-13.3-5.8-15-14.5c0-0.2-0.4-2.3-0.4-3.3
			c0-0.4,0-0.4-0.4-0.4c-0.1,0-0.2,0-0.3,0c-4,0-8,0-11.9,0c-0.8,0-0.7-0.1-0.7,0.7c0,17.2,0,34.5,0,51.7c0,0.6,0,1.3-0.1,1.9
			c-0.6,3.3-2.3,5.9-5.2,7.7c-2.5,1.5-5.2,2-8.1,1.4c-0.9-0.2-1.8-0.5-2.6-0.9c-0.1-0.1-0.1-0.1-0.2-0.2c-0.3-0.2-0.6-0.4-0.9-0.7
			c-3.7-2.5-5.4-6.1-4.9-10.5c0.5-4.5,3.1-7.5,7.4-9.1c1.3-0.5,2.6-0.7,4-0.6c0.9,0,1.7,0.2,2.6,0.4c0.3,0.1,0.5,0,0.5-0.3
			c0-0.1,0-0.2,0-0.3c0-3.1-0.1-9.9-0.1-9.9c0-0.9,0-1.8,0-2.7c0-0.3-0.1-0.3-0.3-0.3c-1.6-0.2-3.2-0.2-4.8-0.1
			c-2.2,0.2-4.4,0.6-6.5,1.4c-3.3,1.2-6.3,3.1-8.8,5.6c-2.2,2.1-3.9,4.6-5.1,7.4c-1.2,2.7-1.9,5.5-2.1,8.4c-0.1,1.3-0.1,2.5,0,3.8
			c0.2,1.7,0.5,3.5,1,5.1c1.5,4.8,4.3,8.7,8.3,11.9c0.4,0.3,0.8,0.7,1.3,0.9c0,0,0,0,0,0c0.2,0.2,0.4,0.4,0.6,0.5
			c0.6,0.5,1.3,0.9,2,1.2c4.4,2.2,9.1,3.1,14,2.5c6.4-0.8,11.7-3.6,15.8-8.5c3.9-4.6,5.8-9.9,5.9-15.9c0-8.6,0-17.2,0-25.8
			c0-0.2-0.1-0.5,0.1-0.6c0.2-0.1,0.4,0.2,0.5,0.3c3.2,2.1,6.6,3.6,10.4,4.5c2.2,0.5,4.4,0.8,6.6,0.8c0.7,0,0.8,0,0.8-0.7
			C93.9,49.6,93.7,41.3,93.7,40.4z"/>
	</g>
</g>
<g id="Logos">
</g>
<g id="Graficos">
</g>
<g id="Letra">
</g>
<g id="Layer_7" class="st52">
</g>
</svg>
