<?xml version="1.0" encoding="utf-8"?>
<!-- Generator: Adobe Illustrator 22.0.0, SVG Export Plug-In . SVG Version: 6.00 Build 0)  -->
<svg version="1.1" id="Layer_1" xmlns="http://www.w3.org/2000/svg" xmlns:xlink="http://www.w3.org/1999/xlink" x="0px" y="0px"
	 viewBox="0 0 86.8 85.5" style="enable-background:new 0 0 86.8 85.5;" xml:space="preserve">
<style type="text/css">
	.st0{fill:#2D1A46;}
	.st1{fill:#FFFFFF;}
</style>
<g>
	<circle class="st0" cx="43.4" cy="42.8" r="38.2"/>
	<g>
		<g>
			<path class="st1" d="M35.7,64.8c18.7,0,28.9-15.5,28.9-28.9c0-0.4,0-0.9,0-1.3c2-1.4,3.7-3.2,5.1-5.3c-1.8,0.8-3.8,1.4-5.8,1.6
				c2.1-1.3,3.7-3.2,4.5-5.6c-2,1.2-4.1,2-6.4,2.5c-1.9-2-4.5-3.2-7.4-3.2c-5.6,0-10.2,4.5-10.2,10.2c0,0.8,0.1,1.6,0.3,2.3
				c-8.4-0.4-15.9-4.5-20.9-10.6c-0.9,1.5-1.4,3.2-1.4,5.1c0,3.5,1.8,6.6,4.5,8.5c-1.7-0.1-3.2-0.5-4.6-1.3v0.1c0,4.9,3.5,9,8.1,10
				c-0.9,0.2-1.8,0.4-2.7,0.4c-0.7,0-1.3-0.1-1.9-0.2c1.3,4,5,7,9.5,7.1c-3.5,2.7-7.9,4.3-12.6,4.3c-0.8,0-1.6,0-2.4-0.1
				C24.6,63,29.9,64.8,35.7,64.8"/>
		</g>
	</g>
</g>
</svg>
