<?xml version="1.0" encoding="utf-8"?>
<!-- Generator: Adobe Illustrator 22.0.0, SVG Export Plug-In . SVG Version: 6.00 Build 0)  -->
<svg version="1.1" id="Layer_1" xmlns="http://www.w3.org/2000/svg" xmlns:xlink="http://www.w3.org/1999/xlink" x="0px" y="0px"
	 viewBox="0 0 371.3 222.5" style="enable-background:new 0 0 371.3 222.5;" xml:space="preserve">
<style type="text/css">
	.st0{fill:#FFFFFF;}
</style>
<g>
	<g>
		<g>
			<g>
				<path class="st0" d="M208.9,83.8c-0.8,0-1.6-0.1-2.4-0.3c-0.8-0.2-1.5-0.5-2.1-1c-0.6-0.4-1.1-1-1.5-1.7s-0.6-1.5-0.6-2.5V48.3
					c0-1,0.2-1.8,0.6-2.5c0.4-0.7,0.9-1.3,1.5-1.7c0.6-0.4,1.3-0.8,2.1-1s1.6-0.3,2.4-0.3h1.3c0.8,0,1.6,0.1,2.4,0.3
					c0.8,0.2,1.5,0.5,2.1,1c0.6,0.4,1.1,1,1.5,1.7s0.6,1.5,0.6,2.5v11.2h-4.5V48.6c0-1.2-0.3-2-0.7-2.5c-0.5-0.5-1.1-0.7-1.8-0.7
					h-0.5c-0.7,0-1.3,0.2-1.8,0.7s-0.7,1.3-0.7,2.5v29.2c0,1.2,0.2,2,0.7,2.5s1.1,0.7,1.8,0.7h0.5c0.7,0,1.3-0.2,1.8-0.7
					s0.7-1.3,0.7-2.5V67h4.5v11.4c0,1-0.2,1.8-0.6,2.5c-0.4,0.7-0.9,1.3-1.5,1.7s-1.3,0.7-2.1,1c-0.8,0.2-1.6,0.3-2.4,0.3h-1.3V83.8
					z"/>
				<path class="st0" d="M225.5,83.6c-1.7,0-3.1-0.4-4.3-1.3c-1.2-0.9-1.7-2.1-1.7-3.8V59.8c0-1.6,0.6-2.9,1.7-3.8
					c1.2-0.9,2.6-1.4,4.3-1.4h1.2c1.7,0,3.1,0.5,4.3,1.4s1.7,2.2,1.7,3.8v18.7c0,1.6-0.6,2.9-1.7,3.8c-1.2,0.9-2.6,1.3-4.3,1.3
					H225.5z M225.9,57.3c-0.6,0-1.1,0.2-1.5,0.6s-0.7,1.1-0.7,2v18.6c0,0.9,0.2,1.5,0.7,2c0.4,0.4,1,0.6,1.5,0.6h0.5
					c0.6,0,1.1-0.2,1.5-0.6c0.4-0.4,0.6-1.1,0.6-2V59.9c0-0.9-0.2-1.5-0.6-2c-0.4-0.4-0.9-0.6-1.5-0.6H225.9z"/>
				<path class="st0" d="M242.1,57.3c-0.6,0-1.1,0.3-1.7,0.8c-0.6,0.5-0.9,1.2-0.9,2v23.5h-4.2V55h4.2v1.6c0.6-0.5,1.3-1,2-1.3
					s1.4-0.5,2.2-0.5h0.2c1.8,0,3.1,0.6,3.9,1.7c0.6,0.9,0.9,2.1,0.9,3.5v6.8h-4.2V60c0-0.9-0.2-1.5-0.7-2c-0.4-0.4-1-0.6-1.5-0.6
					L242.1,57.3L242.1,57.3z"/>
				<path class="st0" d="M259.7,54.6c1.7,0,2.9,0.5,3.7,1.4s1.1,2.2,1.1,3.8v18.7c0,1.6-0.4,2.9-1.1,3.8c-0.7,0.9-1.9,1.3-3.6,1.3
					h-0.2c-0.7,0-1.5-0.2-2.2-0.5s-1.4-0.7-1.9-1.3V93h-4.2V54.8h3.4l0.5,1.8c0.6-0.6,1.3-1.1,2-1.4c0.7-0.4,1.5-0.5,2.2-0.5
					L259.7,54.6L259.7,54.6z M258.2,81.1c0.6,0,1.1-0.2,1.5-0.6c0.4-0.4,0.6-1.1,0.6-2V59.9c0-0.9-0.2-1.5-0.6-2
					c-0.4-0.4-0.9-0.6-1.5-0.6H258c-0.6,0-1.1,0.3-1.7,0.8c-0.5,0.5-0.8,1.2-0.8,2.1v18.3c0.1,0.8,0.3,1.4,0.8,1.9
					c0.5,0.5,1,0.7,1.6,0.7L258.2,81.1L258.2,81.1z"/>
				<path class="st0" d="M273,83.6c-1.7,0-3.1-0.4-4.3-1.3c-1.2-0.9-1.7-2.1-1.7-3.8V59.8c0-1.6,0.6-2.9,1.7-3.8
					c1.2-0.9,2.6-1.4,4.3-1.4h1.2c1.7,0,3.1,0.5,4.3,1.4s1.7,2.2,1.7,3.8v18.7c0,1.6-0.6,2.9-1.7,3.8c-1.2,0.9-2.6,1.3-4.3,1.3H273z
					 M273.4,57.3c-0.6,0-1.1,0.2-1.5,0.6s-0.7,1.1-0.7,2v18.6c0,0.9,0.2,1.5,0.7,2c0.4,0.4,1,0.6,1.5,0.6h0.5c0.6,0,1.1-0.2,1.5-0.6
					c0.4-0.4,0.6-1.1,0.6-2V59.9c0-0.9-0.2-1.5-0.6-2c-0.4-0.4-0.9-0.6-1.5-0.6H273.4z"/>
				<path class="st0" d="M289.5,57.3c-0.6,0-1.1,0.3-1.7,0.8c-0.6,0.5-0.9,1.2-0.9,2v23.5h-4.2V55h4.2v1.6c0.6-0.5,1.3-1,2-1.3
					s1.4-0.5,2.2-0.5h0.2c1.8,0,3.1,0.6,3.9,1.7c0.6,0.9,0.9,2.1,0.9,3.5v6.8h-4.2V60c0-0.9-0.2-1.5-0.7-2c-0.4-0.4-1-0.6-1.5-0.6
					L289.5,57.3L289.5,57.3z"/>
				<path class="st0" d="M303,83.6c-1.7,0-2.8-0.4-3.5-1.3c-0.6-0.9-0.9-2.1-0.9-3.8v-6c0-1.6,0.4-2.9,1.1-3.8
					c0.7-0.9,1.9-1.4,3.6-1.4h0.2c0.7,0,1.4,0.1,2,0.3c0.7,0.2,1.4,0.5,2,0.9v-8.9c0-0.9-0.2-1.5-0.7-2c-0.4-0.4-1-0.6-1.5-0.6h-0.5
					c-0.6,0-1.1,0.2-1.5,0.6s-0.6,1.1-0.6,2v6.8h-4.2v-6.8c0-1.7,0.6-2.9,1.7-3.8c1.2-0.9,2.6-1.3,4.3-1.3h1.2
					c1.7,0,3.1,0.5,4.3,1.4s1.7,2.2,1.7,3.8v23.7h-4.2v-1.2c-0.7,0.4-1.5,0.8-2.2,1s-1.4,0.3-2.1,0.3H303V83.6z M304.9,69.8
					c-0.6,0-1.1,0.2-1.5,0.6c-0.4,0.4-0.6,1.1-0.6,2v6.4c0,0.9,0.2,1.5,0.6,2c0.4,0.4,0.9,0.6,1.5,0.6h0.2c0.6,0,1.1-0.2,1.6-0.5
					c0.5-0.4,0.8-1,0.9-1.8v-7.8c-0.1-0.5-0.4-0.9-0.9-1.2c-0.5-0.2-0.9-0.3-1.3-0.3H304.9z"/>
				<path class="st0" d="M323.2,66.6v-6.8c0-0.9-0.2-1.5-0.6-2c-0.4-0.4-0.9-0.6-1.5-0.6h-0.5c-0.6,0-1.1,0.2-1.5,0.6
					s-0.7,1.1-0.7,2v18.6c0,0.9,0.2,1.5,0.6,2c0.4,0.4,0.9,0.6,1.4,0.6h0.6c0.6,0,1.1-0.2,1.5-0.6c0.4-0.4,0.6-1.1,0.6-2v-6.9h4.2
					v6.9c0,1.7-0.6,2.9-1.7,3.8c-1.2,0.9-2.6,1.3-4.3,1.3h-1.4c-1.5,0-2.9-0.4-4-1.3c-1.2-0.9-1.7-2.2-1.7-3.8V59.8
					c0-1.6,0.6-2.9,1.7-3.8c1.2-0.9,2.6-1.4,4.3-1.4h1.2c1.7,0,3.1,0.4,4.3,1.3s1.7,2.2,1.7,3.8v6.8h-4.2V66.6z"/>
				<path class="st0" d="M334.3,47.9v4.7h-4.2v-4.7H334.3z M334.3,54.9v28.6h-4.2V54.9H334.3z"/>
				<path class="st0" d="M343,83.6c-1.7,0-3.1-0.4-4.3-1.3c-1.2-0.9-1.7-2.1-1.7-3.8V59.8c0-1.6,0.6-2.9,1.7-3.8
					c1.2-0.9,2.6-1.4,4.3-1.4h1.2c1.7,0,3.1,0.5,4.3,1.4s1.7,2.2,1.7,3.8v18.7c0,1.6-0.6,2.9-1.7,3.8c-1.2,0.9-2.6,1.3-4.3,1.3H343z
					 M343.4,57.3c-0.6,0-1.1,0.2-1.5,0.6s-0.7,1.1-0.7,2v18.6c0,0.9,0.2,1.5,0.7,2c0.4,0.4,1,0.6,1.5,0.6h0.5c0.6,0,1.1-0.2,1.5-0.6
					c0.4-0.4,0.6-1.1,0.6-2V59.9c0-0.9-0.2-1.5-0.6-2c-0.4-0.4-0.9-0.6-1.5-0.6H343.4z"/>
				<path class="st0" d="M359.5,57.3c-0.6,0-1.1,0.3-1.7,0.8c-0.6,0.5-0.9,1.2-0.9,2v23.5h-4.2V55h4.2v1.6c0.6-0.5,1.3-1,2-1.3
					s1.4-0.5,2.2-0.5h0.2c1.7,0,2.9,0.5,3.6,1.4c0.7,0.9,1.1,2.2,1.1,3.8v23.7h-4.2V60.1c0-0.9-0.2-1.5-0.7-2
					c-0.4-0.4-1-0.6-1.5-0.6h-0.1V57.3z"/>
			</g>
		</g>
		<g>
			<g>
				<path class="st0" d="M208.9,134.3c-0.8,0-1.6-0.1-2.4-0.3c-0.8-0.2-1.5-0.5-2.1-0.9s-1.1-1-1.5-1.7s-0.6-1.5-0.6-2.4V99.3
					c0-0.9,0.2-1.8,0.6-2.4c0.4-0.7,0.9-1.2,1.5-1.7c0.6-0.4,1.3-0.8,2.1-1s1.6-0.3,2.4-0.3h1.3c0.8,0,1.6,0.1,2.4,0.3
					c0.8,0.2,1.5,0.5,2.1,1c0.6,0.4,1.1,1,1.5,1.7s0.6,1.5,0.6,2.4v11h-4.5V99.8c0-1.1-0.3-1.9-0.7-2.4c-0.5-0.5-1.1-0.7-1.8-0.7
					h-0.5c-0.7,0-1.3,0.2-1.8,0.7s-0.7,1.3-0.7,2.4v28.7c0,1.1,0.2,1.9,0.7,2.4s1.1,0.7,1.8,0.7h0.5c0.7,0,1.3-0.2,1.8-0.7
					s0.7-1.3,0.7-2.4v-10.6h4.5V129c0,0.9-0.2,1.8-0.6,2.4c-0.4,0.7-0.9,1.2-1.5,1.7c-0.6,0.4-1.3,0.7-2.1,0.9s-1.6,0.3-2.4,0.3
					H208.9z"/>
				<path class="st0" d="M226,131.6c0.6,0,1.2-0.3,1.7-0.8c0.6-0.5,0.9-1.3,0.9-2.1v-22.9h4.2v28.2h-4.2v-1.6
					c-0.7,0.5-1.4,1-2.1,1.3c-0.7,0.3-1.4,0.5-2.2,0.5h-0.2c-1.7,0-2.9-0.4-3.6-1.3c-0.7-0.9-1.1-2.1-1.1-3.7v-23.3h4.2v23.3
					c0,0.9,0.2,1.5,0.6,1.9c0.4,0.4,0.9,0.6,1.5,0.6L226,131.6L226,131.6z"/>
				<path class="st0" d="M235.7,94.1h4.2v39.8h-4.2V94.1z"/>
				<path class="st0" d="M247.9,96.6v9.2h3.3v2.6h-3.3v20.8c0,0.9,0.3,1.6,0.9,2c0.6,0.5,1.4,0.6,2.4,0.5v2.4
					c-2.7,0.2-4.6-0.1-5.7-1.1c-1.2-1-1.7-2.2-1.7-3.8v-20.8h-2v-2.6h2v-8.9L247.9,96.6z"/>
				<path class="st0" d="M259.8,131.6c0.6,0,1.2-0.3,1.7-0.8c0.6-0.5,0.9-1.3,0.9-2.1v-22.9h4.2v28.2h-4.2v-1.6
					c-0.7,0.5-1.4,1-2.1,1.3c-0.7,0.3-1.4,0.5-2.2,0.5h-0.2c-1.7,0-2.9-0.4-3.6-1.3c-0.7-0.9-1.1-2.1-1.1-3.7v-23.3h4.2v23.3
					c0,0.9,0.2,1.5,0.6,1.9c0.4,0.4,0.9,0.6,1.5,0.6L259.8,131.6L259.8,131.6z"/>
				<path class="st0" d="M276.1,108.1c-0.6,0-1.1,0.2-1.7,0.7c-0.6,0.5-0.9,1.1-0.9,1.9v23.1h-4.2v-28.2h4.2v1.6
					c0.6-0.5,1.3-1,2-1.3s1.4-0.5,2.2-0.5h0.2c1.8,0,3.1,0.6,3.9,1.7c0.6,0.9,0.9,2,0.9,3.4v6.7h-4.2v-6.7c0-0.9-0.2-1.5-0.7-1.9
					c-0.4-0.4-1-0.6-1.5-0.6h-0.2V108.1z"/>
				<path class="st0" d="M289.5,134.1c-1.7,0-2.8-0.4-3.5-1.3c-0.6-0.9-0.9-2.1-0.9-3.7v-5.9c0-1.6,0.4-2.8,1.1-3.7
					c0.7-0.9,1.9-1.3,3.6-1.3h0.2c0.7,0,1.4,0.1,2,0.3c0.7,0.2,1.4,0.5,2,0.9v-8.7c0-0.9-0.2-1.5-0.7-1.9c-0.4-0.4-1-0.6-1.5-0.6
					h-0.5c-0.6,0-1.1,0.2-1.5,0.6c-0.4,0.4-0.6,1.1-0.6,1.9v6.7H285v-6.7c0-1.6,0.6-2.9,1.7-3.8c1.2-0.9,2.6-1.3,4.3-1.3h1.2
					c1.7,0,3.1,0.4,4.3,1.3c1.2,0.9,1.7,2.1,1.7,3.7v23.3H294v-1.1c-0.7,0.4-1.5,0.7-2.2,1c-0.7,0.2-1.4,0.3-2.1,0.3H289.5z
					 M291.4,120.4c-0.6,0-1.1,0.2-1.5,0.6c-0.4,0.4-0.6,1.1-0.6,1.9v6.3c0,0.9,0.2,1.5,0.6,1.9c0.4,0.4,0.9,0.6,1.5,0.6h0.2
					c0.6,0,1.1-0.2,1.6-0.5c0.5-0.4,0.8-0.9,0.9-1.7v-7.7c-0.1-0.5-0.4-0.9-0.9-1.1c-0.5-0.2-0.9-0.3-1.3-0.3H291.4z"/>
				<path class="st0" d="M301,94.1h4.2v39.8H301V94.1z"/>
			</g>
		</g>
		<g>
			<g>
				<path class="st0" d="M206.8,139.6v37.9h6.7v2.5h-11.2v-40.4H206.8z"/>
				<path class="st0" d="M221.3,177.6h0.6c0.6,0,1.1-0.2,1.5-0.6c0.4-0.4,0.6-1.1,0.6-2v-6.9h4.2v6.9c0,1.7-0.6,2.9-1.7,3.8
					c-1.2,0.9-2.6,1.3-4.3,1.3h-1.4c-1.5,0-2.9-0.4-4-1.3c-1.2-0.9-1.7-2.2-1.7-3.8v-18.7c0-1.6,0.6-2.9,1.7-3.8
					c1.2-0.9,2.6-1.4,4.3-1.4h1.2c1.7,0,3.1,0.4,4.3,1.3c1.2,0.9,1.7,2.2,1.7,3.8v10h-9v8.7c0,0.9,0.2,1.5,0.6,2
					C220.3,177.3,220.7,177.6,221.3,177.6z M224,164.1v-7.8c0-0.9-0.2-1.5-0.6-2c-0.4-0.4-0.9-0.6-1.5-0.6h-0.5
					c-0.6,0-1.1,0.2-1.5,0.6c-0.4,0.4-0.7,1.1-0.7,2v7.8H224z"/>
				<path class="st0" d="M239.7,162.6v-6.2c0-0.8-0.2-1.5-0.7-1.9c-0.4-0.4-1-0.7-1.5-0.7h-0.4c-0.6,0-1.1,0.2-1.5,0.7
					c-0.4,0.4-0.7,1.1-0.7,1.9v3.2c0,0.8,0.2,1.6,0.7,2.3c0.4,0.7,1,1.3,1.7,1.8c0.7,0.6,1.4,1.1,2.2,1.7c0.8,0.6,1.5,1.1,2.2,1.7
					c0.7,0.6,1.2,1.3,1.7,2c0.4,0.7,0.7,1.6,0.7,2.5v3.5c0,1.6-0.6,2.9-1.8,3.8c-1.2,0.9-2.6,1.3-4.1,1.3H237
					c-1.7,0-3.1-0.4-4.3-1.3c-1.2-0.9-1.8-2.1-1.8-3.8v-6.4h3.8v6.3c0,0.8,0.2,1.5,0.7,1.9c0.4,0.4,1,0.7,1.7,0.7h0.6
					c0.6,0,1.2-0.2,1.6-0.7c0.4-0.4,0.7-1.1,0.7-1.9v-3.2c0-1.2-0.5-2.2-1.4-3.1c-0.9-0.8-2-1.7-3.1-2.5s-2.1-1.8-3.1-2.7
					c-0.9-1-1.4-2.2-1.4-3.6v-3.5c0-1.6,0.6-2.9,1.7-3.8c1.2-0.9,2.6-1.4,4.3-1.4h0.7c1.7,0,3.1,0.5,4.3,1.4s1.8,2.2,1.8,3.8v6.3
					h-4.1V162.6z"/>
				<path class="st0" d="M260.6,139.6v37.9h6.7v2.5h-11.2v-40.4H260.6z"/>
				<path class="st0" d="M275.3,177.6c0.6,0,1.2-0.3,1.7-0.8c0.6-0.6,0.9-1.3,0.9-2.2v-23.2h4.2V180h-4.2v-1.6
					c-0.7,0.5-1.4,1-2.1,1.3c-0.7,0.3-1.4,0.5-2.2,0.5h-0.2c-1.7,0-2.9-0.4-3.6-1.3c-0.7-0.9-1.1-2.1-1.1-3.8v-23.7h4.2V175
					c0,0.9,0.2,1.5,0.6,2c0.4,0.4,0.9,0.6,1.5,0.6L275.3,177.6L275.3,177.6z"/>
				<path class="st0" d="M291.6,153.8c-0.6,0-1.1,0.3-1.7,0.8c-0.6,0.5-0.9,1.2-0.9,2v23.5h-4.2v-28.6h4.2v1.6c0.6-0.5,1.3-1,2-1.3
					s1.4-0.5,2.2-0.5h0.2c2,0,3.4,0.8,4.2,2.3c0.7-0.7,1.4-1.2,2.2-1.6c0.8-0.4,1.6-0.6,2.5-0.6h0.2c1.7,0,2.9,0.5,3.6,1.4
					c0.7,0.9,1.1,2.2,1.1,3.8v23.6H303v-23.6c0-0.9-0.2-1.5-0.6-2c-0.4-0.4-0.9-0.6-1.5-0.6h-0.2c-0.6,0-1.1,0.3-1.7,0.8
					c-0.6,0.5-0.8,1.2-0.8,2.1v23.3H294v-23.6c0-0.9-0.2-1.5-0.7-2c-0.4-0.4-1-0.6-1.5-0.6h-0.2V153.8z"/>
				<path class="st0" d="M314.2,144.3v4.7H310v-4.7H314.2z M314.2,151.3v28.6H310v-28.6H314.2z"/>
				<path class="st0" d="M323.1,177.6h0.6c0.6,0,1.1-0.2,1.5-0.6c0.4-0.4,0.6-1.1,0.6-2v-6.9h4.2v6.9c0,1.7-0.6,2.9-1.7,3.8
					c-1.2,0.9-2.6,1.3-4.3,1.3h-1.4c-1.5,0-2.9-0.4-4-1.3c-1.2-0.9-1.7-2.2-1.7-3.8v-18.7c0-1.6,0.6-2.9,1.7-3.8
					c1.2-0.9,2.6-1.4,4.3-1.4h1.2c1.7,0,3.1,0.4,4.3,1.3c1.2,0.9,1.7,2.2,1.7,3.8v10h-9v8.7c0,0.9,0.2,1.5,0.6,2
					C322.1,177.3,322.5,177.6,323.1,177.6z M325.8,164.1v-7.8c0-0.9-0.2-1.5-0.6-2c-0.4-0.4-0.9-0.6-1.5-0.6h-0.5
					c-0.6,0-1.1,0.2-1.5,0.6c-0.4,0.4-0.7,1.1-0.7,2v7.8H325.8z"/>
				<path class="st0" d="M339.4,153.8c-0.6,0-1.1,0.3-1.7,0.8c-0.6,0.5-0.9,1.2-0.9,2v23.5h-4.2v-28.6h4.2v1.6c0.6-0.5,1.3-1,2-1.3
					s1.4-0.5,2.2-0.5h0.2c1.8,0,3.1,0.6,3.9,1.7c0.6,0.9,0.9,2.1,0.9,3.5v6.8h-4.2v-6.8c0-0.9-0.2-1.5-0.7-2c-0.4-0.4-1-0.6-1.5-0.6
					L339.4,153.8L339.4,153.8z"/>
				<path class="st0" d="M354.6,177.6h0.6c0.6,0,1.1-0.2,1.5-0.6c0.4-0.4,0.6-1.1,0.6-2v-6.9h4.2v6.9c0,1.7-0.6,2.9-1.7,3.8
					c-1.2,0.9-2.6,1.3-4.3,1.3h-1.4c-1.5,0-2.9-0.4-4-1.3c-1.2-0.9-1.7-2.2-1.7-3.8v-18.7c0-1.6,0.6-2.9,1.7-3.8
					c1.2-0.9,2.6-1.4,4.3-1.4h1.2c1.7,0,3.1,0.4,4.3,1.3c1.2,0.9,1.7,2.2,1.7,3.8v10h-9v8.7c0,0.9,0.2,1.5,0.6,2
					C353.6,177.3,354.1,177.6,354.6,177.6z M357.4,164.1v-7.8c0-0.9-0.2-1.5-0.6-2c-0.4-0.4-0.9-0.6-1.5-0.6h-0.5
					c-0.6,0-1.1,0.2-1.5,0.6c-0.4,0.4-0.7,1.1-0.7,2v7.8H357.4z"/>
			</g>
		</g>
	</g>
	<g>
		<path class="st0" d="M38.6,172.1c12.5,12.9,38.9,18,50.6,19.7c5.4,0.4,11.3,0.7,17.6,0.7h60.5c0-20.1-10.1-20.1-40.5-20.1
			C104.5,172.3,60.3,183.3,38.6,172.1z"/>
		<path class="st0" d="M5.9,111.8c-0.2,0-0.4,0-0.6,0.1v80.6h64.6c-10.8-2.8-21.8-6.8-30.6-13.9c-9.5-7.6-12.6-18.1-13.3-29.9
			c-0.7-10.1-0.8-21.4-6.8-30c-1.4-2-3.1-3.8-5.3-5.1c-1.5-0.9-3.1-1.5-4.8-1.8C8,111.6,6.9,111.6,5.9,111.8z"/>
		<path class="st0" d="M154,50.5c-12.5-12.9-38.9-18-50.6-19.7c-5.4-0.4-11.3-0.7-17.6-0.7H25.3c0,20.1,10.1,20.1,40.5,20.1
			C88.2,50.1,132.3,39.1,154,50.5z"/>
		<path class="st0" d="M186.7,110.8c0.2,0,0.4,0,0.6-0.1V30h-64.6c10.8,2.8,21.8,6.8,30.6,13.9c9.5,7.6,12.6,18.1,13.3,29.9
			c0.7,10.1,0.8,21.4,6.8,30c1.4,2,3.1,3.8,5.3,5.1c1.5,0.9,3.1,1.5,4.8,1.8C184.6,110.8,185.7,110.8,186.7,110.8z"/>
		<path class="st0" d="M107.6,71.3l-4.9,17.6c0.1-0.3-6.2-0.9-6.7-0.9c-2.4,0-4.8,0.4-7.1,1.2c-12.6,4.2-23.3,19.7-24.6,32.6
			c-1,10.4,2.9,21.4,11.6,32.6c-4.1-1.9-7.9-4.5-11.4-7.7c-20.1-18.4-20.7-49.6-1.6-68.6C74,67,89.1,62.6,103.5,64.7
			C106.5,65.3,108.4,68.3,107.6,71.3z"/>
		<path class="st0" d="M128.3,146.8c-12.2,11.1-28.9,14.7-44.1,10.7c-11.4-12.4-16.6-24.2-15.6-35.2c0.5-4.8,2.1-8.9,4.1-12.1
			c-0.4,6,1.6,12.2,5.7,17c9.1,10.5,25,10.9,34.7,1.2c6.2-6.2,8.2-14.8,6.2-22.7l17.6-4.7c3-0.8,6,1.2,6.4,4.3
			C145.4,120.3,140.3,135.8,128.3,146.8z"/>
		<circle class="st0" cx="131.3" cy="76.4" r="11.7"/>
	</g>
</g>
</svg>
