<?xml version="1.0" encoding="utf-8"?>
<!-- Generator: Adobe Illustrator 22.0.0, SVG Export Plug-In . SVG Version: 6.00 Build 0)  -->
<svg version="1.1" id="Layer_1" xmlns="http://www.w3.org/2000/svg" xmlns:xlink="http://www.w3.org/1999/xlink" x="0px" y="0px"
	 viewBox="0 0 351.8 222.5" style="enable-background:new 0 0 351.8 222.5;" xml:space="preserve">
<style type="text/css">
	.st0{fill:#FFFFFF;}
</style>
<g>
	<g>
		<g>
			<g>
				<path class="st0" d="M75.2,201.1L75.2,201.1c-13.5,0-25.5-12.1-31.2-18l-0.4-0.4c-3.8-3.9-6.5-11-4.3-16.9
					c2-5.3,3.6-11,4.6-16.8s5.3-10.6,12.3-13.8c0.6-0.3,1.2,0,1.5,0.5c0.3,0.6,0,1.2-0.5,1.5c-4.4,2-9.9,5.8-11,12.2
					c-1.1,5.9-2.7,11.7-4.7,17.2c-2,5.1,0.4,11.2,3.8,14.6l0.4,0.4c5.5,5.6,17,17.3,29.6,17.3l0,0c2.5,0,5-0.8,7.7-1.6
					c2.2-0.7,4.5-1.3,7.1-1.7c10.7-1.6,16.6-13.9,18.3-23.9c0.3-1.7,0.6-3.6,0.5-5.4c-0.1-2.8-1-5.1-2.1-7.7c-1-2.5-2.1-5.4-2.6-9.2
					c-0.8-6-5.7-9.7-9.7-11.7c-0.5-0.3-0.8-0.9-0.5-1.5c0.3-0.5,0.9-0.8,1.5-0.5c6.4,3.2,10.2,7.8,10.9,13.3
					c0.5,3.5,1.5,6.1,2.5,8.7c1.1,2.7,2,5.2,2.2,8.4c0.1,2.1-0.2,4.1-0.5,5.9c-1.9,10.7-8.3,23.9-20.2,25.7c-2.4,0.4-4.6,1-6.8,1.7
					C80.7,200.3,78,201.1,75.2,201.1z"/>
			</g>
			<path class="st0" d="M78.2,171.9c4.2,2.8,6.5,2.7,9.9-0.3c1.2-1.1,1.3-2.1,0.3-3.5c-0.6-0.8-0.7-2.1-1.1-3.5
				c4.2,1.2,6.1,6.1,3.4,8.6c-2,1.8-4.4,3.3-6.9,4.3c-1.2,0.5-3.4,0-4.3-1C78.5,175.4,78.6,173.4,78.2,171.9z"/>
			<path class="st0" d="M98.2,172.1c3.5,1,4.5-1.2,5.8-3.2c-0.6-0.3-1.1-0.5-2-1c0.9-0.5,1.9-1.3,2.2-1.1c1,0.6,2.3,1.6,2.4,2.5
				c0.1,2.3-0.6,4.8-3.1,5.7c-1.2,0.4-2.8,0.6-4,0.2C98.7,174.9,98.6,173.2,98.2,172.1z"/>
			<path class="st0" d="M87.8,187.8c5.8,0,7.7-0.5,5.7-6c1.8,0.5,2.7,1.8,2.5,3.8c-0.3,2.5-1.5,4.2-4,4.8
				C90.1,190.8,88.5,190.1,87.8,187.8z"/>
			<path class="st0" d="M70.1,192.3c5.1,2.7,7,3.3,7.9-2.5c1.3,1.4,1.5,2.9,0.3,4.6c-1.4,2-3.4,3-5.8,2.3
				C70.6,196.1,69.6,194.7,70.1,192.3z"/>
			<path class="st0" d="M94.3,155.2c5.7-0.9,7.6-1.6,4.8-6.8c1.9,0.3,2.9,1.4,3,3.4c0.1,2.5-0.9,4.4-3.3,5.3
				C97,157.9,95.4,157.4,94.3,155.2z"/>
			<path class="st0" d="M77.8,186.1c-0.4-2.3-0.6-4.1,1.9-4.8c0.4-0.1,1.5,0.8,1.5,1.3C81.4,184.8,80.2,185.9,77.8,186.1z"/>
			<path class="st0" d="M61.1,188.7c-1-2.1-1.6-3.9,0.6-5.1c0.3-0.2,1.6,0.4,1.8,0.9C64.2,186.4,63.3,187.9,61.1,188.7z"/>
			<path class="st0" d="M94.2,164.7c-0.3-1.9-0.5-3.4,1.5-3.9c0.3-0.1,1.2,0.7,1.2,1.1C97.2,163.7,96.2,164.6,94.2,164.7z"/>
			<path class="st0" d="M97.3,182.4c0.5-1,1-1.9,1.6-2.9c0.5,0.5,1.4,1.2,1.3,1.3c-0.4,0.9-1.1,1.6-1.7,2.4
				C98,182.9,97.7,182.7,97.3,182.4z"/>
			<path class="st0" d="M70.1,179.9c0.5-1,1-1.9,1.6-2.9c0.5,0.5,1.4,1.2,1.3,1.3c-0.4,0.9-1.1,1.6-1.7,2.4
				C70.9,180.4,70.5,180.1,70.1,179.9z"/>
			<path class="st0" d="M58.8,179.9c0.5-1,1-1.9,1.6-2.9c0.5,0.5,1.4,1.2,1.3,1.3c-0.4,0.9-1.1,1.6-1.7,2.4
				C59.5,180.4,59.2,180.1,58.8,179.9z"/>
		</g>
		<g>
			<g>
				<path class="st0" d="M125,118.6c-0.8-0.8-1.5-1.1-2.4-1.2c0.2-0.8,0.7-3.7,0.5-7c-0.2-2.7-0.8-5.6-2.5-7.9
					c-0.2-0.2-0.3-0.4-0.5-0.6c0,0,0,0-0.1-0.1c0,0,0,0-0.1-0.1c-2-2.1-5.1-3.6-8.1-4.8c-0.2-0.1-0.3-0.1-0.5-0.2l0,0
					c-2.8-1-5.3-1.6-6.5-1.9l3.8-16.4c0.3-0.9,0.4-1.8,0.2-2.7l-1.1-7.1v-0.2c-0.2-1.4-0.3-2.4-2.3-2.7l-15.7-2.2
					c-0.4-0.1-0.8,0.2-0.8,0.6l0,0c0,0.4,0.2,0.7,0.6,0.8l15.7,2.2c0.9,0.1,0.9,0.2,1,1.5l1.1,7.4c0.1,0.7,0,1.4-0.2,2.1L103,95.2
					v0.1l-1.5,5.2l-8.7,30.4c-0.2,0.5-0.6,0.8-1.1,0.8l0,0l-21.1-1.9l-2.6-0.2h-0.2l0,0l-13.4-1.2l-2.2-32.3V96l-0.5-7.5l-0.9-13.9
					c0-0.5,0-0.9,0.2-1.4l2.6-7.1c0.3-0.9,1.2-1.6,2.2-1.7l11.5-0.6c0.4,0,0.7-0.4,0.7-0.8c0,0,0,0,0-0.1c0-0.4-0.4-0.6-0.7-0.6
					l-1,0.1L55.8,63c-1.6,0.1-2.9,1.2-3.4,2.6l-2.6,7.1c-0.2,0.6-0.3,1.3-0.3,1.9l0.9,13.3c-1.8,0.2-3.7,0.5-5.6,0.7c0,0,0,0-0.1,0
					c-1,0.1-2,0.2-3,0.3c-1.9,0.2-4.1,0.3-6-0.1c-0.7-0.2-1.3-0.4-1.9-0.7c-1.4-0.8-2.4-2-3.1-3.3c-0.8-1.4-1.2-3-1.4-4.4
					c0.2,0,0.4,0.1,0.6,0.1c0.9,0.1,1.8-0.1,2.7-0.6c2.7-1.7,3.5-5.5,4-9.2c0.6-5-5-7.3-8.1-7.8c-0.2,0-0.4,0-0.6,0.2
					c-0.2,0.1-0.3,0.3-0.3,0.5l-0.1,4.2c0,0.2,0.1,0.5,0.3,0.6c1.2,0.7,1.8,1.5,1.8,2.4c0,0.9-0.6,1.7-1.1,2.2
					c-0.7-0.9-1.7-1.5-2.9-1.6c-1.3-0.1-2.6,0.4-3.5,1.4c-0.7-0.3-1.7-1-1.7-1.8c-0.1-0.8,0.7-1.8,2.2-2.8c0.1-0.1,0.3-0.2,0.3-0.4
					l1.2-4.4c0.1-0.2,0-0.5-0.2-0.7s-0.4-0.3-0.6-0.2c-0.4,0.1-9.8,1.4-9.2,7.7c0.3,3.2,1.6,7.7,4.4,9.6c0.6,0.4,1.2,0.6,1.7,0.7
					c0.6,0,1.2-0.1,1.8-0.3v0.1c0.3,2.8,0.9,5.2,1.6,7.3c0.1,0.4,0.3,0.7,0.4,1.1c1.1,2.6,2.7,4.6,4.6,6c1.4,1,3,1.6,4.6,2
					c1.3,0.3,2.6,0.5,3.9,0.6c0.4,0,0.9,0.1,1.3,0.1c2.1,0.2,4.4,0.1,6.9,0c0,0,0,0,0.1,0c0.3,0,0.6,0,0.9-0.1
					c0.9-0.1,1.9-0.2,2.8-0.3l0.7-0.1c0.1,0,0.3,0,0.5-0.1c0.2,0,0.4-0.1,0.6-0.1l2.2,32.3c0,0.4,0.3,0.6,0.7,0.7l13.4,1.2l-1,16.5
					c-0.1,1.2,0.8,2.2,2,2.3h0.4l-0.3,3.4c-0.1,1.5,1.1,2.8,2.7,3l3.2,0.4c0.1,0,0.2,0,0.2,0c1.5,0.1,2.9-0.8,3.2-2.2l0.6-3.3
					l0.5-2.6l0.7-3.8l0.5-2.6l0.6-3.2c0.1-0.7,0-1.4-0.5-2c-0.5-0.7-1.3-1.1-2.2-1.3l-4.9-0.7c-0.8-0.1-1.5,0.1-2.2,0.5l0.4-4.2
					l20.5,1.8l0,0c1.2,0.1,2.2-0.7,2.6-1.8l8.5-29.8c1.3,0.4,4.1,1.2,5.9,1.9c0.6,0.2,1.1,0.4,1.4,0.5c0.8,0.4,2.3,1.2,3.5,2.7
					c0.7,0.9,1.3,2,1.7,3.4c0.1,0.5,0.2,0.9,0.2,1.4c0.2,2.3-0.4,4.3-0.8,5.1c-0.8,0-1.5,0.1-2.2,0.6c-2.5,1.6-3.6,5-3.9,7.7
					c-0.1,1.3,0.2,2.5,1,3.5c1.9,2.2,5.6,2.5,5.8,2.5s0.4-0.1,0.5-0.2c0.1-0.1,0.2-0.3,0.2-0.5v-3.4c0-0.2-0.1-0.4-0.3-0.6
					c-0.7-0.5-1.5-1.4-1.4-2.1c0.1-0.6,0.6-1.1,1.1-1.4c0,0,0,0.1,0.1,0.1c0.6,0.8,1.4,1.3,2.3,1.5c0.1,0,0.2,0,0.3,0
					c0.8,0.1,1.7-0.2,2.3-0.7c0.1,0,0.1-0.1,0.2-0.1c0.4,0.6,0.8,1.4,0.6,2c-0.2,0.5-0.7,0.9-1.6,1.1c-0.2,0.1-0.4,0.3-0.5,0.5
					l-0.9,3.3c-0.1,0.2,0,0.4,0.1,0.6c0.1,0.2,0.3,0.3,0.5,0.3c0,0,0.1,0,0.2,0c0.9,0.1,4.3,0.2,6.3-1.5c1-0.8,1.5-1.9,1.6-3.2
					C127.6,123.3,126.8,120.3,125,118.6z M21.9,78.7c-1.2,0.3-1.6,0.4-2.4-0.1c-2.2-1.5-3.5-5.4-3.8-8.5c-0.3-3.8,4.7-5.4,6.9-5.9
					l-0.8,3.1c-1.9,1.3-2.8,2.7-2.6,4c0.2,1.5,1.5,2.4,2.4,2.8c-0.1,0.4-0.2,0.8-0.3,1.2c-0.1,1.3,0.4,2.5,1.3,3.4
					C22.4,78.6,22.1,78.6,21.9,78.7z M28.4,78.5c0.7-0.7,1.2-1.6,1.3-2.7c0-0.6,0-1.1-0.2-1.6c0.7-0.6,1.9-1.9,1.8-3.5
					c0-1.2-0.8-2.3-2.1-3.3l0.1-2.9c1.9,0.5,6.5,2.1,6,6c-0.4,3.3-1.1,6.8-3.3,8.2c-1,0.6-1.9,0.5-3.8,0.1
					C28.2,78.6,28.3,78.5,28.4,78.5z M25.2,79.3C25.1,79.3,25.1,79.3,25.2,79.3C25.1,79.3,25.1,79.3,25.2,79.3L25.2,79.3z
					 M24.8,85.9c-0.5-1.5-0.9-3.3-1.1-5.2l4.3-0.1c0.2,1.2,0.5,2.5,1.1,3.7C27.1,84.4,25.7,85.3,24.8,85.9z M37.5,95.8
					c-1-0.1-2.1-0.2-3.2-0.5c0-1,0.3-3.3,1.6-5c2.1,0.4,4.2,0.2,6,0.1c0.7-0.1,1.4-0.1,2.1-0.2c-0.5,2.6,0,4.6,0.5,5.7
					C42,96.1,39.7,95.9,37.5,95.8z M69.8,131.2l-1.2,12.2l-0.3,3.1l-0.2,1.8c-0.3-0.1-0.5-0.4-0.5-0.7l1-16.5l0,0L69.8,131.2
					L69.8,131.2z M77,149.8c-0.8-0.5-2-1.1-3.2-1.1c-0.9,0-1.8,0.2-2.6,0.4c-0.4,0.1-0.8,0.2-1.1,0.2l0.1-1.2c0.4,0,1-0.1,1.6-0.3
					c0.7-0.2,1.6-0.4,2.3-0.4c1,0,2.4,0.9,3.1,1.3L77,149.8z M72.1,141.4c0.9-0.2,1.8-0.3,2.7-0.3c1.3,0,2.9,0.9,3.5,1.3l-0.2,1.1
					c-0.9-0.5-2.5-1.3-3.9-1.3c-1,0-2.1,0.2-3,0.4c-0.2,0-0.5,0.1-0.7,0.1l0.1-1.1C71.1,141.6,71.6,141.4,72.1,141.4z M115.2,120.1
					c-0.1,0.4-0.1,0.9,0,1.3c-0.7,0.4-1.8,1.3-2,2.6c-0.1,1.1,0.4,2.2,1.7,3.2v2.2c-1.1-0.2-3-0.7-4-1.9c-0.6-0.7-0.8-1.4-0.7-2.4
					c0.3-2.9,1.6-5.5,3.3-6.7c0.6-0.4,1.1-0.5,1.9-0.4c0.2,0,0.5,0.1,0.8,0.1C115.7,118.7,115.3,119.3,115.2,120.1z M114.3,104.9
					c-1.3-1.3-2.6-2-3.4-2.3c-0.2-0.1-0.6-0.2-1-0.4c-0.2-1.9,1-3.3,1.6-3.9c2.4,0.9,4.9,2.1,6.6,3.6
					C117,102.4,115.3,103.3,114.3,104.9z M121.3,116.6c-1.1-0.3-3.1-0.7-4.7-0.4c0.3-1.1,0.6-2.6,0.5-4.4c0.8-0.8,2.2-0.9,3.3-0.8
					c0.4,0,0.9,0.1,1.2,0.2C121.8,113.4,121.5,115.4,121.3,116.6z M125.8,126.6c-0.1,0.9-0.4,1.6-1.1,2.2c-1.3,1.1-3.4,1.2-4.6,1.2
					l0.6-2c1.2-0.4,2-1.1,2.3-2c0.4-1.4-0.5-2.9-1-3.6c0.2-0.3,0.3-0.7,0.4-1.1c0.2-0.9,0-1.8-0.6-2.6c1.1,0.1,1.6,0.2,2.3,0.9
					C125.4,120.9,126.1,123.6,125.8,126.6z"/>
				<path class="st0" d="M111.9,96.9c-0.2-0.1-0.3-0.1-0.5-0.2C111.6,96.8,111.7,96.9,111.9,96.9z"/>
				<path class="st0" d="M101.1,82.3c-0.6-0.9-1.5-1.6-2.6-1.8c-8.9-1.7-16.6-2.6-22.8-3c-8.4-0.6-14.4-0.4-17.3-0.2
					c-1.6,0.1-2.8,1.4-2.7,3l1.9,44.7c0,0.4,0.3,0.7,0.7,0.7l32.2,2.5l0,0c0.3,0,0.7-0.2,0.7-0.5l10.6-42.2
					C101.9,84.4,101.7,83.2,101.1,82.3z M64.8,90.9c2.4-1.9,5.9-1.4,7.8,1.1c0.2,0.2,0.2,0.5,0.2,0.7c0,0.3-0.2,0.5-0.4,0.6
					l-2.9,2.2l2.2,2.9c0.2,0.2,0.2,0.5,0.2,0.7s-0.2,0.5-0.4,0.6c-1.1,0.8-2.4,1.2-3.7,1.1c-1.5-0.1-3-0.9-4.1-2.2
					C61.8,96.2,62.3,92.7,64.8,90.9z M84.3,115.7c-2.1,2.3-3.9,2.2-4.9,2.2c-0.1,0-0.2,0-0.3,0c-0.6,0-1.4,0-2.2-0.4
					s-1.1-1.1-1.4-1.7c-0.1-0.2-0.2-0.4-0.4-0.6c-0.7-1-2.3-0.2-4.5,1c-1.2,0.6-2.3,1.2-3.3,1.3c-0.2,0-0.4,0-0.6,0
					c-0.9-0.1-1.6-0.5-2.1-1.1c-0.9-1.2-0.8-3.1-0.3-4.4c0.7-1.7,2.4-2.7,4.1-2.4c0.5,0.1,0.9,0.6,0.8,1.1c-0.1,0.5-0.6,0.9-1.1,0.8
					c-1-0.2-1.7,0.5-2,1.3c-0.4,0.9-0.3,2,0.1,2.5c0.1,0.2,0.4,0.4,1.1,0.4c0.6-0.1,1.6-0.6,2.5-1.1c2.2-1.2,5.2-2.8,7-0.4
					c0.2,0.3,0.4,0.6,0.5,0.8c0.3,0.5,0.4,0.8,0.7,0.9c0.2,0.1,0.6,0.2,1.1,0.2c0.1,0,0.3,0,0.4,0c0.8,0,2,0,3.5-1.6
					c0.4-0.4,1-0.4,1.3,0C84.6,114.7,84.7,115.3,84.3,115.7z M86.7,113.4l-0.2,0.3c-0.2,0.2-0.5,0.4-0.8,0.3c-0.2,0-0.4-0.1-0.6-0.2
					c-0.4-0.3-0.4-0.9-0.1-1.3l0.2-0.3c0.3-0.4,0.9-0.4,1.3-0.1C87,112.4,87,112.9,86.7,113.4z M91.3,95.2c0,0.3-0.2,0.5-0.4,0.6
					L88,98l2.2,2.9c0.3,0.4,0.2,1-0.2,1.3c-1.1,0.8-2.4,1.2-3.7,1.1c-1.5-0.1-3-0.9-4.1-2.2c-0.9-1.2-1.3-2.6-1.1-4.1s1-2.8,2.1-3.7
					c2.4-1.9,5.9-1.4,7.8,1.1C91.3,94.7,91.3,94.9,91.3,95.2z"/>
				<path class="st0" d="M87,69.7c-0.1-0.4-0.4-0.7-0.6-1l-0.1-0.1c-0.8-0.9-1.3-2.4-1.6-3.4c-0.2-0.6-0.3-1.1-0.5-1.7
					c-0.2-0.8-0.4-1.5-0.5-2.3c-0.5-2.4-1-5.3-0.5-7.9c0.2-0.8,1-1.6,1.6-2.1c1.2-1,1.9-2.4,2-4s-0.4-3.2-1.4-4.3
					c-0.9-1-2.1-1.6-3.5-1.6c-2.6,0-4.9,2.2-5.1,5c-0.1,1.5,0.3,3.1,1.2,4.2c0.5,0.7,1.4,1.9,1.4,2.3c0.1,0.5,0.1,1.1,0.1,1.7
					c0,0.4-0.1,0.8-0.2,1.2l0,0c-0.3,1.5-0.8,3-1.6,5c-0.3,0.8-0.7,1.5-1,2.2c-0.5,0.9-1,1.8-1.5,2.7c-0.3,0.6-0.7,1.2-1.2,1.6
					c-0.1,0-0.1,0.1-0.2,0.1c-0.5,0.4-1.1,0.9-1.1,1.8c0,0.4,0.1,0.7,0.3,1.1c0.7,1.1,2,1.7,2.9,2.1c1.1,0.4,2.3,0.7,3.7,0.8
					c0,0,0,0,0.1,0c0.5,0,1,0,1.5,0c2-0.1,4-0.4,5.3-1.9c0.1-0.2,0.5-0.6,0.5-1.2C87.1,70,87.1,69.8,87,69.7z M82.4,49L82.4,49
					c-1.3-0.1-2.2-1.2-2.1-2.4c0.1-1.2,1.2-2.2,2.4-2.1l0,0c0.6,0,1.2,0.3,1.6,0.8c0.4,0.5,0.6,1,0.5,1.6c0,0.6-0.3,1.2-0.8,1.6
					S83,49.1,82.4,49z"/>
				<path class="st0" d="M70.8,129.8l-2.6-0.2l2.4,0.2C70.7,129.8,70.8,129.8,70.8,129.8z"/>
				<polygon class="st0" points="69.8,131.2 69.8,131.2 68.7,131.1 68.7,131.1 				"/>
				<path class="st0" d="M25.2,79.3C25.1,79.3,25.1,79.3,25.2,79.3C25.1,79.3,25.1,79.3,25.2,79.3L25.2,79.3z"/>
			</g>
			<g>
				<path class="st0" d="M70.8,57.5c-0.3,0-0.5-0.1-0.7-0.3c-3-3-4.6-7.1-4.6-11.3c0-8.9,7.3-16.1,16.1-16.1c0,0,0,0,0.1,0
					c4.3,0,8.4,1.7,11.4,4.8s4.7,7.1,4.7,11.4c0,4.2-1.6,8.2-4.6,11.2c-0.4,0.4-1,0.4-1.5,0c-0.4-0.4-0.4-1,0-1.5
					c2.6-2.6,4-6.1,4-9.8c0-3.8-1.4-7.3-4.1-10c-2.7-2.7-6.2-4.2-9.9-4.2c0,0,0,0-0.1,0c-3.7,0-7.3,1.5-9.9,4.1
					c-2.7,2.7-4.2,6.2-4.2,9.9c0,3.7,1.4,7.2,4,9.9c0.4,0.4,0.4,1.1,0,1.5C71.3,57.4,71,57.5,70.8,57.5z"/>
			</g>
			<g>
				<path class="st0" d="M102.4,55c-0.1,0-0.3,0-0.4-0.1c-0.5-0.2-0.8-0.8-0.5-1.3c1.1-2.6,1.7-5.4,1.7-8.3c0-5.8-2.2-11.2-6.3-15.3
					c-4.1-4.1-9.5-6.4-15.2-6.4h-0.1c-5.7,0-11.1,2.2-15.2,6.3C62.3,34,60,39.4,60,45c0,2.9,0.6,5.8,1.7,8.5c0.2,0.5,0,1.1-0.5,1.3
					c-0.5,0.2-1.1,0-1.3-0.5C58.7,51.5,58,48.3,58,45c0-6.3,2.5-12.2,7-16.7c4.5-4.4,10.4-6.9,16.6-6.9h0.1c6.3,0,12.2,2.5,16.7,7
					s6.9,10.4,6.9,16.7c0,3.2-0.6,6.2-1.9,9.1C103.2,54.8,102.8,55,102.4,55z"/>
			</g>
		</g>
	</g>
	<g>
		<path class="st0" d="M144.9,182.6c-1.9-1.7-2.8-3.7-2.8-6.1v-25.9c0-2.4,0.9-4.4,2.8-6.1c1.8-1.7,4.1-2.5,6.7-2.5
			c2.6,0,4.8,0.8,6.7,2.5s2.8,3.7,2.8,6.1h-8.3c0-2.4-0.1-4.4-0.4-6.1c-0.1-0.6-0.2-1.1-0.3-1.4c-0.2,0-0.4,0-0.6,0s-0.4,0-0.6,0
			c-0.1,0.4-0.2,0.9-0.3,1.4c-0.2,1.7-0.4,3.7-0.4,6.1v25.8c0,2.4,0.1,4.4,0.4,6.1c0.1,0.6,0.2,1,0.3,1.4c0.2,0,0.4,0,0.6,0
			s0.4,0,0.6,0c0.1-0.4,0.2-0.8,0.3-1.4c0.2-1.7,0.4-3.7,0.4-6.1h8.3c0,2.4-0.9,4.4-2.8,6.1c-1.9,1.7-4.1,2.5-6.7,2.5
			C148.9,185.1,146.7,184.2,144.9,182.6z"/>
		<path class="st0" d="M163.7,147.2c-0.9-0.8-1.4-1.9-1.4-3.1c0-1.2,0.5-2.2,1.4-3.1c0.9-0.8,2-1.3,3.4-1.3c1.3,0,2.4,0.4,3.4,1.3
			c0.9,0.9,1.4,1.9,1.4,3.1c0,1.2-0.5,2.2-1.4,3.1c-0.9,0.8-2.1,1.3-3.4,1.3C165.7,148.4,164.6,148.1,163.7,147.2z M162.9,185.1
			v-34.5h8.3v34.4h-8.3V185.1z"/>
		<path class="st0" d="M173.1,185.1v-43.1h8.3v8.7c0.4-0.1,0.8-0.1,1.2-0.1c2.6,0,4.8,0.8,6.7,2.5s2.8,3.7,2.8,6.1v17.2
			c0,2.4-0.9,4.4-2.8,6.1c-1.9,1.7-4.1,2.5-6.7,2.5c-1.3,0-2.4-0.8-3.4-2.5c-0.4-0.8-0.7-1.6-1-2.5l-2.8,5h-2.3V185.1z M183.1,183.9
			c0.1-0.4,0.2-0.8,0.3-1.4c0.2-1.7,0.4-3.7,0.4-6.1v-17.2c0-2.4-0.1-4.4-0.4-6.1c-0.1-0.6-0.2-1.1-0.3-1.4c-0.2,0-0.4,0-0.6,0
			s-0.4,0-0.6,0c-0.1,0.4-0.2,0.9-0.3,1.4c-0.2,1.7-0.4,3.7-0.4,6.1v17.2c0,2.4,0.1,4.4,0.4,6.1c0.1,0.5,0.1,1,0.2,1.4
			c0.2,0.1,0.4,0.1,0.6,0.1S182.9,183.9,183.1,183.9z"/>
		<path class="st0" d="M196.7,182.6c-1.9-1.7-2.8-3.7-2.8-6.1v-17.2c0-2.4,0.9-4.4,2.8-6.1c1.8-1.7,4.1-2.5,6.7-2.5
			c2.6,0,4.8,0.8,6.7,2.5s2.8,3.7,2.8,6.1v8.6h-10.6v8.6c0,2.4,0.1,4.4,0.4,6.1c0.1,0.6,0.2,1,0.3,1.4c0.2,0,0.4,0,0.6,0
			c0.2,0,0.4,0,0.6,0c0.1-0.4,0.2-0.8,0.3-1.4c0.2-1.7,0.4-3.7,0.4-6.1h8.3c0,2.4-0.9,4.4-2.8,6.1c-1.9,1.7-4.1,2.5-6.7,2.5
			C200.8,185.1,198.5,184.2,196.7,182.6z M204.6,166.8v-7.5c0-2.4-0.1-4.4-0.4-6.1c-0.1-0.6-0.2-1.1-0.3-1.4c-0.2,0-0.4,0-0.6,0
			c-0.2,0-0.4,0-0.6,0c-0.1,0.4-0.2,0.9-0.3,1.4c-0.2,1.7-0.4,3.7-0.4,6.1v7.5H204.6z"/>
		<path class="st0" d="M214.8,185.1v-34.5h2.3l2.8,5c0.2-0.9,0.6-1.7,1-2.5c0.9-1.7,2-2.5,3.4-2.5c2.6,0,4.8,0.8,6.7,2.5
			s2.8,3.7,2.8,6.1h-8.3c0-2.4-0.1-4.4-0.4-6.1c-0.1-0.6-0.2-1.1-0.3-1.4c-0.2,0-0.4,0-0.6,0s-0.4,0-0.6,0.1
			c-0.1,0.4-0.2,0.8-0.2,1.4c-0.2,1.7-0.4,3.7-0.4,6.1v25.8L214.8,185.1L214.8,185.1z"/>
		<path class="st0" d="M235.6,185.1v-34.5h2.3l2.8,5c0.2-0.9,0.6-1.7,1-2.5c0.9-1.7,2-2.5,3.4-2.5c2.6,0,4.8,0.8,6.7,2.5
			c0.2,0.1,0.3,0.3,0.4,0.4c0.1-0.1,0.1-0.3,0.2-0.4c0.9-1.7,2-2.5,3.3-2.5c2.6,0,4.9,0.8,6.7,2.5c1.9,1.7,2.8,3.7,2.8,6.1V185h-8.3
			v-25.8c0-2.4-0.1-4.4-0.3-6.1c-0.1-0.6-0.2-1.1-0.3-1.4c-0.2,0-0.4,0-0.6,0s-0.4,0-0.6,0.1c-0.1,0.4-0.2,0.8-0.3,1.4
			c-0.2,1.7-0.4,3.7-0.4,6.1v25.8h-8.3v-25.8c0-2.4-0.1-4.4-0.4-6.1c-0.1-0.6-0.2-1.1-0.3-1.4c-0.2,0-0.4,0-0.6,0s-0.4,0-0.6,0.1
			c-0.1,0.4-0.2,0.8-0.2,1.4c-0.2,1.7-0.4,3.7-0.4,6.1v25.8h-8V185.1z"/>
		<path class="st0" d="M269.9,182.6c-1.9-1.7-2.8-3.7-2.8-6.1v-17.2c0-2.4,0.9-4.4,2.8-6.1c1.8-1.7,4.1-2.5,6.7-2.5
			c2.6,0,4.8,0.8,6.7,2.5s2.8,3.7,2.8,6.1v8.6h-10.6v8.6c0,2.4,0.1,4.4,0.4,6.1c0.1,0.6,0.2,1,0.3,1.4c0.2,0,0.4,0,0.6,0
			s0.4,0,0.6,0c0.1-0.4,0.2-0.8,0.3-1.4c0.2-1.7,0.4-3.7,0.4-6.1h8.3c0,2.4-0.9,4.4-2.8,6.1c-1.9,1.7-4.1,2.5-6.7,2.5
			C274,185.1,271.7,184.2,269.9,182.6z M277.8,166.8v-7.5c0-2.4-0.1-4.4-0.4-6.1c-0.1-0.6-0.2-1.1-0.3-1.4c-0.2,0-0.4,0-0.6,0
			s-0.4,0-0.6,0c-0.1,0.4-0.2,0.9-0.3,1.4c-0.2,1.7-0.4,3.7-0.4,6.1v7.5H277.8z"/>
		<path class="st0" d="M290.7,182.6c-1.9-1.7-2.8-3.7-2.8-6.1v-17.2c0-2.4,0.9-4.4,2.8-6.1c1.8-1.7,4.1-2.5,6.7-2.5
			c0.4,0,0.8,0,1.2,0.1v-8.7h8.3v43.1h-2.3l-2.8-5c-0.2,0.9-0.6,1.8-1,2.5c-0.9,1.7-2,2.5-3.4,2.5
			C294.8,185.1,292.6,184.2,290.7,182.6z M298,183.9c0.1-0.4,0.2-0.8,0.2-1.4c0.2-1.7,0.4-3.7,0.4-6.1v-17.2c0-2.4-0.1-4.4-0.4-6.1
			c-0.1-0.6-0.2-1.1-0.3-1.4c-0.2,0-0.4,0-0.6,0c-0.2,0-0.4,0-0.6,0c-0.1,0.4-0.2,0.9-0.3,1.4c-0.2,1.7-0.4,3.7-0.4,6.1v17.2
			c0,2.4,0.1,4.4,0.4,6.1c0.1,0.6,0.2,1,0.3,1.4c0.2,0,0.4,0,0.6,0C297.6,183.9,297.8,183.9,298,183.9z"/>
		<path class="st0" d="M309.6,147.2c-0.9-0.8-1.4-1.9-1.4-3.1c0-1.2,0.5-2.2,1.4-3.1c0.9-0.8,2-1.3,3.4-1.3c1.3,0,2.4,0.4,3.4,1.3
			c0.9,0.9,1.4,1.9,1.4,3.1c0,1.2-0.5,2.2-1.4,3.1c-0.9,0.8-2.1,1.3-3.4,1.3C311.6,148.4,310.5,148.1,309.6,147.2z M308.8,185.1
			v-34.5h8.3v34.4h-8.3V185.1z"/>
		<path class="st0" d="M321.7,182.6c-1.9-1.7-2.8-3.7-2.8-6.1c0-2.4,0.9-4.4,2.8-6.1c1.8-1.7,4.1-2.5,6.7-2.5h1.2v-8.6
			c0-2.4-0.1-4.4-0.4-6.1c-0.1-0.6-0.2-1.1-0.3-1.4c-0.2,0-0.4,0-0.6,0s-0.4,0-0.6,0c-0.1,0.4-0.2,0.9-0.3,1.4
			c-0.2,1.7-0.4,3.7-0.4,6.1h-8.3c0-2.4,0.9-4.4,2.8-6.1c1.8-1.7,4.1-2.5,6.7-2.5c2.6,0,4.8,0.8,6.7,2.5s2.8,3.7,2.8,6.1V185h-2.3
			l-2.8-5c-0.2,0.9-0.6,1.8-1,2.5c-0.9,1.7-2,2.5-3.4,2.5C325.8,185.1,323.6,184.2,321.7,182.6z M329,183.9c0.1-0.4,0.2-0.8,0.2-1.4
			c0.2-1.7,0.4-3.7,0.4-6.1v-7.5h-1.2c-0.2,0-0.4,0-0.6,0c-0.1,0.4-0.2,0.9-0.3,1.4c-0.2,1.7-0.4,3.7-0.4,6.1c0,2.4,0.1,4.4,0.4,6.1
			c0.1,0.6,0.2,1,0.3,1.4c0.2,0,0.4,0,0.6,0S328.8,183.9,329,183.9z"/>
	</g>
	<g>
		<path class="st0" d="M144.9,79.2c-1.8-1.6-2.7-3.6-2.7-5.9V48.1c0-2.3,0.9-4.3,2.7-5.9s4-2.5,6.5-2.5s4.7,0.8,6.5,2.5
			c1.8,1.6,2.7,3.6,2.7,5.9h-8.1c0-2.3-0.1-4.3-0.3-5.9c-0.1-0.6-0.2-1-0.2-1.4c-0.2,0-0.4,0-0.6,0c-0.2,0-0.4,0-0.6,0
			c-0.1,0.4-0.2,0.8-0.2,1.4c-0.2,1.6-0.3,3.6-0.3,5.9v25.2c0,2.3,0.1,4.3,0.3,5.9c0.1,0.6,0.1,1,0.2,1.4c0.2,0,0.4,0,0.6,0
			c0.2,0,0.4,0,0.6,0c0.1-0.4,0.2-0.8,0.2-1.4c0.2-1.6,0.3-3.6,0.3-5.9h8.1c0,2.3-0.9,4.3-2.7,5.9c-1.8,1.6-4,2.4-6.5,2.4
			C148.8,81.7,146.7,80.9,144.9,79.2z"/>
		<path class="st0" d="M165.2,79.2c-1.8-1.6-2.7-3.6-2.7-5.9V56.5c0-2.3,0.9-4.3,2.7-5.9s4-2.5,6.5-2.5s4.7,0.8,6.5,2.5
			c1.8,1.6,2.7,3.6,2.7,5.9v16.8c0,2.3-0.9,4.3-2.7,5.9c-1.8,1.6-4,2.4-6.5,2.4C169.2,81.7,167,80.9,165.2,79.2z M172.3,80.6
			c0.1-0.4,0.2-0.8,0.2-1.4c0.2-1.6,0.3-3.6,0.3-5.9V56.5c0-2.3-0.1-4.3-0.3-5.9c-0.1-0.6-0.2-1-0.2-1.4c-0.2,0-0.4,0-0.6,0
			s-0.4,0-0.6,0c-0.1,0.4-0.2,0.8-0.2,1.4c-0.2,1.6-0.3,3.6-0.3,5.9v16.8c0,2.3,0.1,4.3,0.3,5.9c0.1,0.6,0.1,1,0.2,1.4
			c0.2,0,0.4,0,0.6,0S172.1,80.6,172.3,80.6z"/>
		<path class="st0" d="M185.5,79.2c-1.8-1.6-2.7-3.6-2.7-5.9V39.7h8.1v33.6c0,2.3,0.1,4.3,0.3,5.9c0.1,0.6,0.1,1,0.2,1.4
			c0.2,0,0.4,0,0.6,0v1C189.5,81.7,187.3,80.9,185.5,79.2z"/>
		<path class="st0" d="M196.6,79.2c-1.8-1.6-2.7-3.6-2.7-5.9V56.5c0-2.3,0.9-4.3,2.7-5.9s4-2.5,6.5-2.5s4.7,0.8,6.5,2.5
			c1.8,1.6,2.7,3.6,2.7,5.9v8.4h-10.4v8.4c0,2.3,0.1,4.3,0.3,5.9c0.1,0.6,0.1,1,0.2,1.4c0.2,0,0.4,0,0.6,0c0.2,0,0.4,0,0.6,0
			c0.1-0.4,0.2-0.8,0.2-1.4c0.2-1.6,0.3-3.6,0.3-5.9h8.1c0,2.3-0.9,4.3-2.7,5.9c-1.8,1.6-4,2.4-6.5,2.4
			C200.5,81.7,198.3,80.9,196.6,79.2z M204.2,63.8v-7.4c0-2.3-0.1-4.3-0.3-5.9c-0.1-0.6-0.2-1-0.2-1.4c-0.2,0-0.4,0-0.6,0
			c-0.2,0-0.4,0-0.6,0c-0.1,0.4-0.2,0.8-0.2,1.4c-0.2,1.6-0.3,3.6-0.3,5.9v7.4H204.2z"/>
		<path class="st0" d="M216.9,79.2c-1.8-1.6-2.7-3.6-2.7-5.9V56.5c0-2.3,0.9-4.3,2.7-5.9s4-2.5,6.5-2.5s4.7,0.8,6.5,2.5
			c1.8,1.6,2.7,3.6,2.7,5.9h-8.1c0-2.3-0.1-4.3-0.3-5.9c-0.1-0.6-0.2-1-0.2-1.4c-0.2,0-0.4,0-0.6,0c-0.2,0-0.4,0-0.6,0
			c-0.1,0.4-0.2,0.8-0.2,1.4c-0.2,1.6-0.3,3.6-0.3,5.9v16.8c0,2.3,0.1,4.3,0.3,5.9c0.1,0.6,0.1,1,0.2,1.4c0.2,0,0.4,0,0.6,0
			c0.2,0,0.4,0,0.6,0c0.1-0.4,0.2-0.8,0.2-1.4c0.2-1.6,0.3-3.6,0.3-5.9h8.1c0,2.3-0.9,4.3-2.7,5.9c-1.8,1.6-4,2.4-6.5,2.4
			C220.8,81.7,218.7,80.9,216.9,79.2z"/>
		<path class="st0" d="M240.6,79.2c-1.8-1.6-2.7-3.6-2.7-5.9V49.2h-3.4v-1.1h2.3c0.2,0,0.4,0,0.6,0c0.1-0.4,0.2-0.8,0.3-1.4
			c0.2-1.6,0.3-3.6,0.3-5.9h8.1c0,2.3-0.9,4.3-2.7,5.9c-0.6,0.6-1.3,1-2,1.4h9.3v1.1h-4.6v24.1c0,2.3,0.1,4.3,0.3,5.9
			c0.1,0.6,0.1,1,0.2,1.4c0.2,0,0.4,0,0.6,0v1C244.6,81.7,242.4,80.9,240.6,79.2z"/>
		<path class="st0" d="M253.2,44.8c-0.9-0.8-1.3-1.8-1.3-3c0-1.1,0.4-2.1,1.3-3c0.9-0.8,2-1.2,3.3-1.2c1.3,0,2.4,0.4,3.3,1.2
			c0.9,0.8,1.4,1.8,1.4,3s-0.5,2.2-1.4,3s-2,1.2-3.3,1.2C255.2,46,254.1,45.6,253.2,44.8z M252.5,81.7V48.1h8.1v33.6H252.5z"/>
		<path class="st0" d="M267,81.7l-4.6-33.6h8.1l4,29.4l4.1-29.4h1.2l-4.6,33.6H267z"/>
		<path class="st0" d="M284.2,79.2c-1.8-1.6-2.7-3.6-2.7-5.9V56.5c0-2.3,0.9-4.3,2.7-5.9s4-2.5,6.5-2.5s4.7,0.8,6.5,2.5
			c1.8,1.6,2.7,3.6,2.7,5.9v16.8c0,2.3-0.9,4.3-2.7,5.9c-1.8,1.6-4,2.4-6.5,2.4C288.2,81.7,286,80.9,284.2,79.2z M291.3,80.6
			c0.1-0.4,0.2-0.8,0.2-1.4c0.2-1.6,0.3-3.6,0.3-5.9V56.5c0-2.3-0.1-4.3-0.3-5.9c-0.1-0.6-0.2-1-0.2-1.4c-0.2,0-0.4,0-0.6,0
			c-0.2,0-0.4,0-0.6,0c-0.1,0.4-0.2,0.8-0.2,1.4c-0.2,1.6-0.3,3.6-0.3,5.9v16.8c0,2.3,0.1,4.3,0.3,5.9c0.1,0.6,0.1,1,0.2,1.4
			c0.2,0,0.4,0,0.6,0S291.1,80.6,291.3,80.6z"/>
	</g>
	<g>
		<path class="st0" d="M144.8,129.8c-1.8-1.6-2.7-3.6-2.7-6V98.4c0-2.3,0.9-4.3,2.7-6c1.8-1.6,4-2.5,6.5-2.5c2.6,0,4.7,0.8,6.5,2.5
			c1.8,1.6,2.7,3.6,2.7,6h-8.1c0-2.3-0.1-4.3-0.3-6c-0.1-0.6-0.2-1-0.2-1.4c-0.2,0-0.4,0-0.6,0s-0.4,0-0.6,0
			c-0.1,0.4-0.2,0.8-0.2,1.4c-0.2,1.6-0.3,3.6-0.3,6v25.3c0,2.3,0.1,4.3,0.3,6c0.1,0.6,0.1,1,0.2,1.4c0.2,0,0.4,0,0.6,0s0.4,0,0.6,0
			c0.1-0.4,0.2-0.8,0.2-1.4c0.2-1.6,0.3-3.6,0.3-6h8.1c0,2.3-0.9,4.3-2.7,6c-1.8,1.6-4,2.4-6.5,2.4
			C148.8,132.2,146.6,131.4,144.8,129.8z"/>
		<path class="st0" d="M165.2,129.8c-1.8-1.6-2.7-3.6-2.7-6V98.4h8.1v25.3c0,2.3,0.1,4.3,0.3,6c0.1,0.6,0.1,1,0.2,1.4
			c0.2,0,0.4,0,0.6,0s0.4,0,0.6-0.1c0.1-0.4,0.2-0.8,0.2-1.3c0.2-1.6,0.3-3.6,0.3-6V98.4h8.1v33.7h-2.3l-2.7-4.9
			c-0.2,0.9-0.6,1.7-1,2.5c-0.9,1.6-2,2.4-3.3,2.4C169.2,132.2,167,131.4,165.2,129.8z"/>
		<path class="st0" d="M185.6,129.8c-1.8-1.6-2.7-3.6-2.7-6V90.1h8.1v33.7c0,2.3,0.1,4.3,0.3,6c0.1,0.6,0.1,1,0.2,1.4
			c0.2,0,0.4,0,0.6,0v1C189.6,132.2,187.4,131.4,185.6,129.8z"/>
		<path class="st0" d="M200.2,129.8c-1.8-1.6-2.7-3.6-2.7-6V99.6H194v-1.1h2.3c0.2,0,0.4,0,0.6,0c0.1-0.4,0.2-0.8,0.3-1.4
			c0.2-1.6,0.3-3.6,0.3-6h8.1c0,2.3-0.9,4.3-2.7,6c-0.6,0.6-1.3,1-2,1.4h9.4v1.1h-4.6v24.2c0,2.3,0.1,4.3,0.3,6
			c0.1,0.6,0.1,1,0.2,1.4c0.2,0,0.4,0,0.6,0v1C204.2,132.2,202,131.4,200.2,129.8z"/>
		<path class="st0" d="M214.8,129.8c-1.8-1.6-2.7-3.6-2.7-6V98.4h8.1v25.3c0,2.3,0.1,4.3,0.3,6c0.1,0.6,0.1,1,0.2,1.4
			c0.2,0,0.4,0,0.6,0c0.2,0,0.4,0,0.6-0.1c0.1-0.4,0.2-0.8,0.2-1.3c0.2-1.6,0.3-3.6,0.3-6V98.4h8.1v33.7h-2.3l-2.7-4.9
			c-0.2,0.9-0.6,1.7-1,2.5c-0.9,1.6-2,2.4-3.3,2.4C218.8,132.2,216.6,131.4,214.8,129.8z"/>
		<path class="st0" d="M232.5,132.2V98.5h2.3l2.7,4.9c0.2-0.9,0.6-1.7,1-2.5c0.9-1.6,2-2.5,3.3-2.5c2.6,0,4.7,0.8,6.5,2.5
			c1.8,1.6,2.7,3.6,2.7,6h-8.1c0-2.3-0.1-4.3-0.3-6c-0.1-0.6-0.2-1-0.2-1.4c-0.2,0-0.4,0-0.6,0s-0.4,0-0.6,0.1
			c-0.1,0.4-0.2,0.8-0.2,1.3c-0.2,1.6-0.3,3.6-0.3,6v25.3L232.5,132.2L232.5,132.2z"/>
		<path class="st0" d="M255.6,129.8c-1.8-1.6-2.7-3.6-2.7-6c0-2.3,0.9-4.3,2.7-6c1.8-1.6,4-2.5,6.5-2.5h1.2v-8.4
			c0-2.3-0.1-4.3-0.3-6c-0.1-0.6-0.2-1-0.2-1.4c-0.2,0-0.4,0-0.6,0s-0.4,0-0.6,0c-0.1,0.4-0.2,0.8-0.2,1.4c-0.2,1.6-0.3,3.6-0.3,6
			H253c0-2.3,0.9-4.3,2.7-6c1.8-1.6,4-2.5,6.5-2.5c2.6,0,4.7,0.8,6.5,2.5c1.8,1.6,2.7,3.6,2.7,6v25.3h-2.3l-2.7-4.9
			c-0.2,0.9-0.6,1.7-1,2.5c-0.9,1.6-2,2.4-3.3,2.4C259.6,132.2,257.4,131.4,255.6,129.8z M262.7,131.1c0.1-0.4,0.2-0.8,0.2-1.3
			c0.2-1.6,0.3-3.6,0.3-6v-7.4H262c-0.2,0-0.4,0-0.6,0c-0.1,0.4-0.2,0.8-0.2,1.4c-0.2,1.6-0.3,3.6-0.3,6c0,2.3,0.1,4.3,0.3,6
			c0.1,0.6,0.1,1,0.2,1.4c0.2,0,0.4,0,0.6,0S262.5,131.2,262.7,131.1z"/>
		<path class="st0" d="M276,129.8c-1.8-1.6-2.7-3.6-2.7-6V90.1h8.1v33.7c0,2.3,0.1,4.3,0.3,6c0.1,0.6,0.1,1,0.2,1.4
			c0.2,0,0.4,0,0.6,0v1C280,132.2,277.8,131.4,276,129.8z"/>
	</g>
</g>
</svg>
