<?xml version="1.0" encoding="utf-8"?>
<!-- Generator: Adobe Illustrator 22.0.0, SVG Export Plug-In . SVG Version: 6.00 Build 0)  -->
<svg version="1.1" id="Layer_1" xmlns="http://www.w3.org/2000/svg" xmlns:xlink="http://www.w3.org/1999/xlink" x="0px" y="0px"
	 viewBox="0 0 96.8 156.5" style="enable-background:new 0 0 96.8 156.5;" xml:space="preserve">
<style type="text/css">
	.st0{fill:#2D1A46;}
</style>
<g>
	<g>
		<g>
			<path class="st0" d="M51.4,146.3L51.4,146.3c-10.3,0-19.3-9.2-23.6-13.6l-0.3-0.3c-2.9-3-5-8.3-3.2-12.8c1.5-4,2.7-8.3,3.5-12.7
				s4-8,9.3-10.5c0.4-0.2,0.9,0,1.1,0.4c0.2,0.4,0,0.9-0.4,1.1c-3.3,1.5-7.5,4.4-8.4,9.3c-0.8,4.5-2,8.9-3.6,13
				c-1.5,3.9,0.3,8.5,2.9,11.1l0.3,0.3c4.2,4.3,12.9,13.1,22.4,13.1l0,0c1.9,0,3.8-0.6,5.9-1.2c1.7-0.5,3.4-1,5.4-1.3
				c8.1-1.2,12.6-10.5,13.9-18.1c0.2-1.3,0.4-2.7,0.4-4.1c-0.1-2.1-0.8-3.8-1.6-5.8c-0.8-1.9-1.6-4.1-2-7c-0.6-4.5-4.3-7.3-7.4-8.8
				c-0.4-0.2-0.6-0.7-0.4-1.1c0.2-0.4,0.7-0.6,1.1-0.4c4.9,2.4,7.7,5.9,8.3,10.1c0.4,2.6,1.1,4.6,1.9,6.6c0.8,2,1.6,4,1.7,6.3
				c0.1,1.6-0.1,3.1-0.4,4.5c-1.4,8.1-6.3,18.1-15.3,19.5c-1.8,0.3-3.5,0.8-5.1,1.3C55.6,145.7,53.5,146.3,51.4,146.3z"/>
		</g>
		<path class="st0" d="M53.7,124.2c3.2,2.1,5,2,7.5-0.3c0.9-0.8,1-1.6,0.3-2.6c-0.5-0.6-0.5-1.6-0.9-2.7c3.2,0.9,4.6,4.6,2.5,6.5
			c-1.5,1.4-3.3,2.5-5.2,3.3c-0.9,0.4-2.6,0-3.2-0.7C53.9,126.9,54,125.4,53.7,124.2z"/>
		<path class="st0" d="M68.8,124.3c2.7,0.8,3.4-0.9,4.4-2.4c-0.4-0.2-0.8-0.4-1.5-0.8c0.7-0.4,1.4-1,1.6-0.9
			c0.7,0.5,1.8,1.2,1.8,1.9c0,1.8-0.4,3.6-2.4,4.3c-0.9,0.3-2.2,0.5-3,0.1C69.2,126.5,69.1,125.1,68.8,124.3z"/>
		<path class="st0" d="M60.9,136.2c4.4,0,5.8-0.4,4.3-4.6c1.4,0.4,2,1.4,1.9,2.9c-0.2,1.9-1.2,3.2-3,3.6
			C62.7,138.5,61.5,138,60.9,136.2z"/>
		<path class="st0" d="M47.5,139.6c3.8,2.1,5.3,2.5,6-1.9c1,1,1.1,2.2,0.3,3.5c-1.1,1.5-2.6,2.2-4.4,1.7
			C48,142.5,47.2,141.5,47.5,139.6z"/>
		<path class="st0" d="M65.9,111.5c4.3-0.6,5.7-1.2,3.6-5.1c1.4,0.2,2.2,1.1,2.3,2.6c0.1,1.9-0.7,3.3-2.5,4
			C67.9,113.6,66.7,113.2,65.9,111.5z"/>
		<path class="st0" d="M53.4,134.9c-0.3-1.7-0.4-3.1,1.4-3.6c0.3-0.1,1.1,0.6,1.1,1C56.1,134,55.2,134.8,53.4,134.9z"/>
		<path class="st0" d="M40.7,136.9c-0.7-1.6-1.2-2.9,0.5-3.8c0.3-0.1,1.2,0.3,1.4,0.7C43.1,135.3,42.4,136.3,40.7,136.9z"/>
		<path class="st0" d="M65.8,118.7c-0.3-1.4-0.4-2.6,1.2-3c0.2-0.1,0.9,0.5,0.9,0.8C68,117.9,67.3,118.6,65.8,118.7z"/>
		<path class="st0" d="M68.2,132.1c0.4-0.7,0.8-1.5,1.2-2.2c0.3,0.3,1,0.9,1,1c-0.3,0.7-0.9,1.2-1.3,1.8
			C68.7,132.5,68.4,132.3,68.2,132.1z"/>
		<path class="st0" d="M47.6,130.2c0.4-0.7,0.8-1.5,1.2-2.2c0.3,0.3,1,0.9,1,1c-0.3,0.7-0.9,1.2-1.3,1.8
			C48.1,130.6,47.9,130.4,47.6,130.2z"/>
		<path class="st0" d="M39,130.2c0.4-0.7,0.8-1.5,1.2-2.2c0.3,0.3,1,0.9,1,1c-0.3,0.7-0.9,1.2-1.3,1.8
			C39.5,130.6,39.3,130.4,39,130.2z"/>
	</g>
	<g>
		<g>
			<path class="st0" d="M89.1,83.8c-0.6-0.6-1.1-0.8-1.8-0.9c0.1-0.6,0.5-2.8,0.3-5.3c-0.1-2-0.6-4.3-1.9-6
				c-0.1-0.2-0.2-0.3-0.4-0.5c0,0,0,0,0-0.1l0,0c-1.5-1.6-3.9-2.8-6.1-3.6c-0.1,0-0.2-0.1-0.4-0.1l0,0c-2.1-0.8-4-1.2-5-1.4
				l2.9-12.4c0.2-0.7,0.3-1.4,0.2-2.1L76.1,46v-0.2c-0.1-1-0.2-1.8-1.7-2.1l-11.9-1.6c-0.3,0-0.6,0.2-0.6,0.5l0,0
				c0,0.3,0.2,0.5,0.5,0.6l11.9,1.6c0.7,0.1,0.7,0.1,0.8,1.1l0.8,5.6c0.1,0.5,0,1.1-0.1,1.6l-3.1,13c0,0,0,0,0,0.1l-1.1,3.9L65,93.2
				c-0.1,0.4-0.5,0.6-0.8,0.6l0,0l-16.1-1.5l-2-0.2H46l0,0l-10.1-0.9l-1.6-24.4c0,0,0,0,0-0.1L33.9,61l-0.7-10.6c0-0.4,0-0.7,0.1-1
				l2-5.4c0.2-0.7,0.9-1.2,1.6-1.3l8.7-0.5c0.3,0,0.5-0.3,0.5-0.6l0,0c0-0.3-0.3-0.5-0.6-0.5h-0.8l-7.9,0.4c-1.2,0.1-2.2,0.9-2.6,2
				l-2,5.4c-0.2,0.5-0.2,1-0.2,1.5l0.7,10.1c-1.4,0.2-2.8,0.4-4.2,0.5l0,0c-0.8,0.1-1.5,0.2-2.3,0.2c-1.5,0.1-3.1,0.3-4.6-0.1
				c-0.5-0.1-1-0.3-1.4-0.5c-1-0.6-1.8-1.5-2.3-2.5c-0.6-1.1-0.9-2.3-1.1-3.4c0.2,0,0.3,0,0.5,0.1c0.7,0.1,1.4-0.1,2-0.5
				c2-1.3,2.6-4.1,3-7c0.5-3.8-3.8-5.5-6.1-5.9c-0.2,0-0.3,0-0.4,0.1c-0.1,0.1-0.2,0.3-0.2,0.4l-0.1,3.2c0,0.2,0.1,0.4,0.3,0.5
				c0.9,0.6,1.4,1.2,1.4,1.8c0,0.7-0.5,1.3-0.8,1.7c-0.5-0.7-1.3-1.1-2.2-1.2c-1-0.1-2,0.3-2.6,1.1c-0.5-0.3-1.3-0.7-1.3-1.3
				c-0.1-0.6,0.5-1.3,1.7-2.1c0.1-0.1,0.2-0.2,0.2-0.3l0.9-3.3c0-0.2,0-0.4-0.1-0.5s-0.3-0.2-0.5-0.2c-0.3,0-7.4,1.1-7,5.8
				c0.2,2.4,1.2,5.8,3.3,7.3c0.5,0.3,0.9,0.5,1.3,0.5c0.5,0,0.9-0.1,1.4-0.2v0.1c0.3,2.1,0.7,3.9,1.2,5.5c0.1,0.3,0.2,0.5,0.3,0.8
				c0.8,1.9,2,3.5,3.5,4.5c1.1,0.8,2.3,1.2,3.5,1.6c1,0.2,2,0.4,3,0.5c0.3,0,0.7,0.1,1,0.1c1.6,0.1,3.4,0.1,5.3,0c0,0,0,0,0.1,0
				c0.2,0,0.4,0,0.7,0c0.7-0.1,1.4-0.1,2.1-0.2l0.5-0.1c0.1,0,0.2,0,0.3,0s0.3,0,0.4-0.1L35,91.9c0,0.3,0.2,0.5,0.5,0.5l10.1,0.9
				l-0.8,12.5c-0.1,0.9,0.6,1.7,1.5,1.7h0.3l-0.2,2.6c-0.1,1.1,0.8,2.1,2,2.3l2.4,0.3c0.1,0,0.1,0,0.2,0c1.2,0.1,2.2-0.6,2.4-1.7
				l0.5-2.5l0.4-2l0.5-2.8l0.4-2l0.5-2.4c0.1-0.5,0-1.1-0.4-1.5c-0.4-0.5-1-0.9-1.6-1L50,96.3c-0.6-0.1-1.2,0-1.6,0.3l0.3-3.2
				l15.5,1.4l0,0c0.9,0.1,1.7-0.5,2-1.4l6.5-22.5c1,0.3,3.1,0.9,4.5,1.4c0.5,0.2,0.8,0.3,1.1,0.4c0.6,0.3,1.8,0.9,2.7,2
				c0.5,0.7,1,1.5,1.3,2.6c0.1,0.4,0.1,0.7,0.2,1.1c0.1,1.8-0.3,3.2-0.6,3.9c-0.6,0-1.1,0.1-1.7,0.5c-1.9,1.2-2.8,3.8-3,5.8
				c-0.1,1,0.1,1.9,0.8,2.6c1.4,1.7,4.2,1.9,4.4,1.9s0.3,0,0.4-0.1c0.1-0.1,0.2-0.2,0.2-0.4v-2.5c0-0.2-0.1-0.3-0.2-0.4
				c-0.5-0.4-1.2-1-1.1-1.6c0.1-0.4,0.5-0.8,0.9-1.1c0,0,0,0,0,0.1c0.4,0.6,1.1,1,1.8,1.1c0.1,0,0.2,0,0.3,0c0.6,0,1.3-0.1,1.8-0.5
				l0.1-0.1c0.3,0.4,0.6,1.1,0.4,1.5c-0.1,0.4-0.5,0.7-1.2,0.8c-0.2,0-0.3,0.2-0.4,0.4l-0.7,2.5c0,0.2,0,0.3,0.1,0.5
				c0.1,0.1,0.2,0.2,0.4,0.2c0,0,0.1,0,0.2,0c0.7,0,3.2,0.1,4.8-1.2c0.7-0.6,1.2-1.4,1.2-2.4C91.1,87.3,90.5,85.1,89.1,83.8z
				 M11,53.6c-0.9,0.3-1.2,0.3-1.9-0.1c-1.7-1.2-2.6-4.1-2.9-6.5c-0.3-2.9,3.5-4.1,5.2-4.5l-0.6,2.3c-1.4,1-2.1,2-2,3
				c0.1,1.1,1.2,1.8,1.8,2.1c-0.1,0.3-0.2,0.6-0.2,0.9c-0.1,1,0.3,1.9,1,2.5C11.4,53.5,11.2,53.5,11,53.6z M15.9,53.4
				c0.5-0.5,0.9-1.2,1-2c0-0.4,0-0.8-0.1-1.2c0.5-0.5,1.4-1.5,1.4-2.7c0-0.9-0.6-1.8-1.6-2.5v-2.2c1.5,0.4,5,1.6,4.6,4.5
				c-0.3,2.5-0.9,5.2-2.5,6.2c-0.7,0.5-1.4,0.4-2.9,0C15.8,53.5,15.9,53.5,15.9,53.4z M13.5,54C13.5,54.1,13.5,54.1,13.5,54
				C13.5,54.1,13.5,54.1,13.5,54L13.5,54z M13.3,59.1c-0.4-1.2-0.7-2.5-0.9-3.9l3.3-0.1c0.2,0.9,0.4,1.9,0.8,2.8
				C15,57.9,13.9,58.6,13.3,59.1z M22.9,66.5c-0.8-0.1-1.6-0.2-2.4-0.4c0-0.8,0.2-2.5,1.2-3.8c1.6,0.3,3.2,0.2,4.6,0
				c0.5,0,1-0.1,1.6-0.2c-0.4,2,0,3.5,0.4,4.3C26.2,66.7,24.5,66.7,22.9,66.5z M47.3,93.3l-0.9,9.2l-0.2,2.3l-0.1,1.5
				c-0.2-0.1-0.4-0.3-0.4-0.6l0.8-12.5l0,0L47.3,93.3L47.3,93.3z M52.8,107.4c-0.6-0.4-1.5-0.9-2.4-0.9c-0.7,0-1.4,0.2-2,0.3
				c-0.3,0.1-0.6,0.1-0.8,0.2l0.1-0.9c0.3,0,0.7-0.1,1.2-0.2c0.6-0.1,1.2-0.3,1.7-0.3c0.8,0,1.8,0.7,2.3,1L52.8,107.4z M49.1,101.1
				c0.7-0.1,1.4-0.3,2-0.3c1,0,2.2,0.7,2.7,1l-0.2,0.9c-0.7-0.4-1.9-1-3-1c-0.7,0-1.6,0.1-2.2,0.3c-0.2,0-0.3,0.1-0.5,0.1l0.1-0.8
				C48.3,101.2,48.7,101.2,49.1,101.1z M81.7,85c-0.1,0.3,0,0.6,0,1c-0.5,0.3-1.4,1-1.5,1.9c-0.1,0.8,0.3,1.6,1.3,2.4V92
				c-0.8-0.1-2.3-0.5-3-1.5c-0.4-0.5-0.6-1.1-0.5-1.8c0.2-2.2,1.2-4.2,2.5-5c0.4-0.3,0.8-0.3,1.4-0.3c0.2,0,0.4,0.1,0.6,0.1
				C82.1,83.8,81.8,84.4,81.7,85z M81,73.5c-1-1-2-1.5-2.6-1.8c-0.2-0.1-0.4-0.2-0.7-0.3c-0.1-1.5,0.8-2.5,1.2-2.9
				c1.8,0.7,3.7,1.6,5,2.7C83,71.5,81.8,72.2,81,73.5z M86.4,82.3c-0.9-0.2-2.4-0.5-3.6-0.3c0.2-0.8,0.5-2,0.4-3.4
				c0.6-0.6,1.6-0.7,2.5-0.6c0.3,0,0.7,0.1,0.9,0.1C86.7,79.9,86.5,81.4,86.4,82.3z M89.8,89.8c-0.1,0.7-0.3,1.2-0.8,1.6
				c-1,0.8-2.6,0.9-3.5,0.9l0.4-1.5c0.9-0.3,1.5-0.8,1.7-1.5c0.3-1.1-0.4-2.2-0.8-2.7c0.1-0.3,0.2-0.5,0.3-0.8c0.1-0.7,0-1.4-0.4-2
				c0.8,0.1,1.2,0.2,1.7,0.7C89.4,85.6,90,87.6,89.8,89.8z"/>
			<path class="st0" d="M79.2,67.4c-0.1,0-0.2-0.1-0.4-0.1C79,67.3,79.1,67.4,79.2,67.4z"/>
			<path class="st0" d="M71,56.3c-0.5-0.7-1.2-1.2-2-1.4c-6.7-1.3-12.5-1.9-17.3-2.3c-6.4-0.4-10.9-0.3-13.1-0.1
				c-1.2,0.1-2.1,1.1-2.1,2.3l1.4,33.8c0,0.3,0.2,0.5,0.5,0.5L62.8,91l0,0c0.3,0,0.5-0.2,0.6-0.4l8-32C71.6,57.9,71.5,57,71,56.3z
				 M43.5,62.8c1.9-1.4,4.5-1,5.9,0.8c0.1,0.2,0.2,0.3,0.1,0.5c0,0.2-0.1,0.4-0.3,0.5l-2.1,1.7l1.7,2.2c0.1,0.2,0.2,0.3,0.1,0.5
				c0,0.2-0.1,0.4-0.3,0.5c-0.8,0.6-1.9,0.9-2.8,0.8c-1.2-0.1-2.3-0.6-3.1-1.7C41.3,66.8,41.7,64.2,43.5,62.8z M58.3,81.6
				c-1.6,1.7-3,1.7-3.7,1.7c-0.1,0-0.2,0-0.2,0c-0.4,0-1.1,0-1.7-0.3c-0.6-0.3-0.9-0.9-1.1-1.3c-0.1-0.2-0.2-0.3-0.3-0.5
				c-0.6-0.8-1.8-0.2-3.4,0.7c-0.9,0.5-1.7,0.9-2.5,1c-0.2,0-0.3,0-0.5,0c-0.7,0-1.2-0.3-1.6-0.9c-0.7-0.9-0.6-2.3-0.2-3.3
				c0.5-1.3,1.8-2.1,3.1-1.8c0.4,0.1,0.7,0.4,0.6,0.8c-0.1,0.4-0.4,0.7-0.8,0.6c-0.7-0.1-1.3,0.4-1.5,1c-0.3,0.7-0.2,1.5,0.1,1.9
				c0.1,0.1,0.3,0.3,0.8,0.3c0.4,0,1.2-0.5,1.9-0.9c1.7-0.9,4-2.2,5.3-0.3c0.2,0.2,0.3,0.4,0.4,0.6c0.2,0.4,0.3,0.6,0.5,0.7
				s0.5,0.2,0.9,0.1c0.1,0,0.2,0,0.3,0c0.6,0,1.5,0,2.7-1.2c0.3-0.3,0.7-0.3,1,0C58.6,80.8,58.6,81.3,58.3,81.6z M60.1,79.9
				l-0.2,0.2c-0.2,0.2-0.4,0.3-0.6,0.3c-0.2,0-0.3-0.1-0.4-0.2c-0.3-0.3-0.3-0.7-0.1-1L59,79c0.3-0.3,0.7-0.3,1-0.1
				C60.3,79.1,60.4,79.6,60.1,79.9z M63.6,66.1c0,0.2-0.1,0.4-0.3,0.5l-2.2,1.7l1.7,2.2c0.2,0.3,0.2,0.8-0.1,1
				c-0.8,0.6-1.9,0.9-2.8,0.8c-1.2-0.1-2.3-0.6-3.1-1.7c-0.7-0.9-1-2-0.8-3.1s0.7-2.1,1.6-2.8c1.9-1.4,4.5-1,5.9,0.8
				C63.6,65.7,63.6,65.9,63.6,66.1z"/>
			<path class="st0" d="M60.3,46.7c-0.1-0.3-0.3-0.6-0.5-0.8l-0.1-0.1c-0.6-0.7-1-1.8-1.2-2.6c-0.1-0.4-0.3-0.9-0.4-1.3
				c-0.2-0.6-0.3-1.2-0.4-1.7c-0.4-1.9-0.8-4-0.4-6c0.1-0.6,0.7-1.2,1.2-1.6c0.9-0.7,1.4-1.8,1.5-3s-0.3-2.4-1.1-3.2
				c-0.7-0.8-1.6-1.2-2.6-1.2c-2,0-3.7,1.6-3.9,3.8c-0.1,1.2,0.2,2.3,0.9,3.2c0.4,0.5,1,1.5,1.1,1.7c0.1,0.4,0.1,0.8,0,1.3
				c0,0.3-0.1,0.6-0.1,0.9l0,0c-0.2,1.1-0.6,2.3-1.2,3.8c-0.3,0.6-0.5,1.1-0.8,1.7c-0.4,0.7-0.7,1.4-1.1,2c-0.3,0.4-0.5,0.9-0.9,1.2
				l-0.1,0.1c-0.3,0.3-0.8,0.7-0.8,1.4c0,0.3,0.1,0.6,0.3,0.8c0.5,0.8,1.5,1.3,2.2,1.6c0.8,0.3,1.8,0.5,2.8,0.6l0,0
				c0.4,0,0.8,0,1.1,0c1.5-0.1,3-0.3,4-1.5c0.1-0.1,0.4-0.5,0.4-0.9C60.4,47,60.4,46.9,60.3,46.7z M56.8,31.1L56.8,31.1
				c-1-0.1-1.7-0.9-1.6-1.8c0.1-0.9,0.9-1.7,1.8-1.6l0,0c0.5,0,0.9,0.2,1.2,0.6c0.3,0.3,0.4,0.8,0.4,1.2c0,0.5-0.2,0.9-0.6,1.2
				C57.7,31,57.3,31.1,56.8,31.1z"/>
			<path class="st0" d="M48.1,92.3l-2-0.2l1.8,0.1C48,92.3,48.1,92.3,48.1,92.3z"/>
			<polygon class="st0" points="47.3,93.3 47.3,93.3 46.5,93.2 46.5,93.2 			"/>
			<path class="st0" d="M13.5,54C13.5,54.1,13.5,54.1,13.5,54C13.5,54.1,13.5,54.1,13.5,54L13.5,54z"/>
		</g>
		<g>
			<path class="st0" d="M48.1,37.5c-0.2,0-0.4-0.1-0.6-0.2C45.3,35,44,31.9,44,28.7c0-6.7,5.5-12.2,12.2-12.2l0,0
				c3.3,0,6.3,1.3,8.6,3.6c2.3,2.3,3.6,5.4,3.5,8.7c0,3.2-1.2,6.2-3.5,8.5c-0.3,0.3-0.8,0.3-1.1,0s-0.3-0.8,0-1.1c1.9-2,3-4.6,3-7.4
				c0-2.9-1.1-5.5-3.1-7.6c-2-2-4.7-3.1-7.5-3.2l0,0c-2.8,0-5.5,1.1-7.5,3.1s-3.1,4.7-3.2,7.5c0,2.8,1.1,5.5,3,7.5
				c0.3,0.3,0.3,0.8,0,1.1C48.5,37.4,48.3,37.5,48.1,37.5z"/>
		</g>
		<g>
			<path class="st0" d="M72,35.6c-0.1,0-0.2,0-0.3-0.1c-0.4-0.2-0.6-0.6-0.4-1c0.8-2,1.3-4.1,1.3-6.3c0-4.4-1.7-8.5-4.7-11.6
				c-3.1-3.1-7.2-4.8-11.5-4.8c0,0,0,0-0.1,0c-4.3,0-8.4,1.7-11.5,4.7C41.7,19.6,40,23.7,40,28c0,2.2,0.4,4.4,1.3,6.4
				c0.2,0.4,0,0.9-0.4,1c-0.4,0.2-0.9,0-1-0.4c-0.9-2.2-1.4-4.6-1.4-7c0-4.8,1.9-9.3,5.3-12.6c3.4-3.3,7.8-5.2,12.6-5.2
				c0,0,0,0,0.1,0c4.8,0,9.3,1.9,12.6,5.3c3.4,3.4,5.2,7.9,5.2,12.7c0,2.4-0.5,4.7-1.4,6.9C72.6,35.4,72.3,35.6,72,35.6z"/>
		</g>
	</g>
</g>
</svg>
