<?xml version="1.0" encoding="utf-8"?>
<!-- Generator: Adobe Illustrator 22.0.0, SVG Export Plug-In . SVG Version: 6.00 Build 0)  -->
<svg version="1.1" id="Layer_1" xmlns="http://www.w3.org/2000/svg" xmlns:xlink="http://www.w3.org/1999/xlink" x="0px" y="0px"
	 viewBox="0 0 222.3 222.5" style="enable-background:new 0 0 222.3 222.5;" xml:space="preserve">
<style type="text/css">
	.st0{fill:#FFFFFF;}
</style>
<g>
	<path class="st0" d="M30.1,137.7c0.2,5.7,0.4,11.4,0.6,17.1c0.2,4.1,0.3,8.3,0.5,12.4c0,0.6-0.1,1.1-0.9,1
		c-4.1-0.1-8.1-0.1-12.2-0.2c-0.1,0-0.1-0.1-0.3-0.1c0-2.2,0-4.4,0-6.9c1.8,0,3.5,0,5.2,0c1.4,0,1.4,0,1.4-1.4
		c-0.4-8.1-0.7-16.1-1.1-24.2c-0.3-7-0.6-14.1-0.9-21.1c0-0.2,0-0.4,0-0.6c2,0,3.9,0,5.8,0c0.8,0,1.6,0.1,2.4,0.1
		c0.8-0.1,1.1,0.3,1.3,1.1c2.2,8.7,4.4,17.4,6.5,26.1c0.6,2.3,1.1,4.5,1.9,6.7c0.1-2.5,0.1-4.9,0.2-7.4c0.2-6.2,0.3-12.4,0.5-18.5
		c0-0.9,0.3-1.2,1.2-1.2c4.6,0,9.2,0,13.9,0c0.9,0,1.2-0.2,1.2-1.2c0.1-1.7,0.3-3.4,0.5-5.1c0-0.3,0.5-0.7,0.8-0.7
		c4.3,0,8.6,0,12.9,0.1c0.8,0,1.2,0.2,1.3,1.2c0.6,4.8,1.2,9.6,1.9,14.4c0.7,5.3,1.4,10.6,2.1,15.9c0.7,5.2,1.4,10.4,2.1,15.7
		c0.1,0.7,0.2,1.4,0.3,2.1c1,0,1.9,0,3,0c-0.1-1.9-0.2-3.8-0.4-5.7c-0.3-4.3-0.7-8.7-1-13s-0.7-8.6-1-12.8c-0.3-4.2-0.6-8.4-1-12.6
		c-0.1-1.3-0.2-2.7-0.3-4c-0.1-0.8,0.2-1,0.9-1.1c2.8-0.3,5.6-0.7,8.3-1c1.3-0.2,1.4-0.1,1.4,1.3c0.1,6.8,0.2,13.7,0.2,20.5
		c0,0.2,0,0.5,0.2,0.8c4.6-7.4,9.1-14.8,13.8-22.3c1.1,1.1,2.1,2,3.1,3c3.2,3.1,6.3,6.2,9.5,9.4c0.4,0.4,0.7,1.1,0.7,1.7
		c-0.2,4.9-0.6,9.7-0.9,14.6c-0.2,3-0.6,6.1-0.7,9.1c-0.1,2.5,0.5,3,2.9,3.3c0.7,0.1,1.4,0.1,2.1,0.1c2.2-0.2,3.6-1.7,3.6-4.1
		c0-2.8-0.1-5.6-0.2-8.4c-0.2-4.6-0.4-9.2-0.6-13.7c-0.1-2.9-0.1-5.7-0.3-8.6c0-0.8,0.3-1.1,1-1.1c3.7-0.4,7.4-0.9,11.1-1.3
		c0.7-0.1,1.1-0.4,1-1.1c-0.1-1.1,0.5-1.4,1.5-1.5c1.7-0.2,3.3-0.4,5-0.7c0.7-0.1,1,0.1,1.3,0.7c3.9,7.6,7.8,15.2,11.7,22.8
		c0.3,0.6,0.6,1.2,1.1,2c0.4-1.1,0.8-2,1.1-2.9c2.7-7.3,5.4-14.5,8-21.8c0.3-0.9,0.7-1,1.5-0.8c2.3,0.5,4.5,1,6.8,1.4
		c0.9,0.2,1.1,0.6,1.1,1.4c-0.1,6.5-0.1,13-0.1,19.4c0,6.2-0.1,12.3-0.2,18.5c0,1.2,0,2.4-0.1,3.6c0,0.6,0.1,1,0.8,1
		s0.7-0.5,0.7-0.9c0.6-6.3,1.2-12.6,1.7-18.9c0.6-5.9,1.1-11.9,1.7-17.8c0.2-2,0.3-3.9,0.5-5.9c0-0.5,0.1-1,0.2-1.6c1,0,1.9,0,2.8,0
		c3.5,0,7.1,0.1,10.6,0.1c1,0,1.4,0.4,1.6,1.4c1.1,7.5,2.3,14.9,3.4,22.4c1.1,6.9,2.1,13.9,3.2,20.8c0,0.3,0.1,0.6,0.2,1
		c0.3,2,0.3,2,2.2,2.5c0.2,2,0.4,4.1,0.7,6.3c-0.4,0-0.8,0.1-1.1,0.1c-2.7,0-5.5,0-8.2,0c-0.7,0-1.1-0.1-1.2-1
		c-0.7-5.4-1.4-10.9-2.1-16.3c-0.4-2.7-0.4-2.7-3.1-3.1c-1.3-0.2-2.5-0.4-3.9-0.6c-0.3,1.7-0.6,3.3-0.9,4.9
		c-0.6,4.1-1.2,8.3-1.8,12.4c-0.1,0.6-0.3,0.8-0.9,0.8c-4.4,0-8.9,0-13.3,0c-0.8,0-0.9-0.3-0.9-1c-0.1-3.1-0.2-6.3-0.2-9.4
		c-0.2-7.2-0.3-14.4-0.5-21.8c-0.2,0.3-0.4,0.5-0.5,0.7c-2.4,4-4.7,8-7,12.1c-0.4,0.7-0.9,0.9-1.7,1c-2.3,0.3-3.7-0.5-4.8-2.6
		c-2.4-4.3-5.2-8.4-7.8-12.6c-0.2-0.2-0.3-0.5-0.7-1c0.2,12,0.3,23.7,0.5,35.5c-3.6,0.6-7.1,1.2-10.9,1.9
		c0.6-15.1,1.3-30.1,1.9-45.2c-1.1,0.1-2,0.2-3,0.2c-0.9,0-1.1,0.5-1.1,1.3c0.1,5.2,0.2,10.3,0.3,15.5c0.1,4.2,0,8.4,0.3,12.7
		c0.3,4.8-3.3,7.9-7.2,8.2c-3.3,0.3-6.7,0-10-0.1c-0.7,0-1.5,0-2.2-0.1c-2.8-0.2-4.8-2.2-5.2-5.3c-0.2-1.7-0.2-3.3-0.1-5
		c0.1-6.9,0.3-13.9,0.4-20.8c0-0.6-0.3-1.2-0.7-1.7c-0.8-1-1.8-1.9-2.8-2.9c-0.3,0.4-0.5,0.7-0.7,0.9c-2.9,4.7-5.9,9.4-8.8,14.1
		c-0.4,0.6-0.4,1.1-0.1,1.8c3.9,6.9,7.8,13.8,11.8,20.7c0.6,1,0.4,1.4-0.4,2c-1.8,1.3-3.4,2.7-5.3,4.1c-3.5-7.7-7-15.2-10.4-22.8
		c-0.1,0-0.1,0-0.2,0c0,2.7,0,5.5,0,8.2c0,4.4,0,8.7,0,13.1c0,1.5,0,1.5-1.5,1.5c-4.5,0-9,0-13.5,0c-1.1,0-1.4-0.4-1.6-1.3
		c-1.1-6-2.3-12-3.5-18c-0.2-0.8-0.5-1.2-1.4-1.3c-1.7-0.2-3.4-0.5-5.3-0.8c-0.3,1.3-0.6,2.6-0.8,3.9c-0.6,3.7-1.2,7.4-1.8,11.1
		c-0.1,0.7-0.4,1.1-1.2,1.1c-1.9,0-3.8,0-5.9,0c1.1-11.6,2.2-23.1,3.3-34.6c-2.6,0.2-5,0.4-7.3,0.6c0,4.2,0,8.3,0,12.4
		c0,3.2,0.1,6.3,0.2,9.5c0.1,4.8,0.2,9.7,0.3,14.5c0,1-0.3,1.5-1.3,1.6c-2.5,0.3-5,0.7-7.5,1.1c-0.8,0.1-1.2-0.1-1.5-0.9
		c-2.9-9.7-5.9-19.4-8.9-29.1c-0.1-0.2-0.1-0.4-0.2-0.6C30.2,137.7,30.2,137.7,30.1,137.7z M187.1,127.8c-0.1,1.2-0.3,2.2-0.4,3.3
		c-0.3,2.9-0.7,5.8-1,8.8c0,0.3,0.2,0.8,0.3,0.9c1.6,0.4,3.1,0.8,4.9,1.2c-0.5-4.8-0.9-9.4-1.4-14
		C188.6,127.8,187.9,127.8,187.1,127.8z M68.7,141.8c0.1-0.1,0.1-0.2,0.1-0.3c-0.4-4.3-0.8-8.7-1.2-13c-0.1-0.8-0.5-0.8-1.1-0.8
		c-0.7,0-1.4-0.2-1.6,0.8c-0.4,3.7-0.9,7.5-1.3,11.2c0,0.3,0.3,0.8,0.6,0.9C65.7,141.1,67.2,141.4,68.7,141.8z"/>
	<path class="st0" d="M65,99.2c-0.4,2.2-0.9,4.3-1.2,6.3c-0.2,0.9-0.2,1.8-0.2,2.7c-0.1,1.1-0.9,1.9-1.9,1.9c-0.9,0-1.7-0.7-1.9-1.7
		c-0.1-0.4-0.3-0.7-0.5-1c-2.5-3-5.1-6.1-7.7-9.1c-0.4-0.5-0.7-0.6-1.4-0.4c-6.7,2.8-13.4,5.6-20.1,8.4c-0.8,0.3-0.9,1-0.9,1.7
		c-0.2,1.5-0.9,2.3-2,2.2c-1.2-0.1-1.9-1-1.8-2.5c0.8-10.3,3.3-20.2,7.8-29.4C45,54,64.1,38.6,90.3,32.1c8.3-2,16.8-2.7,25.2-1.8
		c31,3.3,54.1,18.5,68.6,46.2c4.4,8.4,7,17.4,8.1,26.8c0.2,1.6,0.3,3.2,0.5,4.8c0.1,1.1-0.7,2-1.7,2.1s-2.1-0.7-2-1.8
		c0.2-2.5-1.2-3.7-3-4.9c-3.3-2.3-6.5-4.7-9.7-7.1c-0.6-0.4-1-0.5-1.6,0c-4.4,3.8-8.9,7.5-13.3,11.2c-0.3,0.3-0.6,0.7-0.7,1.1
		c-0.4,1-1.3,1.6-2.3,1.4s-1.6-1-1.5-2.2c0.1-2.6,0.2-5.2,0.3-7.7c0-1-0.3-1.6-1.2-2.1c-2-1.1-4-2.4-6-3.6c-0.7-0.4-1-0.3-1.6,0.2
		c-4.2,4.3-8.4,8.5-12.6,12.8c-0.3,0.3-0.5,0.8-0.6,1.2c-0.3,1-1.2,1.7-2.1,1.5c-1-0.1-1.7-1-1.7-2.1c0-0.1,0-0.2,0-0.2
		c0.8-2.3-0.3-3.5-2.3-4.5c-2.1-1.1-4.1-2.6-6.3-4c-0.5,1.8-1.5,3.3-1.3,5.3c0.2,1.1,0,2.2-0.1,3.4c-0.1,1.1-1,1.8-2,1.7
		c-1.1-0.1-1.8-0.9-1.8-2.1c0-1.1,0.1-2.2,0-3.4c-0.5-7.1-6.3-13.2-13.4-14.2c-10.8-1.5-20.4,5.9-21.6,16.8c0,0.4,0,0.9-0.1,1.3
		c-0.1,1.1-1,2-2,1.9c-1.1-0.1-1.9-0.9-1.8-2c0.1-1-0.3-1.5-1.2-2C73.3,103.9,69.4,101.7,65,99.2z M84.1,45.4
		c-0.8,0.2-1.5,0.3-2.1,0.5c-8.6,2-16.4,5.5-23.6,10.6c-0.4,0.3-0.7,0.9-0.7,1.3c0,2.8,0.2,5.6,0.2,8.4c0,0.7,0.3,0.9,0.9,1
		c4.6,0.7,9.1,1.4,13.7,2.1c0.7,0.1,0.9-0.3,1.1-0.7c3.4-7.4,6.9-14.8,10.3-22.1C83.9,46,84,45.8,84.1,45.4z M102.1,52.9
		c2.2,3.1,4.5,6.4,6.7,9.6c0.5,0.7,0.9,0.9,1.8,0.6c7.5-2.2,15-4.4,22.5-6.6c0.3-0.1,0.6-0.2,1.1-0.4c-1.5-1-2.8-2-4.1-2.8
		c-6.1-3.9-12.6-6.6-19.7-8c-0.3-0.1-0.9,0-1.1,0.2C106.9,47.9,104.6,50.4,102.1,52.9z M56.7,81.3c-0.3-7.7-0.5-15.3-0.8-22.9
		c-0.3,0.1-0.4,0.1-0.4,0.2c-6.6,5.1-12,11.2-16.4,18.3c-0.2,0.3-0.2,0.8-0.1,1.1c0.6,1.7,1.3,3.5,2.1,5.2c0.1,0.3,0.6,0.5,0.9,0.5
		c1.6-0.2,3.2-0.5,4.8-0.7C50.1,82.3,53.3,81.8,56.7,81.3z M90,62.1c5.8-5.8,11.6-11.4,17.5-17.3c-6.4-1-12.6-0.9-18.8-0.2
		c-1.9,0.2-2.8,1-3.4,2.6c-1.2,2.9-2.6,5.7-4,8.6C84.2,57.9,87,60,90,62.1z M41.9,85.4c1.6,4.2,3.2,8.1,4.7,12.1c0.2,0,0.3,0,0.4,0
		c5.9-2.4,11.7-4.9,17.6-7.4c0.4-0.2,0.7-0.6,1-0.9c2.1-2.6,4.1-5.1,6.2-7.7c0.2-0.3,0.5-0.5,0.9-0.9C62.3,82.2,52.2,83.7,41.9,85.4
		z M188,103c0-0.7,0-1.1-0.1-1.5c-0.9-5.4-2.2-10.6-4.1-15.8c-0.3-0.7-0.6-1.1-1.3-1.4c-3-1.3-6-2.7-9.1-4c-1.2-0.5-2.4-1.1-3.7-1.6
		c-1.5,2.5-3,4.9-4.5,7.4C172.8,91.8,180.3,97.3,188,103z M156.7,96.6c-0.2-1.5-0.4-2.7-0.6-3.9c-1-6-3-11.7-5.8-17.1
		c-0.2-0.3-0.7-0.7-1.1-0.7c-2.5-0.3-5-0.4-7.5-0.7c-0.8-0.1-1.2,0.1-1.4,0.9c-0.8,3-1.6,5.9-2.5,8.8c-0.2,0.8,0,1.2,0.7,1.6
		c5.7,3.4,11.4,6.9,17,10.4C155.8,96.1,156.1,96.3,156.7,96.6z M148.7,73c-0.1-0.2-0.1-0.4-0.1-0.5c-3.3-5.5-7.4-10.3-12.3-14.5
		c-0.3-0.2-0.8-0.3-1.2-0.2c-2.4,0.7-4.9,1.4-7.3,2.1c-0.6,0.2-0.9,0.5-0.8,1.1c0.2,2.5,0.3,5,0.5,7.5c0.1,0.8-0.1,1.8,0.3,2.3
		c0.4,0.5,1.5,0.3,2.3,0.4c0.4,0.1,0.7,0.1,1.1,0.1c3.8,0.3,7.7,0.7,11.5,1C144.6,72.7,146.6,72.8,148.7,73z M159.6,63.4
		c-0.6,2.4-1.1,4.7-1.7,7c-0.2,0.9,0,1.2,0.8,1.6c7.5,3.3,15,6.6,22.6,9.9c0.3,0.2,0.7,0.3,1.1,0.4c0.1-0.1,0.2-0.2,0.3-0.3
		c-2-3.6-4.1-7.3-6-11c-1.2-2.3-2.9-3.6-5.5-4.2C167.2,65.9,163.5,64.6,159.6,63.4z M37.6,79.2c-4.4,8.1-7.1,16.4-8.1,25.3
		c0.3,0,0.4,0,0.5,0c4.8-2,9.6-4,14.5-6c0.6-0.3,0.6-0.6,0.4-1.1c-0.6-1.5-1.2-3.1-1.8-4.7C41.2,88.3,39.4,83.9,37.6,79.2z
		 M58.4,80.9c0.5,0,0.8,0,1.2-0.1c4.2-0.6,8.3-1.3,12.5-2c1.3-0.2,2.7-0.4,3.8-1c2.7-1.4,5.2-3,7.8-4.5c0.2-0.1,0.4-0.3,0.8-0.5
		c-8.9-1.4-17.6-2.7-26.5-4.1C58.1,72.8,58.3,76.8,58.4,80.9z M100.7,53.9c-3.1,3.2-6.1,6.3-9.1,9.4c2.6,1.9,5.2,3.7,7.8,5.6
		c1,0.7,1.9,1.1,3.2,1.1c1.4,0,2.9,0.2,4.3,0.5c2.2,0.5,4.3,1.1,6.6,1.7C109.2,66.1,105,60.1,100.7,53.9z M172.5,65.5
		c-0.3-0.5-0.4-0.7-0.6-0.9c-3.4-4.3-7.2-8.3-11.4-11.9c-1.1-0.9-2.2-1.5-3.5-1.8c-2.6-0.5-5.1-1-7.7-1.6c-0.1,2.7-0.1,5.3-0.3,7.8
		c-0.1,1,0.3,1.4,1.2,1.6c6.1,1.8,12.1,3.6,18.1,5.4C169.6,64.6,170.9,65,172.5,65.5z M110.6,65c2.1,3,4.1,5.9,6.1,8.7
		c0.2,0.3,0.6,0.5,0.9,0.7c3,1.7,5.7,3.9,8.1,6.4c0.2,0.2,0.4,0.3,0.8,0.7c-0.4-7-0.9-13.7-1.3-20.7C120.3,62.2,115.5,63.6,110.6,65
		z M75,69.4c0.4,0.1,0.7,0.2,0.9,0.3c2.5,0.4,4.9,0.8,7.4,1.1c2.3,0.3,4.6,1,7.1,0.3c2.3-0.7,4.7-0.9,7.3-1.3
		c-5.7-4.1-11.4-8.2-17.2-12.3C78.6,61.5,76.8,65.5,75,69.4z M108.8,35.5c-0.9-1.3-2-1.9-3.4-1.7c-2.7,0.3-5.4,0.5-8.1,0.9
		c-11.4,1.6-21.9,5.6-31.5,11.7c-2.1,1.3-4.1,2.8-6.1,4.2c0.4,0,0.6-0.1,0.9-0.3c7.6-4.5,15.8-7.6,24.5-9.1c2.7-0.5,5.4-0.8,8-1.3
		c2.2-0.5,4.3-1.2,6.4-1.8C102.5,37.3,105.6,36.4,108.8,35.5z M138.9,73.9c-3.8-0.3-7.4-0.6-11-1c0,0.3-0.1,0.5-0.1,0.7
		c0.2,3.2,0.4,6.5,0.6,9.7c0,0.3,0.1,0.7,0.3,1c1.9,2.6,3.4,5.5,4.5,8.5c0,0.1,0.1,0.1,0.3,0.2C135.3,86.8,137.1,80.4,138.9,73.9z
		 M164.3,87.7c-1.2,2-2.4,3.8-3.4,5.7c-0.3,0.6-0.5,1.3-0.5,1.9c0.1,3,0.3,5.9,0.4,8.9c0,0.4,0,0.8,0,1.4c4.4-3.7,8.7-7.3,13-10.9
		C170.6,92.3,167.5,90,164.3,87.7z M135,46.3c0,1.7,0,3.2,0,4.8c0,0.7,0.3,1.1,0.8,1.5c3,2.7,6,5.4,8.9,8.1c0.8,0.7,1.4,1.6,2.2,2.5
		c0.1-0.4,0.1-0.6,0.1-0.8c0.2-4.3,0.4-8.6,0.5-12.8c0-0.3-0.4-0.7-0.7-0.8c-1.9-0.5-3.8-0.9-5.7-1.3C139,47.1,137,46.7,135,46.3z
		 M137.1,86.7c-0.7,2.6-1.4,5-2.1,7.4c-0.4,1.5-0.8,3-0.3,4.6c0.2,0.5,0.2,1.1,0.2,1.7c0.1,1.6,0.2,3.1,0.3,4.1
		c3.8-3.6,7.9-7.5,12.1-11.5C143.9,90.9,140.6,88.9,137.1,86.7z M75.4,83.4c-4.4,4.1-7.5,8.8-9.6,14.3c1.5,0.9,3,1.7,4.5,2.5
		c0.3,0.1,0.7,0.1,1,0c2.1-1.1,4.2-2.1,6.3-3.3c0.2-0.1,0.5-0.6,0.4-0.8C77.2,91.9,76.3,87.7,75.4,83.4z M160,91.4
		c2.7-4.5,5.4-8.9,8.1-13.4c-3.7-1.6-7.3-3.2-10.9-4.8c-0.3,1.3-0.6,2.4-0.9,3.5c-0.3,1-0.2,1.9,0.2,2.9c0.6,1.5,1.2,3,1.6,4.5
		C158.7,86.5,159.3,88.9,160,91.4z M132.8,39.8c0.4-2.1,0.3-2.3-1.5-2.7c-4.5-1-9-2-13.5-2.8c-2.5-0.4-5.2-0.4-7.8-0.6
		c1.3,1.6,2.9,2.8,4.2,4.2c1.8,1.9,3.7,2.7,6.4,2.4C124.6,39.9,128.7,39.9,132.8,39.8z M88.5,75.6c-0.7,0.2-1.1,0.3-1.4,0.5
		c-2.6,1.3-5.2,2.6-7.7,4c-2.7,1.6-2.6,1.7-1.9,4.7c0.2,1,0.2,2.5,0.9,3c0.8,0.5,2.2,0.1,3.3,0.1c2.5-0.1,2.5-0.1,3.4-2.5
		C86.1,82.3,87.3,79.1,88.5,75.6z M155.1,48.8c-6.2-4.6-12.9-8.1-20.3-10.6c0,2.1,0,3.9,0,5.8c0,0.3,0.4,0.6,0.7,0.7
		c1.5,0.4,3,0.7,4.6,1C145.1,46.7,150.1,47.7,155.1,48.8z M118.4,79.6c-0.4-0.3-0.7-0.5-0.9-0.7c-2.7-1.8-5.7-3.1-8.8-4
		c-2.9-0.8-2.9-0.8-5.1,1.4c-0.2,0.2-0.3,0.3-0.5,0.5c-0.6,0.5-0.7,0.9-0.2,1.5c1,1.3,2,2.6,2.9,4c0.4,0.6,0.9,0.8,1.6,0.6
		c2.8-0.9,5.6-1.7,8.5-2.5C116.6,80.1,117.4,79.8,118.4,79.6z M148.7,60.2c0,1.7-0.1,3.1,0,4.5c0,0.6,0.2,1.3,0.5,1.8
		c1.5,2.5,3,5,4.6,7.5c0.3,0.5,0.5,0.9,0.9,1.6c1.1-4.4,2.1-8.5,3.1-12.7C154.9,62,152,61.1,148.7,60.2z M128.8,92.2
		c-1.6-3.5-3.6-6.4-6-9c-2.4-2.5-2.4-2.5-5.7-1.5c-0.7,0.2-0.9,0.6-0.8,1.3c0.2,1.8,0.4,3.5,0.7,5.3c0.1,0.4,0.5,0.9,0.9,1
		C121.4,90.3,125,91.2,128.8,92.2z M133,50.6c0-2.9,0-5.7,0-8.4c0-0.7-0.3-0.7-0.9-0.7c-3.1,0.2-6.2,0.3-9.2,0.4
		c-2.6,0.1-5.3,0.3-7.9,0.4C121.4,44.2,127.4,46.9,133,50.6z M94.8,81.9c2.8-2.8,5.4-5.4,8-8c0,0-0.2-0.1-0.4-0.1
		c-3,0.2-6,0.2-9,0.6s-3,0.6-3.9,3.5c-0.2,0.6-0.1,0.9,0.4,1.2C91.6,80,93.4,81.1,94.8,81.9z M63.5,92.4c-3.6,1.5-7.2,3-10.9,4.5
		c2.5,2.9,4.8,5.7,7.3,8.6C60.5,100.9,61.8,96.6,63.5,92.4z M98.6,86.2c-3.4-2-6.6-3.9-9.9-5.9c-0.9,2.5-1.8,5-2.7,7.5
		c1.8,0,3.4,0.2,4.9,0C93.4,87.4,95.8,86.8,98.6,86.2z M124.8,93c-0.5,1.4-0.9,2.7-1.3,3.9c-0.3,0.7,0,1,0.5,1.3
		c2.2,1.3,4.3,2.7,6.5,4.1c0.3,0.2,0.6,0.3,0.9,0.5c0.1-0.1,0.2-0.1,0.3-0.2c-0.6-2.6-1.2-5.2-1.9-7.8c-0.1-0.3-0.5-0.6-0.8-0.7
		C127.6,93.7,126.3,93.4,124.8,93z M107.4,84.6c1,1.2,1.7,2.5,2.8,3.3c1.7,1.4,3.6,2.4,5.4,3.6c-0.4-2.8-0.8-5.8-1.2-9
		C112.1,83.2,109.9,83.9,107.4,84.6z M106.8,86.5c-1.9-2.6-3.7-5.1-5.5-7.6c-1.5,1.5-2.8,2.9-4.2,4.2C99.7,85.5,103,86.5,106.8,86.5
		z M78.5,89.7c0.4,2.1,0.8,4,1.2,5.9c3.5-1.3,6.3-3.4,8.9-5.9C85.3,89.7,82,89.7,78.5,89.7z M98.7,40.2c5.3,0.2,10.4,1.2,15.7,0.2
		c-1-0.9-1.9-1.6-2.6-2.4c-0.9-1.1-1.8-1.1-3-0.7C105.5,38.3,102.2,39.2,98.7,40.2z M72.6,101.4c2.2,1.2,4.2,2.3,6,3.4
		c1.1-2.8,2.1-5.5,3.1-8.1C78.8,98.2,75.8,99.7,72.6,101.4z M117.5,91.1c-0.5,3.5,2.3,5.7,3.2,8.6c0.8-2.4,1.6-4.7,2.4-7.1
		C121.1,92,119.3,91.5,117.5,91.1z"/>
	<path class="st0" d="M134.4,184.7c0.2,0.8,0.4,1.5,0.4,2.1c0.1,1.4,0,2.8,0,4.3c0,0.6,0.1,1.2-0.8,1.2c-0.8,0-1.3-0.4-1.3-1.2
		c0-1.4,0-2.8,0-4.1c0-0.5,0-1.2-0.7-1.1c-0.2,0-0.5,0.7-0.6,1c-0.1,1.4,0,2.8,0,4.1c0,0.7-0.3,1.3-1.2,1.3c-0.7,0-1-0.2-1-0.9
		c0-4.9,0-9.8,0-14.7c0-0.6,0.2-1,0.9-0.9h0.1c3.3-0.1,4.9-0.1,4.6,4.4c-0.1,1,0,2,0,3.1C134.8,183.7,134.5,184.3,134.4,184.7z
		 M131.4,180.7L131.4,180.7c0,0.8,0,1.7,0,2.5c0,0.3,0.3,0.5,0.5,0.8c0.2-0.2,0.7-0.4,0.7-0.7c0.1-1.7,0.1-3.4,0-5.1
		c0-0.2-0.5-0.4-0.7-0.6c-0.2,0.2-0.5,0.4-0.5,0.7C131.4,179,131.4,179.9,131.4,180.7z"/>
	<path class="st0" d="M88.4,184.9c0.1,0.7,0.4,1.5,0.4,2.3c0.1,1.4,0,2.8,0,4.1c0,0.6-0.1,1-0.8,1s-1.3-0.1-1.3-0.9
		c0-1.3,0-2.6-0.1-3.9c0-0.4,0.1-0.8-0.1-1.1c-0.1-0.2-0.4-0.5-0.7-0.5c-0.2,0-0.5,0.4-0.5,0.6c0,1.5,0,3,0,4.5c0,0.4-0.1,1-0.4,1.1
		c-0.3,0.2-0.9,0.2-1.3,0.1c-0.2,0-0.3-0.6-0.3-0.9c0-4.8,0-9.7,0-14.5c0-0.8,0.3-1,1.1-1.1c4-0.2,4.7,0.8,4.5,4.4
		c0,0.9,0,1.8,0,2.7C88.8,183.4,88.6,184.1,88.4,184.9z M85.5,183.9c0.7,0.1,1.2,0,1.2-0.8c0-1.6,0-3.1,0-4.7c0-0.8-0.5-1-1.2-0.8
		C85.5,179.7,85.5,181.8,85.5,183.9z"/>
	<path class="st0" d="M42.4,183.4c0,2.2,0,4.4,0,6.5c0,1.6-0.9,2.5-2.6,2.6c-1.7,0.1-2.9-0.8-2.9-2.4c-0.1-4.5,0-9,0-13.5
		c0-0.3,0.5-0.8,0.7-0.8c0.5,0,1,0.3,1.3,0.6c0.2,0.3,0.2,0.9,0.2,1.4c0,3.8,0,7.6,0,11.3c0,0.3-0.1,0.7,0.1,1
		c0.1,0.3,0.4,0.4,0.6,0.6c0.2-0.2,0.5-0.4,0.6-0.7c0.1-0.2,0-0.6,0-0.9c0-3.9,0-7.8,0-11.7c0-0.4-0.1-0.9,0.1-1.1
		c0.3-0.3,0.9-0.5,1.3-0.6c0.2,0,0.6,0.6,0.6,0.9C42.4,178.9,42.4,181.1,42.4,183.4z"/>
	<path class="st0" d="M71.1,183.4c0-2.2,0-4.4,0-6.7c0-0.5-0.1-1,0.7-1.1c0.7,0,1.2,0.2,1.3,1c0,0.3,0,0.7,0,1c0,3.9,0,7.7,0,11.6
		c0,0.3-0.1,0.6,0,0.9s0.4,0.4,0.6,0.6c0.2-0.2,0.5-0.4,0.6-0.6c0.1-0.3,0.1-0.6,0.1-1c0-3.7,0-7.5,0-11.2c0-0.4,0-0.9,0.1-1.3
		c0.1-0.8,0.6-0.9,1.3-0.8c0.7,0,0.8,0.5,0.8,1c0,2.1,0,4.2,0,6.3c0,2.2,0,4.4,0,6.7c0,1-0.3,2-1.3,2.5c-1.1,0.5-2.2,0.5-3.2-0.1
		c-0.8-0.4-1.1-1.1-1-2C71.1,187.8,71.1,185.6,71.1,183.4z"/>
	<path class="st0" d="M24.6,184c0-1.9,0-3.9,0-5.8c0-1.8,1-2.7,2.8-2.7s2.8,0.9,2.8,2.8c0,1.3,0,2.6,0,3.9c0,0.6,0.1,1.3-0.9,1.3
		c-0.9,0-1.2-0.5-1.2-1.3c0-1.2,0-2.4,0-3.6c0-0.5,0.1-1.2-0.6-1.1c-0.3,0-0.6,0.7-0.6,1.1c0,3.7,0,7.4,0,11c0,0.5-0.1,1.2,0.7,1.1
		c0.3,0,0.6-0.7,0.6-1.2c0.1-1.1,0.1-2.3,0-3.4c0-0.9,0.3-1.3,1.2-1.3c1,0,0.9,0.6,0.9,1.2c0,1.3,0,2.6,0,3.9c0,1.6-0.9,2.5-2.6,2.6
		c-1.7,0.1-2.9-0.9-2.9-2.5C24.6,188,24.6,186,24.6,184L24.6,184z"/>
	<path class="st0" d="M117,184c0-1.9,0-3.9,0-5.8c0-1.8,1-2.8,2.8-2.8s2.8,0.9,2.8,2.7c0,1.3,0,2.7,0,4c0,0.6,0,1.2-0.9,1.2
		c-0.8,0-1.2-0.4-1.2-1.2c0-1.2,0-2.5,0-3.7c0-0.5,0.1-1.2-0.6-1.1c-0.3,0-0.6,0.7-0.6,1.1c0,3.7,0,7.4,0,11c0,0.4,0.4,0.8,0.6,1.2
		c0.2-0.4,0.6-0.8,0.6-1.2c0.1-1.2,0-2.3,0-3.5c0-0.9,0.5-1.2,1.3-1.2c0.9,0,0.8,0.6,0.8,1.2c0,1.3,0,2.6,0,3.9c0,1.7-1,2.6-2.7,2.6
		s-2.8-0.9-2.8-2.6C117,187.9,117,186,117,184z"/>
	<path class="st0" d="M100.5,190.9c0,0.6,0.3,1.4-0.8,1.4c-0.9,0-1.2-0.5-1.3-1.4c-0.1-0.5,0.4-1.3-0.5-1.5c-0.1,0-0.4,0.9-0.5,1.4
		c-0.1,0.7-0.2,1.3-1,1.4s-1.2-0.1-1.1-1.1c0.5-4.8,1-9.7,1.5-14.5c0.1-0.9,0.5-1,1.2-1c0.8,0,1.2,0.1,1.3,1
		C99.6,181.4,100.1,186.1,100.5,190.9z M97.8,187.4c0.1,0,0.3,0,0.4,0c-0.1-1.5-0.2-2.9-0.2-4.4c-0.1,0-0.1,0-0.2,0
		C97.8,184.5,97.8,185.9,97.8,187.4z"/>
	<path class="st0" d="M199.7,190.7c0,1.4-0.2,1.8-1.2,1.5c-0.4-0.1-0.7-0.6-0.9-1s0-0.9-0.1-1.3c0-0.2-0.3-0.3-0.4-0.5
		c-0.2,0.2-0.5,0.3-0.5,0.5c-0.1,0.5-0.1,0.9-0.2,1.4c-0.1,0.9-0.7,1.1-1.5,1s-0.6-0.7-0.5-1.3c0.4-4.1,0.8-8.2,1.2-12.3
		c0.1-0.5,0.1-1.1,0.2-1.6c0.1-1.2,0.8-1.7,1.9-1.3c0.3,0.1,0.5,0.5,0.5,0.8c0.4,3.9,0.8,7.8,1.1,11.7
		C199.5,189.1,199.6,189.9,199.7,190.7z M197.1,182.3c-0.1,1.1-0.2,1.9-0.3,2.7c0,0.8,0,1.6,0,2.4c0.2,0,0.3,0,0.5,0
		C197.3,185.8,197.2,184.2,197.1,182.3z"/>
	<path class="st0" d="M151.5,190.8c0.4-4.7,0.9-9.5,1.3-14.2c0.1-1,0.7-0.9,1.4-0.9s1,0.2,1.1,1c0.5,4.9,1,9.7,1.4,14.6
		c0,0.3-0.4,1-0.5,0.9c-0.5-0.1-1.1-0.2-1.4-0.6c-0.3-0.4-0.1-1.1-0.3-1.6c-0.1-0.2-0.3-0.4-0.5-0.6c-0.2,0.2-0.4,0.4-0.4,0.7
		c-0.1,0.2,0,0.4,0,0.6c-0.1,1.2-0.4,1.6-1.3,1.6C151.5,192.2,151.4,192.1,151.5,190.8z M154.1,182.5c-0.1,0-0.1,0-0.2,0
		c0,1.6,0,3.3,0,4.9c0.1,0,0.3,0,0.4,0C154.3,185.8,154.2,184.1,154.1,182.5z"/>
	<path class="st0" d="M185.6,185.7c0.2-2.8,0.3-5.6,0.5-8.4c0.1-1.3,0.4-1.7,1.4-1.7c0.6,0,0.9,0.3,0.8,0.9
		c-0.4,3.9-0.8,7.7-1.1,11.6c-0.1,1.1-0.3,2.2-0.3,3.2c0,0.8-0.6,0.9-1.2,0.9c-0.6,0-1.3,0-1.3-0.9c-0.4-3.9-0.7-7.7-1.1-11.6
		c-0.1-1-0.2-2-0.3-3c-0.1-0.5-0.1-1,0.6-1.1c0.7-0.1,1.3,0.1,1.4,0.9c0.1,1.2,0.2,2.3,0.3,3.5C185.3,181.9,185.4,183.8,185.6,185.7
		C185.5,185.7,185.5,185.7,185.6,185.7z"/>
	<path class="st0" d="M143.1,177.6c0,1.9,0,3.6,0,5.3c0.6,0.7,2.2-0.4,2,1.2c-0.1,1.2-1.2,0.8-2,1c0,1.8,0,3.5,0,5.4
		c0.4,0,0.8,0,1.2,0.1c0.6,0,1,0.3,1.1,1c0,0.8-0.5,0.8-1,0.8c-0.8,0-1.7,0-2.5,0s-1-0.3-1-1.1c0-4.8,0-9.7,0-14.5
		c0-0.7,0.2-1.1,1-1c0.8,0,1.7-0.1,2.5,0c0.4,0,0.7,0.4,1,0.7c-0.3,0.4-0.5,0.9-0.9,1.1C144.2,177.6,143.7,177.5,143.1,177.6z"/>
	<path class="st0" d="M166.4,177.6c0,2.7,0,5.4,0,8c0,1.7,0,3.5,0,5.2c0,0.8-0.1,1.4-1.1,1.4s-1.1-0.6-1.1-1.4c0-4,0-8,0-12
		c0-0.7,0.1-1.4-0.9-1.5c-0.3,0-0.5-0.7-0.6-1.1c0-0.1,0.5-0.5,0.9-0.5c1.1-0.1,2.1-0.1,3.2,0c0.4,0,1,0.3,1.1,0.6
		c0.2,0.7-0.3,1.1-0.9,1.2C166.9,177.5,166.7,177.6,166.4,177.6z"/>
	<path class="st0" d="M49.1,183.9c0-2.3,0-4.6,0-7c0-0.6-0.1-1.3,0.9-1.3c0.9,0,1.3,0.4,1.3,1.3c0,2.9,0,5.7,0,8.6
		c0,1.3,0,2.5,0,3.8c0,0.9,0.2,1.3,1.1,1.2c0.3,0,0.8,0,0.9,0.2c0.2,0.3,0.3,0.7,0.2,1.1c0,0.2-0.5,0.4-0.7,0.4
		c-0.9,0.1-1.8,0-2.7,0c-0.7,0-1-0.3-1-1.1C49.1,188.8,49.1,186.3,49.1,183.9z"/>
	<path class="st0" d="M63.2,177.6c0,3.5,0,6.9,0,10.3c0,1.2,0.1,2.3,0,3.5c0,0.3-0.6,0.8-0.9,0.8c-0.4,0-0.8-0.4-1.1-0.7
		c-0.2-0.2-0.1-0.6-0.1-1c0-3.9,0-7.8,0-11.7c0-0.4,0-0.8,0-1.2c-0.3-0.1-0.7-0.1-0.8-0.3c-0.3-0.3-0.6-0.7-0.6-1.1
		c0-0.2,0.6-0.6,0.9-0.6c1-0.1,2.1,0,3.2,0c0.5,0,1.1-0.1,1.1,0.7c0,0.7-0.3,1-0.9,1.1C63.7,177.5,63.5,177.6,63.2,177.6z"/>
	<path class="st0" d="M176.3,183.9c0,2.4,0,4.8,0,7.2c0,0.7-0.2,1.2-1,1.2s-1.1-0.4-1.1-1.2c0-4.7,0-9.4,0-14.1c0-0.3,0-0.7,0.2-0.8
		c0.4-0.3,0.9-0.5,1.4-0.5c0.1,0,0.5,0.6,0.5,0.9C176.3,179,176.3,181.5,176.3,183.9z"/>
</g>
</svg>
