<?xml version="1.0" encoding="utf-8"?>
<!-- Generator: Adobe Illustrator 22.0.0, SVG Export Plug-In . SVG Version: 6.00 Build 0)  -->
<svg version="1.1" id="Layer_1" xmlns="http://www.w3.org/2000/svg" xmlns:xlink="http://www.w3.org/1999/xlink" x="0px" y="0px"
	 viewBox="0 0 644.4 1089" style="enable-background:new 0 0 644.4 1089;" xml:space="preserve">
<style type="text/css">
	.st0{fill:#FFEA27;}
</style>
<g>
	<g>
		<g>
			<path class="st0" d="M263.3,1068.6c-0.1,0-0.1,0-0.2,0c-79.2-11.2-139.1-92.1-167.9-130.9l-1.8-2.4
				c-19.3-26.1-29.3-69.7-11.1-102.8c16.3-29.5,30.1-61.3,40.9-94.5c10.9-33.3,39.7-57.9,83.3-71.1c3.4-1,7.1,0.9,8.1,4.4
				c1,3.4-0.9,7.1-4.4,8.1c-27.5,8.3-62.7,25.9-74.7,62.6c-11.1,34-25.2,66.6-41.9,96.8c-15.6,28.3-6.7,66,10.1,88.7l1.8,2.4
				c27.7,37.4,85.4,115.3,159.3,125.8h0.1c14.5,2,30.1-0.3,46.6-2.8c13.5-2,27.5-4.1,42.9-4.4c64.3-0.9,108.6-67.9,127-125.1
				c3.2-9.9,6.3-20.5,7.3-31.6c1.5-16.5-1.9-30.5-5.7-46.7c-3.8-15.7-8-33.6-7.9-56c0.2-35.8-25.7-61.3-47.5-76.4
				c-3-2.1-3.7-6.1-1.6-9.1s6.1-3.7,9.1-1.6c34.9,24.2,53.3,54.3,53.1,87.2c-0.1,20.9,3.8,37.2,7.6,52.9c4,16.6,7.7,32.4,6,51
				c-1.1,12.3-4.4,23.8-7.8,34.4c-19.7,61.3-68,133.1-139.3,134.1c-14.5,0.2-28.1,2.2-41.2,4.2
				C296.2,1068.4,279.7,1070.9,263.3,1068.6z"/>
		</g>
		<path class="st0" d="M304.9,899.8c22.3,19.7,36.1,21.2,58.1,6.1c8-5.5,9.6-11.2,4.9-20.2c-2.8-5.4-2.3-12.6-3.8-21.7
			c23.5,10.3,31,40.7,12.6,53.2c-13.1,9-28.5,15.9-43.8,19.9c-7.2,1.9-20.1-3.1-24.3-9.1C303.8,921,305.8,909.4,304.9,899.8z"/>
		<path class="st0" d="M421.7,917.3c19.7,9,27.3-3.1,36.6-13.9c-3.1-2.1-5.8-4-11-7.6c5.7-2.2,12.2-6.3,13.7-4.9
			c5.1,4.6,12.3,11.6,11.7,16.8c-1.6,13.8-7.3,27.5-23,30.9c-7.5,1.6-17.2,1.3-23.5-2.3C422.3,934.1,423.1,924,421.7,917.3z"/>
		<path class="st0" d="M347.9,1000.5c33.8,4.5,45.6,3.6,38.5-30.5c10.2,4.7,14.3,12.9,11.4,24.5c-3.5,14.2-12.5,23.5-27.2,24.8
			C358.9,1020.4,350.4,1015,347.9,1000.5z"/>
		<path class="st0" d="M240.4,1012.7c27.5,20.2,38.3,25,48.5-8.3c6.7,9,6.3,18.2-1.8,27c-9.9,10.8-22.3,14.6-35.8,8.7
			C240.5,1035.4,235.7,1026.6,240.4,1012.7z"/>
		<path class="st0" d="M412.6,815c34.1-0.3,45.6-2.9,33.8-35.7c10.8,3.2,16,10.8,14.8,22.7c-1.5,14.5-9.1,25-23.4,28.4
			C426.3,833.2,417.2,829,412.6,815z"/>
		<path class="st0" d="M290.8,982.8c-0.6-13.6,0.1-24.7,14.8-26.4c2.3-0.3,7.9,6,7.8,9C312.8,978.1,304.9,983.4,290.8,982.8z"/>
		<path class="st0" d="M190.7,984.1c-4-13-6.1-23.9,7.7-29.3c2.2-0.9,9.2,3.8,9.8,6.8C210.8,974.1,204.5,981.2,190.7,984.1z"/>
		<path class="st0" d="M404.4,870.8c-0.5-11.2,0.1-20.4,12.3-21.8c1.9-0.2,6.5,4.9,6.4,7.4C422.6,867,416,871.3,404.4,870.8z"/>
		<path class="st0" d="M408.2,976.9c3.8-5.2,7.6-10.5,11.5-15.7c2.3,3.1,7.2,7.9,6.5,8.9c-3.2,4.7-8,8.4-12.2,12.4
			C412,980.6,410.1,978.8,408.2,976.9z"/>
		<path class="st0" d="M250.9,939.7c3.8-5.2,7.6-10.5,11.5-15.7c2.3,3.1,7.2,7.9,6.5,8.9c-3.2,4.7-8,8.4-12.2,12.4
			C254.8,943.4,252.8,941.5,250.9,939.7z"/>
		<path class="st0" d="M184.5,930.4c3.8-5.2,7.6-10.5,11.5-15.7c2.3,3.1,7.2,7.9,6.5,8.9c-3.2,4.7-8,8.4-12.2,12.4
			C188.3,934.1,186.4,932.2,184.5,930.4z"/>
	</g>
	<g>
		<g>
			<path class="st0" d="M622.9,625.3c-3.8-5-7.7-7.4-12.9-8.9c1.6-4.8,6.9-21.3,8.4-40.5c1.3-15.9,0-33.7-8.1-48.2
				c-0.8-1.3-1.6-2.7-2.5-4c-0.1-0.2-0.2-0.3-0.3-0.4c-0.1-0.1-0.2-0.3-0.3-0.4c-9.7-13.7-27-25.6-43.6-34.7c-0.9-0.5-1.8-1-2.7-1.5
				l0,0c-15.4-8.2-29.8-13.9-36.8-16.5l36-93.1c2.3-4.9,3.6-10.3,3.6-15.7l-0.3-42.7v-1.2c0.1-8.1,0.2-14.5-11.1-17.7l-90.4-25.6
				c-2.2-0.6-4.6,0.7-5.2,2.9c0,0.1-0.1,0.2-0.1,0.2c-0.5,2.2,0.8,4.4,3,5l90.3,25.6c5,1.4,5,1.7,4.9,9.5l0.3,44
				c0,4.2-1,8.3-2.8,12.2l-37.8,97.2c-0.1,0.2-0.1,0.3-0.2,0.5l-12.9,29.1l-76.1,171.4c-1.3,2.7-4.3,4.2-7.2,3.6H418l-121.9-28.3
				l-15-3.5l-0.9-0.2c-0.1,0-0.2,0-0.3-0.1l-77.6-18l13.8-191c0-0.1,0-0.3,0-0.4l3.2-44.5l6-82.5c0.2-2.8,1-5.4,2.1-7.8l21.2-39.4
				c2.7-5.3,8.3-8.5,14.1-8.1l68,5.8c2.3,0.2,4.4-1.5,4.6-3.9c0-0.1,0-0.2,0-0.3c0-2.2-1.6-4.1-3.9-4.2l-6.2-0.5l-61.9-5.3
				c-9.3-0.6-18.1,4.4-22.2,12.6l-21.2,39.4c-1.8,3.5-2.8,7.2-3.1,11.1l-5.7,78.8c-10.9-0.1-22.1-0.2-33.5-0.6c-0.1,0-0.2,0-0.4,0
				c-5.9-0.2-11.9-0.4-17.9-0.8c-11.5-0.6-24.1-1.3-35.2-5.7c-3.7-1.5-7.2-3.3-10.5-5.8c-7.5-5.6-12.3-13.4-15.3-21.8
				c-3.3-9-4.5-18.7-4.8-27.3c1.2,0.3,2.3,0.6,3.5,0.9c5.5,1.2,10.6,1,16.2-1.5c17-7.8,24.9-29.1,30.8-51
				c7.8-28.9-23.3-46.7-40.9-52.1c-1.2-0.4-2.5-0.2-3.5,0.4c-1,0.6-1.8,1.7-2,2.9l-3.9,24.5c-0.2,1.5,0.3,2.9,1.5,3.9
				c6.3,5.3,9.2,10.5,8.7,15.3c-0.6,5.2-4.9,9.5-8.2,12c-3.3-5.7-9-10.1-15.9-11.6c-7.8-1.7-15.7,0.4-21.5,5.5
				c-3.7-2.5-8.9-7.1-8.8-11.8c0.1-4.6,5.5-9.7,15.3-14.4c0.9-0.5,1.7-1.2,2.1-2.2l10.4-25c0.6-1.3,0.4-2.8-0.4-4s-2.1-1.9-3.5-1.9
				c-2.4,0-58.6,0.1-60.5,37.4c-1,19.2,3.1,46.4,17.9,59.9c3.3,3,6.3,4.6,9.4,5.2c3.5,0.7,7,0.3,11.1-0.2c0,0.2-0.1,0.4-0.1,0.6
				c-0.3,16.7,0.9,31.2,3.7,44c0.5,2.3,1,4.5,1.6,6.7c4.4,15.9,12,29.3,22,38.8c7.6,7.2,16.3,12.1,25.4,15.8c7.4,3,15,5.1,22.5,7
				c2.6,0.6,5.1,1.2,7.8,1.8c12.4,2.6,25.8,4.5,40.7,5.6c0.1,0,0.3,0,0.4,0c1.7,0.1,3.4,0.2,5.2,0.4c5.5,0.3,11.1,0.6,16.6,0.8
				l4.1,0.2c0.9,0.1,1.8,0,2.7,0.1c1.1,0,2.3,0,3.4,0.1l-13.8,191.1c-0.1,2.1,1.2,4,3.3,4.4l77.4,18l-19.5,95.9
				c-1.4,6.8,3,13.6,9.8,15.1l2.1,0.5l-4.4,20c-1.9,8.5,3.9,17.2,13.1,19.9l18.2,5.2c0.4,0.1,0.9,0.2,1.3,0.3
				c8.9,1.9,17.6-2.6,20.3-10.5l6.3-18.8l5-14.7l7.2-21.5l5-14.9l6.2-18.4c1.3-4,1-8.4-1.1-12.3c-2.3-4.4-6.5-7.7-11.6-9.2
				l-27.9-7.9c-4.4-1.2-9.1-0.9-13,0.9l5.9-24.3l118.8,27.6c0.1,0,0.2,0,0.3,0.1c6.7,1.4,13.7-2,16.7-8.4l74.4-167.5
				c7.3,3.3,23.1,10.7,33.3,15.9c3.4,1.7,6.2,3.2,7.9,4.3c4.4,2.7,12.6,8.8,18.6,18.5c3.5,5.8,6.2,12.8,6.9,21.3
				c0.2,2.9,0.3,5.7,0.1,8.4c-0.8,13.7-6.1,24.7-8.6,29.2c-4.6-0.7-8.8-0.4-13.6,1.9c-15.7,7.5-25.5,26.5-29.4,41.9
				c-1.9,7.8-0.9,14.9,3,21.2c9.1,14.6,30.8,19.4,31.8,19.6c1.2,0.3,2.4,0,3.3-0.7c1-0.7,1.6-1.7,1.8-2.9l2.7-19.7
				c0.2-1.3-0.2-2.6-1.2-3.5c-3.7-3.8-7.8-9.2-6.6-13.6c0.9-3.4,4.7-5.8,7.8-7.3c0.1,0.2,0.2,0.3,0.3,0.5c2.7,5.1,7.1,8.8,12.6,10.5
				c0.7,0.2,1.3,0.4,2,0.5c4.9,1,9.9,0.3,14.3-2c0.3-0.2,0.7-0.4,1-0.5c1.7,3.8,3.4,9,1.7,12.5c-1.3,2.8-4.9,4.6-10.6,5.2
				c-1.5,0.2-2.8,1.1-3.4,2.5l-8.3,18.5c-0.5,1.2-0.5,2.5,0.1,3.6s1.6,2,2.8,2.3c0.1,0,0.5,0.1,1.2,0.3c5.1,1.1,24.8,4.5,38.4-3.8
				c6.3-3.9,10.4-9.6,12.2-17.2C634,654.9,631.7,636.8,622.9,625.3z M50.9,306.9c-7.4,1-9.8,1.3-14.2-2.7
				c-11.8-10.8-16.1-34.5-15.1-53.2c1.1-22.8,31.8-27.9,45.4-29l-7.2,17.3c-12.3,6.2-18.6,13.3-18.7,21.2
				C41,269.2,48.2,275.7,53,279c-1.2,2.1-2,4.3-2.5,6.6c-1.7,7.6,0.4,15.1,4.9,20.8C53.7,306.5,52.2,306.7,50.9,306.9z M88.9,310.9
				c4.8-3.4,8.3-8.6,9.6-14.7c0.7-3.2,0.8-6.4,0.2-9.5c4.4-3,12.6-9.7,13.6-19.3c0.8-7.3-2.5-14.4-9.8-21.2l2.7-17.1
				c10.9,4.4,36.6,17.5,30.6,40.1c-5.1,18.9-12.2,39.1-26.1,45.5c-6.3,2.9-11.6,1.3-22.4-2.8C87.9,311.6,88.4,311.3,88.9,310.9z
				 M69.4,313.3c-0.1,0-0.1,0.1-0.2,0.1l-0.1-0.1H69.4z M62.1,352.2c-1.6-9.4-2.4-19.8-2.4-31.4l25.4,2.8c0.3,7.1,1.1,15,3.2,22.8
				C77,344.8,67.6,348.9,62.1,352.2z M128.5,419.9c-6-1.5-12.2-3.2-18.1-5.4c1.1-5.9,4.3-19.4,13.3-27.8c11.7,4,24.4,4.7,35.2,5.3
				c4.1,0.2,8.2,0.4,12.3,0.5c-5.3,14.7-3.8,26.9-1.9,34C154.3,425.2,140.9,423,128.5,419.9z M288.9,653.9l-17,70.4l-4.3,17.9
				l-2.4,10.5c-1.6-0.9-2.5-2.8-2.1-4.7l19.4-95.7l0,0L288.9,653.9L288.9,653.9z M315.6,769c-4.4-3.7-11.1-8.3-17.9-9.2
				c-5.1-0.7-10.9-0.1-15.7,0.3c-2.1,0.2-4.9,0.5-6.4,0.5l1.5-6.8c2.5,0.5,5.7,0.2,9.7-0.2c4.5-0.4,9.6-0.9,13.7-0.4
				c6.1,0.8,13.6,7.1,16.9,10.4L315.6,769z M294.2,716c5.2-0.2,11.1-0.5,16,0.2c7.5,1.2,16,7.7,19.7,10.8l-2.2,6.5
				c-4.9-3.9-13.5-9.7-21.8-11c-5.7-0.9-12.3-0.6-17.7-0.3c-1.3,0.1-2.7,0.1-4.1,0.2l1.4-6.3C287.8,716.3,290.7,716.1,294.2,716z
				 M563.9,626.3c-0.8,2.4-1.1,4.9-0.9,7.4c-4.5,1.8-11.8,5.9-13.9,13.3c-1.7,6.3,0.7,13.1,7.3,20.3l-1.8,12.9
				c-6.1-2-16.9-6.5-21.9-14.5c-2.7-4.4-3.3-9.1-1.9-14.6c4.3-16.9,14-31.2,24.8-36.3c3.6-1.7,6.7-1.8,11.2-0.7
				c1.4,0.4,3,0.8,4.8,1.4C568.1,618.2,565.3,621.9,563.9,626.3z M571,537c-6.3-8.4-13.7-13.7-18-16.4c-1.3-0.8-3.2-1.9-5.5-3.1
				c0.7-11.4,8.7-18.6,12.7-21.5c13.3,7.3,26.8,16.3,35.8,26.4C588.8,524,578.2,527.7,571,537z M603,610.5
				c-6.5-2.5-17.9-6.4-27.3-6.5c2.8-6,5.9-14.9,6.8-25.6c5.2-3.8,13.4-3.4,20.2-2c2.6,0.6,5,1.3,6.9,1.9
				C608.1,592.3,604.9,604.4,603,610.5z M621.1,672.9c-1.2,5.3-4,9.2-8.3,11.8c-8.6,5.2-21.1,4.5-28.1,3.5l5.1-11.4
				c7.5-1.3,12.5-4.6,14.9-9.8c3.7-7.9-0.4-17.4-2.9-22c1.3-1.8,2.3-3.8,3-6c1.6-5.2,1.2-10.7-1.1-15.6c6.2,1.3,9.4,2.7,12.6,7
				C623.3,639.8,625.1,655.7,621.1,672.9z"/>
			<path class="st0" d="M563.5,488.1c-0.9-0.5-1.8-1-2.7-1.5C561.9,486.8,562.9,487.3,563.5,488.1z"/>
			<path class="st0" d="M512.3,392.8c-2.8-6.1-7.8-10.5-14-12.7c-50.7-17.1-95-28.7-131.5-36.4c-49-10.4-84-13.9-101.4-15.1
				c-9.4-0.7-17.5,6.2-18.4,15.6l-25.7,263.4c-0.2,2.1,1.2,4.1,3.3,4.5l186.8,41.2l0,0c2,0.4,4.1-0.7,4.8-2.6l96.5-239
				C515.2,405.7,515,398.8,512.3,392.8z M292.2,413.4c15.8-8.9,36-3.1,44.8,12.7c0.7,1.3,0.9,2.9,0.5,4.3c-0.4,1.5-1.4,2.7-2.7,3.4
				l-18.9,10.5l10.5,18.9c0.7,1.3,0.9,2.9,0.5,4.3s-1.4,2.7-2.7,3.4c-7.2,4-15.3,5.1-22.8,3.4c-9-1.9-17.1-7.5-22-16.1
				C270.7,442.4,276.4,422.3,292.2,413.4z M386.5,574.9c-14.2,11.5-24.9,10-30.7,9.1c-0.7-0.1-1.2-0.2-1.8-0.2
				c-3.3-0.3-8.3-1.1-12.4-4.3s-5.7-7.6-7-11.1c-0.5-1.5-1-2.8-1.6-4c-3.5-6.5-13.5-3.3-27.4,1.9c-7.5,2.8-14.5,5.4-20.2,5.2
				c-1.3,0-2.6-0.2-3.8-0.5c-5.2-1.1-9.2-4-11.7-8.4c-4.5-8.1-2.4-18.8,1.7-25.9c5.5-9.6,16.2-14.1,26-10.9c3,1,4.6,4.2,3.6,7.1
				c-1,3-4.1,4.6-7.1,3.7c-5.5-1.8-10.4,1.7-12.7,5.8c-2.9,5-3.5,11.3-1.6,14.8c0.7,1.2,2,2.9,6,3.1c3.4,0.1,9.7-2.2,15.8-4.5
				c13.9-5.2,33-12.4,41.4,3.3c1,1.8,1.7,3.7,2.3,5.4c1.1,3,1.9,4.9,3.3,6.1c1.3,1,3.5,1.7,6.5,1.9c0.7,0.1,1.5,0.2,2.4,0.3
				c4.9,0.7,11.5,1.7,21.9-6.7c2.4-2,6-1.6,7.9,0.8C389.4,569.4,389,572.9,386.5,574.9z M402.4,563.8l-1.5,1.3
				c-1.4,1.2-3.2,1.7-4.9,1.3c-1.2-0.3-2.2-0.8-3.1-1.8c-2.1-2.3-1.9-5.9,0.5-8l1.5-1.3c2.4-2.1,5.9-1.9,8,0.5
				S404.8,561.7,402.4,563.8z M444.4,460.7c-0.4,1.5-1.4,2.7-2.7,3.4l-18.9,10.5l10.5,18.9c1.5,2.7,0.5,6.2-2.2,7.7
				c-7.2,4-15.3,5-22.8,3.4c-9-1.9-17.1-7.5-22-16.1c-4.2-7.6-5.3-16.5-2.9-25s7.9-15.5,15.6-19.8c15.8-8.9,35.9-3.1,44.8,12.7
				C444.6,457.7,444.8,459.3,444.4,460.7z"/>
			<path class="st0" d="M440,307.3c-0.4-2.6-1.8-4.7-2.9-6.3l-0.3-0.5c-3.9-6.1-5.5-14.9-6.6-21.3c-0.6-3.5-1.1-7-1.5-10.4
				c-0.5-4.7-0.9-9.4-1.3-13.9c-1.2-14.8-1.7-32,3.3-46.8c1.6-4.7,7-8.4,10.9-10.8c7.6-4.7,13-12.6,15-21.7c2-9.3,0.2-18.8-4.9-26.3
				c-4.5-6.6-11.3-10.9-18.9-12.1c-15.3-2.4-30.3,8.7-34.2,25.2c-2.1,8.8-0.7,18.2,3.9,25.5c2.6,4.3,6.4,12.5,6.4,14.6
				c0.1,3.1-0.3,6.3-1.1,9.9c-0.5,2.3-1.1,4.7-1.9,7.1l-0.1,0.3c-2.7,8.4-6.9,17-13.6,27.7c-2.6,4.2-5.2,8.2-7.9,12.1
				c-3.5,5.1-7.1,10-10.8,14.5c-2.5,3.1-5.1,6.4-8.4,8.7c-0.3,0.2-0.7,0.5-1.1,0.7c-3,2-7.1,4.7-7.9,9.7c-0.3,2.1,0,4.5,1.1,6.8
				c3.2,7.1,10.4,11.8,15.5,14.8c6,3.5,13.1,6.1,21.1,7.8c0.1,0,0.2,0,0.3,0.1c2.9,0.6,5.9,1.1,8.8,1.4c11.7,1.2,23.8,1.2,32.9-6.9
				c0.9-0.8,3.6-3.2,4.2-6.8C440.2,309.3,440.2,308.3,440,307.3z M429.7,182.4L429.7,182.4c-7.3-1.6-11.9-8.8-10.3-16
				s8.7-11.9,15.9-10.3h0.1c3.5,0.8,6.5,2.8,8.5,5.8s2.6,6.6,1.9,10.1c-0.8,3.5-2.8,6.5-5.9,8.5S433.2,183.2,429.7,182.4z"/>
			<path class="st0" d="M296,646.9l-15-3.5l14,3.1C295.3,646.6,295.7,646.7,296,646.9z"/>
			<polygon class="st0" points="288.9,653.9 288.9,653.9 282.4,652.5 282.4,652.4 			"/>
			<path class="st0" d="M69.4,313.3c-0.1,0-0.1,0.1-0.2,0.1l-0.1-0.1H69.4z"/>
		</g>
		<g>
			<path class="st0" d="M354.9,222.5c-1.6-0.2-3-1-4.1-2.4c-14.9-20.3-21.2-45.2-17.6-70.2c7.5-52,55.8-88.4,107.8-81.1
				c0.1,0,0.2,0,0.4,0.1c25.3,3.6,47.6,16.9,62.9,37.3c15.3,20.4,21.7,45.6,18.1,70.9c-3.5,24.7-16.3,46.7-36,62
				c-2.7,2.1-6.5,1.6-8.5-1.1c-2.1-2.7-1.6-6.5,1.1-8.5c17.2-13.3,28.4-32.5,31.5-54.1c3.2-22.1-2.4-44-15.8-61.9
				c-13.4-17.8-32.9-29.4-54.9-32.6c-0.1,0-0.2,0-0.3,0c-22-3.1-43.8,2.6-61.5,15.9c-17.8,13.4-29.4,32.9-32.6,54.9
				c-3.1,21.8,2.3,43.5,15.3,61.3c2,2.7,1.4,6.5-1.3,8.5C358.1,222.4,356.5,222.7,354.9,222.5z"/>
		</g>
		<g>
			<path class="st0" d="M542.6,234c-0.8-0.1-1.6-0.4-2.3-0.8c-2.9-1.7-3.8-5.5-2.1-8.3c8.7-14.5,14.3-30.4,16.7-47.3
				c4.8-33.8-3.7-67.4-24.2-94.7c-20.4-27.3-50.3-45-84.1-49.9c-0.2,0-0.3,0-0.5-0.1c-33.6-4.7-67,3.9-94.2,24.3
				c-27.3,20.4-45,50.3-49.9,84.1c-2.5,17.2-1.5,34.4,3,51.1c0.9,3.2-1.1,6.6-4.3,7.4c-3.2,0.9-6.6-1.1-7.4-4.3
				c-4.9-18.2-6-37.1-3.3-55.9c5.3-37,24.7-69.7,54.6-92.1c29.8-22.3,66.4-31.7,103.2-26.6c0.2,0,0.4,0,0.5,0.1
				c37,5.3,69.7,24.7,92.1,54.6s31.8,66.7,26.5,103.7c-2.7,18.5-8.8,35.9-18.3,51.8C547.3,233.2,544.9,234.3,542.6,234z"/>
		</g>
	</g>
</g>
</svg>
