<?xml version="1.0" encoding="utf-8"?>
<!-- Generator: Adobe Illustrator 22.0.0, SVG Export Plug-In . SVG Version: 6.00 Build 0)  -->
<svg version="1.0" xmlns="http://www.w3.org/2000/svg" xmlns:xlink="http://www.w3.org/1999/xlink" x="0px" y="0px"
	 viewBox="0 0 661.8 661.9" style="enable-background:new 0 0 661.8 661.9;" xml:space="preserve">
<style type="text/css">
	.st0{fill:#2D1A46;}
	.st1{fill:#FFEA27;}
	.st2{fill:none;stroke:#FFFFFF;stroke-miterlimit:10;}
	.st3{fill:#1A4634;}
	.st4{fill:#FFFBD1;}
	.st5{fill:#FF2727;}
	.st6{opacity:0.75;fill:#1A1A1A;}
	.st7{fill:#CCCCCC;}
	.st8{fill:#FFFFFF;}
	.st9{fill:#210C35;}
	.st10{fill:none;stroke:#2D1A46;stroke-width:6;stroke-miterlimit:10;}
	.st11{fill-rule:evenodd;clip-rule:evenodd;fill:#2D1A46;}
	.st12{fill-rule:evenodd;clip-rule:evenodd;fill:#FFFFFF;}
	.st13{fill:none;stroke:#2D1A46;stroke-width:21;stroke-linecap:round;stroke-linejoin:round;stroke-miterlimit:10;}
	.st14{clip-path:url(#SVGID_16_);fill:#FFEA27;}
	.st15{clip-path:url(#SVGID_16_);}
	.st16{fill:none;stroke:#FFEA27;stroke-width:5;stroke-linecap:round;stroke-linejoin:round;}
	.st17{fill:none;stroke:#FFEA27;stroke-width:5;stroke-linecap:round;stroke-linejoin:round;stroke-dasharray:11.8957,11.8957;}
	.st18{fill:none;stroke:#FFEA27;stroke-width:5;stroke-linecap:round;stroke-linejoin:round;stroke-dasharray:13.9813,13.9813;}
	.st19{fill:none;stroke:#FFEA27;stroke-width:5;stroke-linecap:round;stroke-linejoin:round;stroke-dasharray:11.5079,11.5079;}
	.st20{fill:none;stroke:#FFEA27;stroke-width:5;stroke-linecap:round;stroke-linejoin:round;stroke-dasharray:12.0138,12.0138;}
	.st21{fill:none;stroke:#FFEA27;stroke-width:5;stroke-linecap:round;stroke-linejoin:round;stroke-dasharray:12.3813,12.3813;}
	.st22{fill:none;stroke:#FFEA27;stroke-width:5;stroke-linecap:round;stroke-linejoin:round;stroke-dasharray:11.4781,11.4781;}
	.st23{fill:none;stroke:#FFEA27;stroke-width:5;stroke-linecap:round;stroke-linejoin:round;stroke-dasharray:15.1875,15.1875;}
	.st24{fill:none;stroke:#FFEA27;stroke-width:5;stroke-linecap:round;stroke-linejoin:round;stroke-dasharray:12.1437,12.1437;}
	.st25{fill:none;stroke:#FFEA27;stroke-width:5;stroke-linecap:round;stroke-linejoin:round;stroke-dasharray:15.1677,15.1677;}
	.st26{fill:none;stroke:#FFEA27;stroke-width:5;stroke-linecap:round;stroke-linejoin:round;stroke-dasharray:11.6708,11.6708;}
	.st27{fill:none;stroke:#FFEA27;stroke-width:5;stroke-linecap:round;stroke-linejoin:round;stroke-dasharray:12.051,12.051;}
	.st28{fill:none;stroke:#FFEA27;stroke-width:5;stroke-linecap:round;stroke-linejoin:round;stroke-dasharray:12.1369,12.1369;}
	.st29{fill:none;stroke:#FFEA27;stroke-width:5;stroke-linecap:round;stroke-linejoin:round;stroke-dasharray:12.4807,12.4807;}
	.st30{fill:none;stroke:#FFEA27;stroke-width:5;stroke-linecap:round;stroke-linejoin:round;stroke-dasharray:12.0995,12.0995;}
	.st31{fill:none;stroke:#FFEA27;stroke-width:5;stroke-linecap:round;stroke-linejoin:round;stroke-dasharray:12.1146,12.1146;}
	.st32{fill:none;stroke:#FFEA27;stroke-width:5;stroke-linecap:round;stroke-linejoin:round;stroke-dasharray:9.5969,9.5969;}
	.st33{fill:none;stroke:#FFEA27;stroke-width:5;stroke-linecap:round;stroke-linejoin:round;stroke-dasharray:12.0584,12.0584;}
	.st34{fill:none;stroke:#FFEA27;stroke-width:5;stroke-linecap:round;stroke-linejoin:round;stroke-dasharray:12.0737,12.0737;}
	.st35{fill:none;stroke:#FFEA27;stroke-width:5;stroke-linecap:round;stroke-linejoin:round;stroke-dasharray:12.5656,12.5656;}
	.st36{fill:none;stroke:#FFEA27;stroke-width:5;stroke-linecap:round;stroke-linejoin:round;stroke-dasharray:11.7897,11.7897;}
	.st37{fill:none;stroke:#FFEA27;stroke-width:5;stroke-linecap:round;stroke-linejoin:round;stroke-dasharray:14.3397,14.3397;}
	.st38{fill:none;stroke:#FFEA27;stroke-width:5;stroke-linecap:round;stroke-linejoin:round;stroke-dasharray:13.2142,13.2142;}
	.st39{fill:none;stroke:#FFEA27;stroke-width:5;stroke-linecap:round;stroke-linejoin:round;stroke-dasharray:10.9549,10.9549;}
	.st40{fill:none;stroke:#FFEA27;stroke-width:5;stroke-linecap:round;stroke-linejoin:round;stroke-dasharray:11.9367,11.9367;}
	.st41{fill:none;stroke:#FFEA27;stroke-width:5;stroke-linecap:round;stroke-linejoin:round;stroke-dasharray:6.6597,6.6597;}
	.st42{fill:none;stroke:#FFEA27;stroke-width:5;stroke-linecap:round;stroke-linejoin:round;stroke-dasharray:11.7302,11.7302;}
	.st43{fill:none;stroke:#FFEA27;stroke-width:5;stroke-linecap:round;stroke-linejoin:round;stroke-dasharray:11.6198,11.6198;}
	.st44{fill:none;stroke:#FFEA27;stroke-width:5;stroke-linecap:round;stroke-linejoin:round;stroke-dasharray:9.7352,9.7352;}
	.st45{fill:none;stroke:#FFEA27;stroke-width:5;stroke-linecap:round;stroke-linejoin:round;stroke-dasharray:13.0032,13.0032;}
	.st46{fill:none;stroke:#FFEA27;stroke-width:5;stroke-linecap:round;stroke-linejoin:round;stroke-dasharray:12.097,12.097;}
	.st47{fill:none;stroke:#FFEA27;stroke-width:5;stroke-linecap:round;stroke-linejoin:round;stroke-dasharray:11.9187,11.9187;}
	.st48{clip-path:url(#SVGID_22_);}
	.st49{clip-path:url(#SVGID_24_);}
	.st50{fill:#1F0036;}
	.st51{fill:#FFEB2B;}
	.st52{fill:none;stroke:#2D1A46;stroke-width:7;stroke-miterlimit:10;}
	.st53{clip-path:url(#SVGID_28_);fill:#2D1A46;}
	.st54{clip-path:url(#SVGID_28_);}
</style>
<g id="Fondo_Morado">
</g>
<g id="Colores_fondo">
</g>
<g id="Layer_8">
</g>
<g id="Estrellas_de_Fondo">
</g>
<g id="Logos">
</g>
<g id="Graficos">
</g>
<g id="Letra">
</g>
<g id="Layer_7">
	<g>
		<defs>
			<circle id="SVGID_27_" cx="331" cy="330.9" r="331"/>
		</defs>
		<clipPath id="SVGID_2_">
			<use xlink:href="#SVGID_27_"  style="overflow:visible;"/>
		</clipPath>
		<rect y="-0.1" style="clip-path:url(#SVGID_2_);fill:#2D1A46;" width="662" height="662"/>
		<g style="clip-path:url(#SVGID_2_);">
			<g>
				<g>
					<g>
						<path class="st51" d="M301.7,369.3C301.7,369.3,301.7,369.3,301.7,369.3c-19.5,0-36.6-17.5-44.8-25.8l-0.5-0.5
							c-5.5-5.6-9.4-15.8-6.1-24.4c2.9-7.6,5.2-15.8,6.7-24.1c1.5-8.4,7.6-15.2,17.7-19.9c0.8-0.4,1.7,0,2.1,0.8
							c0.4,0.8,0,1.7-0.8,2.1c-6.3,2.9-14.2,8.3-15.9,17.6c-1.5,8.5-3.8,16.8-6.8,24.7c-2.8,7.3,0.6,16.1,5.4,21l0.5,0.5
							c7.9,8.1,24.4,24.9,42.5,24.9c0,0,0,0,0,0c3.5,0,7.2-1.1,11.1-2.2c3.2-0.9,6.5-1.9,10.2-2.5c15.4-2.4,23.8-20,26.3-34.3
							c0.4-2.5,0.8-5.1,0.7-7.8c-0.2-4-1.5-7.3-2.9-11c-1.4-3.7-3.1-7.8-3.8-13.2c-1.2-8.6-8.2-13.9-14-16.8
							c-0.8-0.4-1.1-1.3-0.7-2.1c0.4-0.8,1.3-1.1,2.1-0.7c9.2,4.6,14.6,11.3,15.7,19.2c0.7,5,2.2,8.8,3.6,12.5
							c1.5,3.9,2.9,7.5,3.2,12c0.1,3-0.3,5.9-0.7,8.5c-2.7,15.4-11.9,34.3-29,36.9c-3.5,0.5-6.7,1.5-9.8,2.4
							C309.6,368.2,305.8,369.3,301.7,369.3z"/>
					</g>
					<path class="st51" d="M306.1,327.4c6,4,9.4,3.9,14.2-0.5c1.7-1.6,1.9-3,0.5-5c-0.9-1.2-1-3-1.6-5.1c6,1.7,8.8,8.7,4.8,12.4
						c-2.9,2.6-6.3,4.8-9.9,6.2c-1.7,0.7-4.9-0.1-6.2-1.4C306.5,332.5,306.6,329.6,306.1,327.4z"/>
					<path class="st51" d="M334.7,327.6c5.1,1.5,6.5-1.7,8.3-4.6c-0.8-0.4-1.5-0.8-2.9-1.5c1.3-0.7,2.7-1.9,3.1-1.6
						c1.4,0.9,3.4,2.4,3.4,3.7c0.1,3.4-0.8,6.9-4.5,8.2c-1.8,0.6-4.1,0.9-5.7,0.2C335.5,331.7,335.3,329.2,334.7,327.6z"/>
					<path class="st51" d="M319.8,350.1c8.3,0,11.1-0.7,8.2-8.6c2.6,0.8,3.9,2.6,3.6,5.5c-0.4,3.5-2.2,6.1-5.7,6.9
						C323.1,354.5,320.9,353.5,319.8,350.1z"/>
					<path class="st51" d="M294.4,356.7c7.3,3.9,10,4.7,11.4-3.6c1.9,1.9,2.1,4.2,0.5,6.6c-2,2.9-4.9,4.3-8.3,3.3
						C295.1,362.1,293.7,360.2,294.4,356.7z"/>
					<path class="st51" d="M329.1,303.4c8.2-1.2,10.9-2.2,6.9-9.7c2.7,0.4,4.2,2,4.3,5c0.1,3.5-1.3,6.3-4.7,7.6
						C333,307.3,330.7,306.6,329.1,303.4z"/>
					<path class="st51" d="M305.5,347.8c-0.6-3.2-0.8-5.9,2.7-6.8c0.6-0.1,2.1,1.2,2.2,1.9C310.6,345.9,308.9,347.5,305.5,347.8z"/>
					<path class="st51" d="M281.5,351.5c-1.4-3-2.3-5.5,0.9-7.3c0.5-0.3,2.3,0.6,2.6,1.3C285.9,348.4,284.7,350.3,281.5,351.5z"/>
					<path class="st51" d="M329,317c-0.5-2.7-0.7-4.9,2.2-5.7c0.5-0.1,1.7,1,1.8,1.6C333.3,315.5,331.8,316.8,329,317z"/>
					<path class="st51" d="M333.5,342.4c0.7-1.4,1.5-2.8,2.2-4.2c0.7,0.7,2,1.7,1.9,1.9c-0.6,1.2-1.6,2.3-2.5,3.4
						C334.5,343.2,334,342.8,333.5,342.4z"/>
					<path class="st51" d="M294.4,338.8c0.7-1.4,1.5-2.8,2.2-4.2c0.7,0.7,2,1.7,1.9,1.9c-0.6,1.2-1.6,2.3-2.5,3.4
						C295.5,339.5,295,339.1,294.4,338.8z"/>
					<path class="st51" d="M278.1,338.8c0.7-1.4,1.5-2.8,2.2-4.2c0.7,0.7,2,1.7,1.9,1.9c-0.6,1.2-1.6,2.3-2.5,3.4
						C279.2,339.5,278.7,339.1,278.1,338.8z"/>
				</g>
				<g>
					<g>
						<path class="st51" d="M373.3,250.7c-1.1-1.1-2.1-1.5-3.4-1.7c0.2-1.2,0.9-5.4,0.7-10c-0.2-3.9-1.1-8.1-3.6-11.3
							c-0.2-0.3-0.5-0.6-0.7-0.9c0,0,0-0.1-0.1-0.1c0,0-0.1-0.1-0.1-0.1c-2.8-3-7.4-5.2-11.7-6.9c-0.2-0.1-0.5-0.2-0.7-0.3
							c0,0,0,0,0,0c-4-1.4-7.6-2.3-9.4-2.7l5.5-23.6c0.4-1.2,0.5-2.6,0.3-3.9l-1.5-10.3l0-0.3c-0.2-2-0.4-3.5-3.3-3.9l-22.6-3.1
							c-0.6-0.1-1.1,0.3-1.2,0.9c0,0,0,0,0,0.1c0,0.5,0.3,1,0.9,1.1l22.6,3.1c1.2,0.2,1.3,0.2,1.5,2.1l1.6,10.6c0.1,1,0,2-0.3,3
							l-5.8,24.6c0,0,0,0.1,0,0.1l-2.1,7.4l-12.5,43.8c-0.2,0.7-0.9,1.2-1.6,1.1h0l-30.3-2.7l-3.7-0.3l-0.2,0c0,0,0,0-0.1,0
							l-19.3-1.7l-3.1-46.4c0,0,0-0.1,0-0.1l-0.7-10.8l-1.3-20c0-0.7,0-1.3,0.3-1.9l3.8-10.2c0.5-1.4,1.7-2.3,3.1-2.4l16.5-0.9
							c0.6,0,1-0.5,1-1.1c0,0,0-0.1,0-0.1c-0.1-0.5-0.5-0.9-1.1-0.9l-1.5,0.1l-15.1,0.8c-2.3,0.2-4.2,1.7-4.9,3.8l-3.8,10.2
							c-0.3,0.9-0.4,1.8-0.4,2.8l1.3,19.1c-2.6,0.3-5.3,0.7-8.1,1c0,0-0.1,0-0.1,0c-1.4,0.2-2.9,0.3-4.3,0.4
							c-2.8,0.2-5.8,0.5-8.6-0.2c-0.9-0.2-1.9-0.6-2.7-1c-2-1.1-3.4-2.8-4.4-4.7c-1.1-2-1.7-4.3-2.1-6.4c0.3,0,0.6,0.1,0.9,0.1
							c1.4,0.1,2.6-0.1,3.8-0.9c3.8-2.4,5-7.8,5.7-13.3c0.9-7.2-7.2-10.4-11.6-11.1c-0.3,0-0.6,0-0.8,0.2c-0.2,0.2-0.4,0.5-0.4,0.8
							l-0.1,6c0,0.4,0.2,0.7,0.5,0.9c1.7,1.1,2.6,2.2,2.6,3.4c0,1.3-0.9,2.4-1.6,3.2c-1-1.3-2.5-2.1-4.2-2.3c-1.9-0.2-3.8,0.6-5,2
							c-1-0.5-2.4-1.4-2.5-2.5c-0.1-1.1,1-2.5,3.2-4c0.2-0.1,0.4-0.4,0.4-0.6l1.7-6.4c0.1-0.3,0-0.7-0.2-0.9
							c-0.2-0.3-0.6-0.4-0.9-0.3c-0.6,0.1-14.1,2-13.3,11c0.4,4.6,2.3,11,6.3,13.8c0.9,0.6,1.7,0.9,2.4,0.9c0.9,0.1,1.7-0.2,2.7-0.4
							c0,0,0,0.1,0,0.1c0.5,4,1.3,7.5,2.4,10.5c0.2,0.5,0.4,1,0.6,1.5c1.6,3.7,3.9,6.6,6.6,8.6c2.1,1.5,4.3,2.4,6.6,2.9
							c1.9,0.5,3.8,0.7,5.6,0.9c0.6,0.1,1.3,0.1,1.9,0.2c3.1,0.2,6.4,0.2,10,0c0,0,0.1,0,0.1,0c0.4,0,0.8-0.1,1.3-0.1
							c1.3-0.1,2.7-0.2,4-0.4l1-0.1c0.2,0,0.4,0,0.7-0.1c0.3,0,0.6-0.1,0.8-0.1l3.1,46.4c0,0.5,0.4,0.9,0.9,1l19.2,1.7l-1.5,23.7
							c-0.1,1.7,1.2,3.2,2.9,3.3l0.5,0l-0.4,5c-0.2,2.1,1.5,4,3.8,4.3l4.6,0.6c0.1,0,0.2,0,0.3,0c2.2,0.2,4.2-1.2,4.5-3.2l0.9-4.7
							l0.7-3.7l1-5.4l0.7-3.8l0.9-4.6c0.2-1-0.1-2-0.7-2.9c-0.7-1-1.8-1.6-3.1-1.8l-7-1c-1.1-0.2-2.2,0.1-3.1,0.6l0.6-6l29.5,2.6
							c0,0,0,0,0.1,0c1.7,0.1,3.2-0.9,3.7-2.6l12.3-42.8c1.9,0.6,5.9,1.8,8.5,2.7c0.9,0.3,1.6,0.6,2,0.8c1.2,0.5,3.3,1.7,5.1,3.8
							c1,1.3,1.9,2.9,2.4,4.9c0.2,0.7,0.3,1.4,0.3,2c0.3,3.3-0.6,6.1-1.1,7.3c-1.1,0-2.1,0.2-3.2,0.9c-3.5,2.3-5.2,7.2-5.7,11.1
							c-0.2,1.9,0.3,3.6,1.4,5c2.7,3.2,8.1,3.6,8.3,3.6c0.3,0,0.6-0.1,0.8-0.3c0.2-0.2,0.3-0.5,0.3-0.8l0-4.8c0-0.3-0.1-0.6-0.4-0.8
							c-1-0.8-2.2-1.9-2-3.1c0.1-0.8,0.9-1.6,1.6-2c0,0,0.1,0.1,0.1,0.1c0.8,1.1,2,1.9,3.4,2.1c0.2,0,0.3,0,0.5,0.1
							c1.2,0.1,2.4-0.3,3.4-1c0.1-0.1,0.1-0.1,0.2-0.2c0.5,0.8,1.1,2,0.8,2.9c-0.2,0.7-1,1.3-2.4,1.6c-0.4,0.1-0.6,0.4-0.7,0.7
							l-1.4,4.7c-0.1,0.3,0,0.6,0.1,0.9c0.2,0.3,0.4,0.4,0.7,0.4c0,0,0.1,0,0.3,0c1.3,0.1,6.1,0.3,9.1-2.2c1.4-1.1,2.2-2.7,2.4-4.5
							C377,257.4,375.8,253.1,373.3,250.7z M225.1,193.3c-1.7,0.5-2.3,0.6-3.5-0.2c-3.2-2.2-5-7.7-5.4-12.3c-0.5-5.5,6.7-7.8,10-8.5
							l-1.2,4.4c-2.7,1.9-4,3.8-3.8,5.7c0.3,2.1,2.2,3.4,3.5,4.1c-0.2,0.5-0.3,1.1-0.4,1.7c-0.1,1.9,0.6,3.6,1.9,4.8
							C225.7,193.1,225.4,193.2,225.1,193.3z M234.4,193c1-1,1.7-2.3,1.8-3.9c0.1-0.8,0-1.6-0.3-2.3c1-0.9,2.7-2.8,2.6-5.1
							c-0.1-1.8-1.1-3.4-3.1-4.8l0.1-4.2c2.8,0.7,9.4,3,8.7,8.6c-0.6,4.7-1.6,9.8-4.7,11.8c-1.4,0.9-2.7,0.7-5.5,0.1
							C234.1,193.2,234.2,193.1,234.4,193z M229.8,194.3C229.7,194.3,229.7,194.3,229.8,194.3C229.7,194.3,229.7,194.3,229.8,194.3
							L229.8,194.3z M229.3,203.9c-0.7-2.2-1.3-4.7-1.6-7.5l6.2-0.2c0.3,1.7,0.8,3.6,1.5,5.4C232.6,201.6,230.5,202.9,229.3,203.9z
							 M247.5,217.9c-1.5-0.2-3-0.4-4.5-0.7c0.1-1.4,0.4-4.8,2.3-7.1c3,0.6,6,0.3,8.6,0.1c1-0.1,2-0.2,3-0.3c-0.8,3.7,0,6.6,0.7,8.2
							C253.9,218.3,250.6,218.2,247.5,217.9z M294,268.8l-1.7,17.5l-0.4,4.5l-0.2,2.6c-0.4-0.2-0.7-0.6-0.7-1l1.5-23.7v0L294,268.8
							L294,268.8z M304.3,295.5c-1.2-0.7-2.9-1.6-4.6-1.6c-1.2,0-2.6,0.3-3.8,0.6c-0.5,0.1-1.2,0.3-1.5,0.3l0.1-1.7
							c0.6,0,1.4-0.2,2.3-0.4c1.1-0.3,2.3-0.5,3.3-0.6c1.5,0,3.5,1.3,4.4,1.9L304.3,295.5z M297.3,283.5c1.2-0.2,2.7-0.5,3.9-0.5
							c1.8,0,4.1,1.3,5.1,1.9l-0.3,1.6c-1.3-0.8-3.6-1.9-5.6-1.9c-1.4,0-3,0.3-4.3,0.5c-0.3,0.1-0.6,0.1-1,0.2l0.1-1.5
							C295.8,283.8,296.5,283.7,297.3,283.5z M359.2,252.9c-0.1,0.6-0.1,1.2,0,1.8c-1,0.6-2.6,1.8-2.9,3.7c-0.2,1.6,0.6,3.1,2.4,4.6
							l0,3.1c-1.5-0.3-4.3-1-5.8-2.8c-0.8-1-1.1-2.1-1-3.4c0.5-4.2,2.3-8,4.7-9.6c0.8-0.5,1.6-0.7,2.7-0.5c0.4,0,0.8,0.1,1.2,0.2
							C359.9,250.8,359.3,251.8,359.2,252.9z M357.9,231.2c-1.8-1.8-3.8-2.8-4.9-3.3c-0.3-0.2-0.8-0.3-1.4-0.5
							c-0.2-2.8,1.5-4.8,2.3-5.6c3.4,1.3,7,3,9.5,5.1C361.7,227.5,359.3,228.7,357.9,231.2z M368,247.8c-1.6-0.4-4.5-0.9-6.8-0.6
							c0.5-1.5,0.9-3.8,0.8-6.4c1.1-1.1,3.1-1.3,4.8-1.1c0.6,0,1.2,0.1,1.7,0.2C368.6,243.2,368.3,246.3,368,247.8z M374.5,262.2
							c-0.1,1.3-0.6,2.3-1.6,3.1c-1.9,1.5-4.9,1.8-6.6,1.8l0.8-2.9c1.8-0.6,2.8-1.5,3.2-2.8c0.6-2-0.7-4.2-1.4-5.2
							c0.2-0.5,0.4-1,0.5-1.5c0.2-1.3-0.1-2.6-0.8-3.7c1.5,0.1,2.3,0.3,3.3,1.3C373.9,254.1,374.9,257.9,374.5,262.2z"/>
						<path class="st51" d="M354.4,219.7c-0.2-0.1-0.5-0.2-0.7-0.3C354,219.4,354.2,219.5,354.4,219.7z"/>
						<path class="st51" d="M338.9,198.5c-0.9-1.4-2.2-2.3-3.8-2.6c-12.8-2.4-23.8-3.7-32.8-4.3c-12.1-0.9-20.7-0.5-24.9-0.2
							c-2.3,0.2-4,2.1-3.9,4.4l2.7,64.2c0,0.5,0.4,0.9,0.9,1l46.3,3.6c0,0,0,0,0,0c0.5,0,1-0.3,1.1-0.8l15.2-60.7
							C340,201.5,339.8,199.8,338.9,198.5z M286.7,210.8c3.5-2.7,8.5-2,11.2,1.5c0.2,0.3,0.3,0.7,0.3,1c-0.1,0.4-0.2,0.7-0.5,0.9
							l-4.2,3.2l3.2,4.2c0.2,0.3,0.3,0.7,0.3,1c0,0.4-0.2,0.7-0.5,0.9c-1.6,1.2-3.5,1.7-5.4,1.6c-2.2-0.2-4.4-1.2-5.8-3.1
							C282.5,218.5,283.2,213.5,286.7,210.8z M314.8,246.5c-3,3.2-5.7,3.2-7.1,3.2c-0.2,0-0.3,0-0.4,0c-0.8,0-2,0-3.1-0.6
							c-1.1-0.6-1.6-1.6-2.1-2.4c-0.2-0.3-0.3-0.6-0.5-0.9c-1-1.4-3.4-0.3-6.5,1.4c-1.7,0.9-3.3,1.8-4.7,1.9c-0.3,0-0.6,0-0.9,0
							c-1.3-0.1-2.3-0.6-3.1-1.6c-1.3-1.8-1.2-4.4-0.5-6.3c1-2.5,3.4-3.9,5.9-3.5c0.7,0.1,1.2,0.8,1.1,1.6c-0.1,0.7-0.8,1.2-1.6,1.1
							c-1.4-0.2-2.4,0.8-2.9,1.8c-0.5,1.3-0.5,2.8,0.1,3.6c0.2,0.3,0.6,0.6,1.5,0.5c0.8-0.1,2.3-0.9,3.7-1.6
							c3.2-1.7,7.5-4.1,10.1-0.6c0.3,0.4,0.5,0.8,0.7,1.2c0.4,0.7,0.6,1.1,1,1.3c0.4,0.2,0.9,0.3,1.6,0.2c0.2,0,0.4,0,0.6,0
							c1.2,0,2.8,0,5-2.4c0.5-0.6,1.4-0.6,1.9-0.1C315.3,245.1,315.3,245.9,314.8,246.5z M318.2,243.3l-0.3,0.4
							c-0.3,0.3-0.7,0.5-1.1,0.5c-0.3,0-0.6-0.1-0.8-0.3c-0.6-0.5-0.6-1.4-0.2-1.9l0.3-0.4c0.5-0.6,1.4-0.6,1.9-0.2
							C318.7,241.9,318.7,242.7,318.2,243.3z M324.8,217.1c-0.1,0.4-0.2,0.7-0.5,0.9l-4.2,3.2l3.2,4.2c0.5,0.6,0.3,1.5-0.3,1.9
							c-1.6,1.2-3.5,1.7-5.4,1.6c-2.2-0.2-4.4-1.2-5.8-3.1c-1.3-1.7-1.8-3.8-1.5-5.9c0.3-2.1,1.4-4,3.1-5.3c3.5-2.7,8.5-2,11.2,1.5
							C324.8,216.4,324.9,216.7,324.8,217.1z"/>
						<path class="st51" d="M318.7,180.4c-0.2-0.6-0.6-1.1-0.9-1.4l-0.1-0.1c-1.2-1.3-1.8-3.4-2.3-4.9c-0.3-0.8-0.5-1.6-0.7-2.5
							c-0.3-1.1-0.5-2.2-0.8-3.3c-0.8-3.5-1.5-7.6-0.8-11.4c0.2-1.2,1.4-2.3,2.3-3c1.7-1.4,2.7-3.5,2.9-5.7c0.2-2.3-0.6-4.5-2.1-6.2
							c-1.3-1.4-3.1-2.2-5-2.3c-3.8-0.1-7,3.1-7.4,7.2c-0.2,2.2,0.4,4.4,1.8,6c0.8,1,2,2.8,2,3.3c0.1,0.7,0.1,1.5,0.1,2.4
							c0,0.6-0.1,1.2-0.2,1.8l0,0.1c-0.4,2.1-1.1,4.3-2.3,7.1c-0.5,1.1-1,2.1-1.5,3.2c-0.7,1.3-1.4,2.6-2.1,3.9
							c-0.5,0.8-1,1.7-1.7,2.4c-0.1,0.1-0.2,0.1-0.2,0.2c-0.6,0.6-1.5,1.4-1.6,2.6c0,0.5,0.2,1.1,0.5,1.6c1,1.6,2.9,2.5,4.2,3
							c1.6,0.6,3.4,1,5.3,1.2c0,0,0.1,0,0.1,0c0.7,0,1.5,0.1,2.2,0c2.9-0.1,5.8-0.5,7.7-2.8c0.2-0.2,0.8-0.9,0.8-1.8
							C318.8,180.8,318.7,180.6,318.7,180.4z M312,150.7C312,150.7,312,150.7,312,150.7c-1.8-0.1-3.2-1.7-3-3.5
							c0.1-1.8,1.7-3.1,3.5-3h0c0.9,0.1,1.7,0.5,2.2,1.1c0.6,0.7,0.9,1.5,0.8,2.4c-0.1,0.9-0.5,1.7-1.1,2.2
							C313.7,150.5,312.8,150.7,312,150.7z"/>
						<path class="st51" d="M295.4,266.8l-3.7-0.3l3.5,0.3C295.3,266.8,295.3,266.8,295.4,266.8z"/>
						<polygon class="st51" points="294,268.8 294,268.8 292.4,268.6 292.4,268.6 						"/>
						<path class="st51" d="M229.8,194.3C229.7,194.3,229.7,194.3,229.8,194.3C229.7,194.3,229.7,194.3,229.8,194.3L229.8,194.3z"/>
					</g>
					<g>
						<path class="st51" d="M295.4,162.8c-0.4,0-0.8-0.1-1.1-0.4c-4.3-4.4-6.6-10.2-6.6-16.3c0-12.8,10.5-23.1,23.2-23.1
							c0,0,0.1,0,0.1,0c6.2,0,12,2.5,16.4,6.9c4.4,4.4,6.8,10.2,6.7,16.4c0,6.1-2.4,11.8-6.6,16.1c-0.6,0.6-1.5,0.6-2.1,0
							c-0.6-0.6-0.6-1.5,0-2.1c3.7-3.8,5.7-8.8,5.7-14.1c0-5.4-2.1-10.5-5.9-14.3c-3.8-3.8-8.9-6-14.3-6c0,0-0.1,0-0.1,0
							c-5.4,0-10.4,2.1-14.3,5.9c-3.8,3.8-6,8.9-6,14.3c0,5.3,2,10.4,5.7,14.2c0.6,0.6,0.6,1.5,0,2.1
							C296.1,162.7,295.7,162.8,295.4,162.8z"/>
					</g>
					<g>
						<path class="st51" d="M340.8,159.3c-0.2,0-0.4,0-0.6-0.1c-0.8-0.3-1.1-1.2-0.8-1.9c1.6-3.8,2.4-7.8,2.4-11.9
							c0-8.3-3.2-16.1-9-22c-5.8-5.9-13.6-9.1-21.9-9.2c0,0-0.1,0-0.1,0c-8.2,0-16,3.2-21.8,9c-5.9,5.8-9.1,13.6-9.2,21.9
							c0,4.2,0.8,8.3,2.4,12.2c0.3,0.8,0,1.6-0.8,1.9c-0.7,0.3-1.6,0-1.9-0.8c-1.8-4.2-2.7-8.7-2.7-13.3c0-9.1,3.6-17.6,10-24
							c6.4-6.4,14.9-9.9,23.9-9.9c0,0,0.1,0,0.1,0c9.1,0,17.6,3.6,24,10c6.4,6.4,9.9,15,9.9,24c0,4.5-0.9,8.9-2.7,13.1
							C342,158.9,341.4,159.3,340.8,159.3z"/>
					</g>
				</g>
			</g>
			<g>
				<path class="st51" d="M110.8,478.3c-4.5-4.1-6.8-9-6.8-14.9v-62.9c0-5.8,2.3-10.7,6.8-14.8c4.5-4.1,9.9-6.1,16.3-6.1
					c6.3,0,11.8,2,16.3,6.1s6.8,9,6.8,14.8H130c0-5.8-0.3-10.7-0.9-14.8c-0.2-1.4-0.4-2.6-0.6-3.5c-0.5,0-0.9-0.1-1.4-0.1
					c-0.5,0-1,0-1.4,0.1c-0.2,0.9-0.5,2.1-0.6,3.5c-0.6,4.1-0.9,9-0.9,14.8v62.9c0,5.8,0.3,10.8,0.9,14.9c0.2,1.4,0.4,2.5,0.6,3.4
					c0.5,0,0.9,0.1,1.4,0.1c0.5,0,1,0,1.4-0.1c0.2-0.9,0.4-2,0.6-3.4c0.6-4.1,0.9-9,0.9-14.9h20.1c0,5.8-2.3,10.8-6.8,14.9
					c-4.5,4.1-9.9,6.1-16.3,6.1C120.7,484.4,115.3,482.4,110.8,478.3z"/>
				<path class="st51" d="M156.7,392.3c-2.2-2-3.3-4.5-3.3-7.4c0-2.9,1.1-5.3,3.3-7.4c2.3-2,5-3.1,8.2-3.1c3.2,0,5.9,1,8.2,3.1
					c2.3,2.1,3.4,4.6,3.4,7.4c0,2.9-1.1,5.4-3.4,7.4c-2.3,2-5,3.1-8.2,3.1C161.7,395.4,159,394.4,156.7,392.3z M154.8,484.4v-83.8
					H175v83.8H154.8z"/>
				<path class="st51" d="M179.6,484.4V379.7h20.1v21.1c0.9-0.1,1.9-0.2,2.9-0.2c6.3,0,11.8,2,16.3,6.1s6.8,9,6.8,14.8v41.9
					c0,5.8-2.3,10.8-6.8,14.9c-4.5,4.1-9.9,6.1-16.3,6.1c-3.2,0-5.9-2-8.2-6.1c-1-1.9-1.8-4-2.4-6.2l-6.8,12.3H179.6z M204,481.8
					c0.2-0.9,0.4-2,0.6-3.4c0.6-4.1,0.9-9,0.9-14.9v-41.9c0-5.8-0.3-10.7-0.9-14.8c-0.2-1.4-0.4-2.6-0.6-3.5c-0.5,0-0.9,0-1.4,0
					c-0.5,0-1,0-1.4,0c-0.2,0.9-0.5,2.1-0.6,3.5c-0.6,4.1-0.9,9-0.9,14.8v41.9c0,5.8,0.3,10.8,0.9,14.9c0.2,1.3,0.3,2.4,0.6,3.3
					c0.5,0.1,1,0.2,1.5,0.2C203.1,481.8,203.6,481.8,204,481.8z"/>
				<path class="st51" d="M237.1,478.3c-4.5-4.1-6.8-9-6.8-14.9v-41.9c0-5.8,2.3-10.7,6.8-14.8c4.5-4.1,9.9-6.1,16.3-6.1
					c6.3,0,11.8,2,16.3,6.1c4.5,4.1,6.8,9,6.8,14.8v21h-25.9v20.9c0,5.8,0.3,10.8,0.9,14.9c0.2,1.4,0.4,2.5,0.6,3.4
					c0.5,0,0.9,0.1,1.4,0.1s1,0,1.4-0.1c0.2-0.9,0.4-2,0.6-3.4c0.6-4.1,0.9-9,0.9-14.9h20.1c0,5.8-2.3,10.8-6.8,14.9
					c-4.5,4.1-9.9,6.1-16.3,6.1C246.9,484.4,241.5,482.4,237.1,478.3z M256.2,439.9v-18.4c0-5.8-0.3-10.7-0.9-14.8
					c-0.2-1.4-0.4-2.6-0.6-3.5c-0.5,0-0.9,0-1.4,0s-1,0-1.4,0c-0.2,0.9-0.5,2.1-0.6,3.5c-0.6,4.1-0.9,9-0.9,14.8v18.4H256.2z"/>
				<path class="st51" d="M281,484.4v-83.8h5.7l6.8,12.3c0.6-2.2,1.4-4.3,2.4-6.1c2.3-4.1,5-6.1,8.2-6.1c6.3,0,11.8,2,16.3,6.1
					c4.5,4.1,6.8,9,6.8,14.8H307c0-5.8-0.3-10.7-0.9-14.8c-0.2-1.4-0.4-2.6-0.6-3.5c-0.5,0-0.9,0-1.4,0c-0.5,0-1,0.1-1.5,0.2
					c-0.2,0.9-0.4,2-0.6,3.3c-0.6,4.1-0.9,9-0.9,14.8v62.9H281z"/>
				<path class="st51" d="M331.8,484.4v-83.8h5.7l6.8,12.3c0.6-2.2,1.4-4.3,2.4-6.1c2.3-4.1,5-6.1,8.2-6.1c6.3,0,11.8,2,16.3,6.1
					c0.4,0.3,0.7,0.7,1,1c0.1-0.3,0.3-0.7,0.5-1c2.3-4.1,5-6.1,8.1-6.1c6.4,0,11.8,2,16.3,6.1c4.5,4.1,6.8,9,6.8,14.8v62.9h-20.2
					v-62.9c0-5.8-0.3-10.7-0.8-14.8c-0.2-1.4-0.4-2.6-0.7-3.5c-0.5,0-0.9,0-1.4,0s-1,0.1-1.4,0.2c-0.2,0.9-0.4,2-0.6,3.3
					c-0.6,4.1-0.9,9-0.9,14.8v62.9h-20.1v-62.9c0-5.8-0.3-10.7-0.9-14.8c-0.2-1.4-0.4-2.6-0.6-3.5c-0.5,0-0.9,0-1.4,0
					s-1,0.1-1.5,0.2c-0.2,0.9-0.4,2-0.6,3.3c-0.6,4.1-0.9,9-0.9,14.8v62.9H331.8z"/>
				<path class="st51" d="M415.2,478.3c-4.5-4.1-6.8-9-6.8-14.9v-41.9c0-5.8,2.3-10.7,6.8-14.8c4.5-4.1,9.9-6.1,16.3-6.1
					c6.3,0,11.8,2,16.3,6.1c4.5,4.1,6.8,9,6.8,14.8v21h-25.9v20.9c0,5.8,0.3,10.8,0.9,14.9c0.2,1.4,0.4,2.5,0.6,3.4
					c0.5,0,0.9,0.1,1.4,0.1s1,0,1.4-0.1c0.2-0.9,0.4-2,0.6-3.4c0.6-4.1,0.9-9,0.9-14.9h20.1c0,5.8-2.3,10.8-6.8,14.9
					c-4.5,4.1-9.9,6.1-16.3,6.1C425.1,484.4,419.6,482.4,415.2,478.3z M434.3,439.9v-18.4c0-5.8-0.3-10.7-0.9-14.8
					c-0.2-1.4-0.4-2.6-0.6-3.5c-0.5,0-0.9,0-1.4,0s-1,0-1.4,0c-0.2,0.9-0.5,2.1-0.6,3.5c-0.6,4.1-0.9,9-0.9,14.8v18.4H434.3z"/>
				<path class="st51" d="M465.9,478.3c-4.5-4.1-6.8-9-6.8-14.9v-41.9c0-5.8,2.3-10.7,6.8-14.8c4.5-4.1,9.9-6.1,16.3-6.1
					c1,0,1.9,0.1,2.9,0.2v-21.1h20.1v104.8h-5.7l-6.8-12.3c-0.6,2.3-1.4,4.3-2.4,6.2c-2.3,4.1-5,6.1-8.2,6.1
					C475.8,484.4,470.4,482.4,465.9,478.3z M483.7,481.7c0.2-0.9,0.4-2,0.6-3.3c0.6-4.1,0.9-9,0.9-14.9v-41.9
					c0-5.8-0.3-10.7-0.9-14.8c-0.2-1.4-0.4-2.6-0.6-3.5c-0.5,0-0.9,0-1.4,0s-1,0-1.4,0c-0.2,0.9-0.5,2.1-0.6,3.5
					c-0.6,4.1-0.9,9-0.9,14.8v41.9c0,5.8,0.3,10.8,0.9,14.9c0.2,1.4,0.4,2.5,0.6,3.4c0.5,0,0.9,0.1,1.4,0.1S483.2,481.8,483.7,481.7
					z"/>
				<path class="st51" d="M511.8,392.3c-2.2-2-3.3-4.5-3.3-7.4c0-2.9,1.1-5.3,3.3-7.4c2.3-2,5-3.1,8.2-3.1c3.2,0,5.9,1,8.2,3.1
					c2.3,2.1,3.4,4.6,3.4,7.4c0,2.9-1.1,5.4-3.4,7.4c-2.3,2-5,3.1-8.2,3.1C516.8,395.4,514,394.4,511.8,392.3z M509.9,484.4v-83.8
					H530v83.8H509.9z"/>
				<path class="st51" d="M541.4,478.3c-4.5-4.1-6.8-9-6.8-14.9c0-5.8,2.3-10.7,6.8-14.8c4.5-4.1,9.9-6.1,16.3-6.1h2.9v-21
					c0-5.8-0.3-10.7-0.9-14.8c-0.2-1.4-0.4-2.6-0.6-3.5c-0.5,0-0.9,0-1.4,0s-1,0-1.4,0c-0.2,0.9-0.5,2.1-0.6,3.5
					c-0.6,4.1-0.9,9-0.9,14.8h-20.1c0-5.8,2.3-10.7,6.8-14.8c4.5-4.1,9.9-6.1,16.3-6.1c6.3,0,11.8,2,16.3,6.1
					c4.5,4.1,6.8,9,6.8,14.8v62.9H575l-6.8-12.3c-0.6,2.3-1.4,4.3-2.4,6.2c-2.3,4.1-5,6.1-8.2,6.1
					C551.3,484.4,545.8,482.4,541.4,478.3z M559.1,481.7c0.2-0.9,0.4-2,0.6-3.3c0.6-4.1,0.9-9,0.9-14.9v-18.4h-2.9
					c-0.5,0-1,0-1.4,0.1c-0.2,0.9-0.5,2.1-0.6,3.5c-0.6,4.1-0.9,9-0.9,14.8c0,5.8,0.3,10.8,0.9,14.9c0.2,1.4,0.4,2.5,0.6,3.4
					c0.5,0,0.9,0.1,1.4,0.1S558.6,481.8,559.1,481.7z"/>
			</g>
			<g>
				<path class="st51" d="M56.4,350.4c-2.1-1.9-3.2-4.2-3.2-7v-29.5c0-2.7,1.1-5,3.2-6.9c2.1-1.9,4.6-2.9,7.6-2.9c3,0,5.5,1,7.6,2.9
					s3.2,4.2,3.2,6.9h-9.5c0-2.7-0.1-5-0.4-6.9c-0.1-0.7-0.2-1.2-0.3-1.6c-0.2,0-0.4,0-0.7,0c-0.2,0-0.5,0-0.7,0
					c-0.1,0.4-0.2,1-0.3,1.6c-0.3,1.9-0.4,4.2-0.4,6.9v29.5c0,2.7,0.1,5.1,0.4,7c0.1,0.7,0.2,1.2,0.3,1.6c0.2,0,0.4,0,0.7,0
					c0.2,0,0.5,0,0.7,0c0.1-0.4,0.2-1,0.3-1.6c0.3-1.9,0.4-4.2,0.4-7h9.5c0,2.7-1.1,5.1-3.2,7c-2.1,1.9-4.7,2.9-7.6,2.9
					C61.1,353.2,58.5,352.3,56.4,350.4z"/>
				<path class="st51" d="M80.2,350.4c-2.1-1.9-3.2-4.2-3.2-7v-19.7c0-2.7,1.1-5,3.2-6.9c2.1-1.9,4.6-2.9,7.6-2.9c3,0,5.5,1,7.6,2.9
					s3.2,4.2,3.2,6.9v19.7c0,2.7-1.1,5.1-3.2,7c-2.1,1.9-4.7,2.9-7.6,2.9C84.9,353.2,82.3,352.3,80.2,350.4z M88.5,352
					c0.1-0.4,0.2-1,0.3-1.6c0.3-1.9,0.4-4.2,0.4-7v-19.7c0-2.7-0.1-5-0.4-6.9c-0.1-0.7-0.2-1.2-0.3-1.6c-0.2,0-0.4,0-0.7,0
					c-0.2,0-0.5,0-0.7,0c-0.1,0.4-0.2,1-0.3,1.6c-0.3,1.9-0.4,4.2-0.4,6.9v19.7c0,2.7,0.1,5.1,0.4,7c0.1,0.7,0.2,1.2,0.3,1.6
					c0.2,0,0.4,0,0.7,0C88.1,352,88.3,352,88.5,352z"/>
				<path class="st51" d="M104,350.4c-2.1-1.9-3.2-4.2-3.2-7v-39.3h9.5v39.3c0,2.7,0.1,5.1,0.4,7c0.1,0.7,0.2,1.2,0.3,1.6
					c0.2,0,0.4,0,0.7,0v1.2C108.7,353.2,106.1,352.3,104,350.4z"/>
				<path class="st51" d="M117,350.4c-2.1-1.9-3.2-4.2-3.2-7v-19.7c0-2.7,1.1-5,3.2-6.9c2.1-1.9,4.6-2.9,7.6-2.9c3,0,5.5,1,7.6,2.9
					c2.1,1.9,3.2,4.2,3.2,6.9v9.9h-12.2v9.8c0,2.7,0.1,5.1,0.4,7c0.1,0.7,0.2,1.2,0.3,1.6c0.2,0,0.4,0,0.7,0c0.2,0,0.5,0,0.7,0
					c0.1-0.4,0.2-1,0.3-1.6c0.3-1.9,0.4-4.2,0.4-7h9.5c0,2.7-1.1,5.1-3.2,7c-2.1,1.9-4.7,2.9-7.6,2.9
					C121.7,353.2,119.1,352.3,117,350.4z M126,332.3v-8.6c0-2.7-0.1-5-0.4-6.9c-0.1-0.7-0.2-1.2-0.3-1.6c-0.2,0-0.4,0-0.7,0
					c-0.2,0-0.5,0-0.7,0c-0.1,0.4-0.2,1-0.3,1.6c-0.3,1.9-0.4,4.2-0.4,6.9v8.6H126z"/>
				<path class="st51" d="M140.8,350.4c-2.1-1.9-3.2-4.2-3.2-7v-19.7c0-2.7,1.1-5,3.2-6.9c2.1-1.9,4.6-2.9,7.6-2.9
					c3,0,5.5,1,7.6,2.9c2.1,1.9,3.2,4.2,3.2,6.9h-9.5c0-2.7-0.1-5-0.4-6.9c-0.1-0.7-0.2-1.2-0.3-1.6c-0.2,0-0.4,0-0.7,0
					s-0.5,0-0.7,0c-0.1,0.4-0.2,1-0.3,1.6c-0.3,1.9-0.4,4.2-0.4,6.9v19.7c0,2.7,0.1,5.1,0.4,7c0.1,0.7,0.2,1.2,0.3,1.6
					c0.2,0,0.4,0,0.7,0s0.5,0,0.7,0c0.1-0.4,0.2-1,0.3-1.6c0.3-1.9,0.4-4.2,0.4-7h9.5c0,2.7-1.1,5.1-3.2,7c-2.1,1.9-4.7,2.9-7.6,2.9
					C145.5,353.2,142.9,352.3,140.8,350.4z"/>
				<path class="st51" d="M168.7,350.4c-2.1-1.9-3.2-4.2-3.2-7v-28.3h-4v-1.2h2.7c0.2,0,0.5,0,0.7,0c0.1-0.4,0.2-1,0.3-1.6
					c0.2-1.9,0.4-4.2,0.4-7h9.5c0,2.7-1.1,5.1-3.2,7c-0.7,0.7-1.5,1.2-2.4,1.6h11v1.2H175v28.3c0,2.7,0.1,5.1,0.4,7
					c0.1,0.7,0.2,1.2,0.3,1.6c0.2,0,0.4,0,0.7,0v1.2C173.3,353.2,170.8,352.3,168.7,350.4z"/>
				<path class="st51" d="M183.5,310c-1-1-1.6-2.1-1.6-3.5c0-1.3,0.5-2.5,1.6-3.5c1.1-1,2.3-1.4,3.8-1.4c1.5,0,2.8,0.5,3.8,1.4
					c1.1,1,1.6,2.1,1.6,3.5c0,1.4-0.5,2.5-1.6,3.5c-1.1,1-2.4,1.4-3.8,1.4C185.8,311.4,184.5,311,183.5,310z M182.6,353.2v-39.3h9.5
					v39.3H182.6z"/>
				<path class="st51" d="M199.6,353.2l-5.4-39.3h9.5l4.7,34.4l4.8-34.4h1.4l-5.4,39.3H199.6z"/>
				<path class="st51" d="M219.8,350.4c-2.1-1.9-3.2-4.2-3.2-7v-19.7c0-2.7,1.1-5,3.2-6.9c2.1-1.9,4.6-2.9,7.6-2.9
					c3,0,5.5,1,7.6,2.9s3.2,4.2,3.2,6.9v19.7c0,2.7-1.1,5.1-3.2,7c-2.1,1.9-4.7,2.9-7.6,2.9C224.4,353.2,221.9,352.3,219.8,350.4z
					 M228.1,352c0.1-0.4,0.2-1,0.3-1.6c0.3-1.9,0.4-4.2,0.4-7v-19.7c0-2.7-0.1-5-0.4-6.9c-0.1-0.7-0.2-1.2-0.3-1.6
					c-0.2,0-0.4,0-0.7,0c-0.2,0-0.5,0-0.7,0c-0.1,0.4-0.2,1-0.3,1.6c-0.3,1.9-0.4,4.2-0.4,6.9v19.7c0,2.7,0.1,5.1,0.4,7
					c0.1,0.7,0.2,1.2,0.3,1.6c0.2,0,0.4,0,0.7,0C227.7,352,227.9,352,228.1,352z"/>
			</g>
			<g>
				<path class="st51" d="M370.1,350.8c-2.1-1.9-3.2-4.3-3.2-7v-29.6c0-2.7,1.1-5,3.2-7c2.1-1.9,4.7-2.9,7.7-2.9c3,0,5.5,1,7.7,2.9
					c2.1,1.9,3.2,4.3,3.2,7h-9.5c0-2.7-0.1-5-0.4-7c-0.1-0.7-0.2-1.2-0.3-1.7c-0.2,0-0.4,0-0.7,0s-0.5,0-0.7,0
					c-0.1,0.4-0.2,1-0.3,1.7c-0.3,1.9-0.4,4.3-0.4,7v29.6c0,2.7,0.1,5.1,0.4,7c0.1,0.7,0.2,1.2,0.3,1.6c0.2,0,0.4,0,0.7,0
					s0.5,0,0.7,0c0.1-0.4,0.2-1,0.3-1.6c0.3-1.9,0.4-4.3,0.4-7h9.5c0,2.7-1.1,5.1-3.2,7c-2.1,1.9-4.7,2.9-7.7,2.9
					C374.7,353.7,372.2,352.7,370.1,350.8z"/>
				<path class="st51" d="M394,350.8c-2.1-1.9-3.2-4.3-3.2-7v-29.6h9.5v29.6c0,2.7,0.1,5.1,0.4,7c0.1,0.7,0.2,1.2,0.3,1.6
					c0.2,0,0.4,0,0.7,0c0.2,0,0.5,0,0.7-0.1c0.1-0.4,0.2-0.9,0.3-1.6c0.3-1.9,0.4-4.3,0.4-7v-29.6h9.5v39.5h-2.7l-3.2-5.8
					c-0.3,1.1-0.6,2-1.1,2.9c-1.1,1.9-2.3,2.9-3.9,2.9C398.6,353.7,396.1,352.7,394,350.8z"/>
				<path class="st51" d="M417.9,350.8c-2.1-1.9-3.2-4.3-3.2-7v-39.5h9.5v39.5c0,2.7,0.1,5.1,0.4,7c0.1,0.7,0.2,1.2,0.3,1.6
					c0.2,0,0.4,0,0.7,0v1.2C422.5,353.7,420,352.7,417.9,350.8z"/>
				<path class="st51" d="M435,350.8c-2.1-1.9-3.2-4.3-3.2-7v-28.4h-4.1v-1.2h2.7c0.2,0,0.5,0,0.7,0c0.1-0.4,0.2-1,0.3-1.7
					c0.3-1.9,0.4-4.3,0.4-7h9.5c0,2.7-1.1,5.1-3.2,7c-0.7,0.7-1.5,1.2-2.4,1.7h11v1.2h-5.4v28.4c0,2.7,0.1,5.1,0.4,7
					c0.1,0.7,0.2,1.2,0.3,1.6c0.2,0,0.4,0,0.7,0v1.2C439.7,353.7,437.1,352.7,435,350.8z"/>
				<path class="st51" d="M452.1,350.8c-2.1-1.9-3.2-4.3-3.2-7v-29.6h9.5v29.6c0,2.7,0.1,5.1,0.4,7c0.1,0.7,0.2,1.2,0.3,1.6
					c0.2,0,0.4,0,0.7,0c0.2,0,0.5,0,0.7-0.1c0.1-0.4,0.2-0.9,0.3-1.6c0.3-1.9,0.4-4.3,0.4-7v-29.6h9.5v39.5h-2.7l-3.2-5.8
					c-0.3,1.1-0.6,2-1.1,2.9c-1.1,1.9-2.3,2.9-3.9,2.9C456.8,353.7,454.2,352.7,452.1,350.8z"/>
				<path class="st51" d="M472.8,353.7v-39.5h2.7l3.2,5.8c0.3-1,0.6-2,1.1-2.9c1.1-1.9,2.3-2.9,3.9-2.9c3,0,5.5,1,7.7,2.9
					c2.1,1.9,3.2,4.3,3.2,7h-9.5c0-2.7-0.1-5-0.4-7c-0.1-0.7-0.2-1.2-0.3-1.7c-0.2,0-0.4,0-0.7,0s-0.5,0-0.7,0.1
					c-0.1,0.4-0.2,0.9-0.3,1.6c-0.3,1.9-0.4,4.3-0.4,7v29.6H472.8z"/>
				<path class="st51" d="M499.9,350.8c-2.1-1.9-3.2-4.3-3.2-7c0-2.7,1.1-5,3.2-7c2.1-1.9,4.7-2.9,7.7-2.9h1.4V324
					c0-2.7-0.1-5-0.4-7c-0.1-0.7-0.2-1.2-0.3-1.7c-0.2,0-0.4,0-0.7,0c-0.2,0-0.5,0-0.7,0c-0.1,0.4-0.2,1-0.3,1.7
					c-0.3,1.9-0.4,4.3-0.4,7h-9.5c0-2.7,1.1-5,3.2-7c2.1-1.9,4.7-2.9,7.7-2.9c3,0,5.5,1,7.7,2.9c2.1,1.9,3.2,4.3,3.2,7v29.6h-2.7
					l-3.2-5.8c-0.3,1.1-0.6,2-1.1,2.9c-1.1,1.9-2.3,2.9-3.9,2.9C504.6,353.7,502,352.7,499.9,350.8z M508.3,352.4
					c0.1-0.4,0.2-0.9,0.3-1.6c0.3-1.9,0.4-4.3,0.4-7v-8.7h-1.4c-0.2,0-0.5,0-0.7,0c-0.1,0.4-0.2,1-0.3,1.7c-0.3,1.9-0.4,4.3-0.4,7
					c0,2.7,0.1,5.1,0.4,7c0.1,0.7,0.2,1.2,0.3,1.6c0.2,0,0.4,0,0.7,0C507.8,352.5,508.1,352.4,508.3,352.4z"/>
				<path class="st51" d="M523.9,350.8c-2.1-1.9-3.2-4.3-3.2-7v-39.5h9.5v39.5c0,2.7,0.1,5.1,0.4,7c0.1,0.7,0.2,1.2,0.3,1.6
					c0.2,0,0.4,0,0.7,0v1.2C528.5,353.7,526,352.7,523.9,350.8z"/>
			</g>
		</g>
	</g>
</g>
</svg>
